<svg aria-hidden="true" xmlns="http://www.w3.org/2000/svg" xmlns:xlink="http://www.w3.org/1999/xlink"><symbol viewBox="0 0 110 110" id="access" xmlns="http://www.w3.org/2000/svg">
<path d="M55.3 108.6C84.7368 108.6 108.6 84.7368 108.6 55.3C108.6 25.8632 84.7368 2 55.3 2C25.8632 2 2 25.8632 2 55.3C2 84.7368 25.8632 108.6 55.3 108.6Z" stroke-width="2" stroke-miterlimit="10" stroke-linecap="round" stroke-linejoin="round"/>
<path d="M56.7998 43.8V34.6L76.5998 27.3V78.5L56.7998 85.4001V67.7" stroke-width="2" stroke-miterlimit="10" stroke-linecap="round" stroke-linejoin="round"/>
<path d="M76.6002 27.3H48.2002V44.1" stroke-width="2" stroke-miterlimit="10" stroke-linecap="round" stroke-linejoin="round"/>
<path d="M48.2002 67.7V78.1H56.8002" stroke-width="2" stroke-miterlimit="10" stroke-linecap="round" stroke-linejoin="round"/>
<path d="M41.3998 59.7999C39.8998 64.1999 35.7998 67.4 30.8998 67.4C24.7998 67.4 19.7998 62.3999 19.7998 56.2999C19.7998 50.1999 24.7998 45.2 30.8998 45.2C35.4998 45.2 39.3998 48 41.0998 51.9H67.5998L63.4998 59.7L59.5998 57.4L55.3998 59.7L52.5998 57.4L49.3998 59.7L41.3998 59.7999Z" stroke-width="2" stroke-miterlimit="10" stroke-linecap="round" stroke-linejoin="round"/>
<path d="M27.7 57.5001C28.6389 57.5001 29.4 56.739 29.4 55.8001C29.4 54.8612 28.6389 54.1001 27.7 54.1001C26.7611 54.1001 26 54.8612 26 55.8001C26 56.739 26.7611 57.5001 27.7 57.5001Z" stroke-width="2" stroke-miterlimit="10" stroke-linecap="round" stroke-linejoin="round"/>
</symbol><symbol viewBox="0 0 110 110" id="bolt" xmlns="http://www.w3.org/2000/svg">
<path d="M55.3 108.6C84.7368 108.6 108.6 84.7368 108.6 55.3C108.6 25.8632 84.7368 2 55.3 2C25.8632 2 2 25.8632 2 55.3C2 84.7368 25.8632 108.6 55.3 108.6Z" stroke-width="2" stroke-miterlimit="10" stroke-linecap="round" stroke-linejoin="round"/>
<path d="M49.8998 22.5H67.0998L56.9998 51.5H70.8998L46.0998 93.7L53.1998 63.8H39.2998L49.8998 22.5Z" stroke-width="2" stroke-miterlimit="10" stroke-linecap="round" stroke-linejoin="round"/>
</symbol><symbol viewBox="0 0 110 110" id="coffee" xmlns="http://www.w3.org/2000/svg">
<path d="M55.3 108.6C84.7368 108.6 108.6 84.7368 108.6 55.3C108.6 25.8632 84.7368 2 55.3 2C25.8632 2 2 25.8632 2 55.3C2 84.7368 25.8632 108.6 55.3 108.6Z" stroke-width="2" stroke-miterlimit="10" stroke-linecap="round" stroke-linejoin="round"/>
<path d="M55.2 78.1999C45.7 78.1999 38 70.4999 38 60.9999V51.3999H72.3V60.9999C72.4 70.4999 64.7 78.1999 55.2 78.1999Z" stroke-width="2" stroke-miterlimit="10" stroke-linecap="round" stroke-linejoin="round"/>
<path d="M72.3998 57.8H76.8998C79.9998 57.8 82.5998 60.3 82.5998 63.5C82.5998 66.6 80.0998 69.2 76.8998 69.2H70.2998" stroke-width="2" stroke-miterlimit="10" stroke-linecap="round" stroke-linejoin="round"/>
<path d="M36.2002 78.2H73.1002" stroke-width="2" stroke-miterlimit="10" stroke-linecap="round" stroke-linejoin="round"/>
<path d="M45.3 26C42.8 29.3 42.8 32.5 45 34.7C47.2 37 47.5 41.9 43.5 44.3" stroke-width="1.5996" stroke-miterlimit="10" stroke-linecap="round" stroke-linejoin="round"/>
<path d="M53.8 26C51.3 29.3 51.3 32.5 53.5 34.7C55.7 37 56 41.9 52 44.3" stroke-width="1.5996" stroke-miterlimit="10" stroke-linecap="round" stroke-linejoin="round"/>
<path d="M62.3 26C59.8 29.3 59.8 32.5 62 34.7C64.2 37 64.5 41.9 60.5 44.3" stroke-width="1.5996" stroke-miterlimit="10" stroke-linecap="round" stroke-linejoin="round"/>
</symbol><symbol viewBox="0 0 12 24" id="facebook" xmlns="http://www.w3.org/2000/svg">
<path d="M7.78891 24V13.0524H11.327L11.8567 8.78611H7.78891V6.06193C7.78891 4.82708 8.11895 3.98496 9.82465 3.98496L12 3.984V0.16804C11.6237 0.116188 10.3322 0 8.83082 0C5.69399 0 3.5473 1.98864 3.5473 5.63943V8.78611H0V13.0524H3.5473V24H7.78891Z"/>
</symbol><symbol viewBox="0 0 110 110" id="globe" xmlns="http://www.w3.org/2000/svg">
<path d="M55.3002 89.5C74.2002 89.5 89.5002 74.1999 89.5002 55.2999C89.5002 36.4 74.2002 21.2 55.3002 21.2C36.4002 21.2 21.2002 36.5 21.2002 55.2999C21.2002 74.0999 36.5002 89.5 55.3002 89.5Z" stroke-width="2" stroke-miterlimit="10" stroke-linecap="round" stroke-linejoin="round"/>
<path d="M22.8 97.5C10.1 87.7 2 72.5 2 55.3C2 25.9 25.9 2 55.3 2C62.7 2 69.7 3.5 76.1 6.1" stroke-width="2" stroke-miterlimit="10" stroke-linecap="round" stroke-linejoin="round"/>
<path d="M86.1998 11.8999C99.6998 21.4999 108.7 37.4999 108.7 55.2999C108.7 84.6999 84.7998 108.6 55.3998 108.6C46.9998 108.6 38.8998 106.6 31.7998 103.2" stroke-width="2" stroke-miterlimit="10" stroke-linecap="round" stroke-linejoin="round"/>
<path d="M54.4 21.5C43 29.1 38 44 38 55.3C38 68 44.3 81.1 55.3 89.3" stroke-width="2" stroke-miterlimit="10" stroke-linecap="round" stroke-linejoin="round"/>
<path d="M56.3004 21.5C67.7004 29.1 72.7004 44 72.7004 55.3C72.7004 68 66.4004 81.1 55.4004 89.3" stroke-width="2" stroke-miterlimit="10" stroke-linecap="round" stroke-linejoin="round"/>
<path d="M55.2998 21.2V89.3999" stroke-width="2" stroke-miterlimit="10" stroke-linecap="round" stroke-linejoin="round"/>
<path d="M25.0996 39.2H84.6996" stroke-width="2" stroke-miterlimit="10" stroke-linecap="round" stroke-linejoin="round"/>
<path d="M21.2002 55.3H89.6002" stroke-width="2" stroke-miterlimit="10" stroke-linecap="round" stroke-linejoin="round"/>
<path d="M25.0996 71.5H84.6996" stroke-width="2" stroke-miterlimit="10" stroke-linecap="round" stroke-linejoin="round"/>
<path d="M85.4004 23.5001V10.6001H98.3004" stroke-width="2" stroke-miterlimit="10" stroke-linecap="round" stroke-linejoin="round"/>
<path d="M23.4998 85.2V98.1H10.7998" stroke-width="2" stroke-miterlimit="10" stroke-linecap="round" stroke-linejoin="round"/>
</symbol><symbol viewBox="0 0 110 110" id="heart" xmlns="http://www.w3.org/2000/svg">
<path d="M55.3 108.6C84.7368 108.6 108.6 84.7368 108.6 55.3C108.6 25.8632 84.7368 2 55.3 2C25.8632 2 2 25.8632 2 55.3C2 84.7368 25.8632 108.6 55.3 108.6Z" stroke-width="2" stroke-miterlimit="10" stroke-linecap="round" stroke-linejoin="round"/>
<path d="M55.4004 41.1999L58.0004 38.5999C63.6004 32.9999 72.7004 32.9999 78.3004 38.5999C83.9004 44.1999 83.9004 53.2999 78.3004 58.8999L55.5004 81.5999" stroke-width="2" stroke-miterlimit="10" stroke-linecap="round" stroke-linejoin="round"/>
<path d="M55.3002 41.1999L52.7002 38.5999C47.1002 32.9999 38.0002 32.9999 32.4002 38.5999C26.8002 44.1999 26.8002 53.2999 32.4002 58.8999L55.2002 81.6999" stroke-width="2" stroke-miterlimit="10" stroke-linecap="round" stroke-linejoin="round"/>
</symbol><symbol viewBox="0 0 26 26" id="instagram" xmlns="http://www.w3.org/2000/svg">
<path d="M18.2223 26H7.77778C3.67709 26 0.347656 22.6706 0.347656 18.5753V7.43012C0.347656 3.32943 3.67709 0 7.77778 0H18.2223C22.3176 0 25.6524 3.32943 25.6524 7.43012V18.5753C25.647 22.6706 22.3176 26 18.2223 26ZM7.77778 1.90641C4.73078 1.90641 2.25407 4.38312 2.25407 7.43012V18.5753C2.25407 21.6223 4.73078 24.099 7.77778 24.099H18.2223C21.2693 24.099 23.746 21.6223 23.746 18.5753V7.43012C23.746 4.38312 21.2693 1.90641 18.2223 1.90641H7.77778Z"/>
<path d="M12.9973 19.8734C9.18994 19.8734 6.08862 16.7721 6.08862 12.9647C6.08862 11.0854 6.85988 9.2605 8.20686 7.95153C9.52125 6.67516 11.2321 6.00167 13.0299 6.05598C15.1807 6.12116 16.9677 6.84353 18.1897 8.1525C19.352 9.39085 19.9441 11.0637 19.9006 12.9864C19.8626 14.8277 19.1348 16.5548 17.853 17.8421C16.5657 19.151 14.8386 19.8734 12.9973 19.8734ZM12.8398 8.38061C11.721 8.38061 10.6564 8.82056 9.83084 9.61897C8.93466 10.488 8.41868 11.71 8.41868 12.9593C8.41868 15.4849 10.4717 17.5379 12.9973 17.5379C15.5121 17.5379 17.5217 15.5174 17.576 12.9321C17.6031 11.6286 17.2284 10.526 16.4951 9.73846C15.7022 8.89116 14.4801 8.42406 12.9647 8.37518C12.9213 8.38061 12.8833 8.38061 12.8398 8.38061Z"/>
<path d="M20.0744 7.47357C20.9653 7.47357 21.6875 6.75136 21.6875 5.86046C21.6875 4.96955 20.9653 4.24734 20.0744 4.24734C19.1835 4.24734 18.4613 4.96955 18.4613 5.86046C18.4613 6.75136 19.1835 7.47357 20.0744 7.47357Z"/>
</symbol><symbol viewBox="0 0 110 110" id="journey" xmlns="http://www.w3.org/2000/svg">
<path d="M55.3 108.6C84.7368 108.6 108.6 84.7368 108.6 55.3C108.6 25.8632 84.7368 2 55.3 2C25.8632 2 2 25.8632 2 55.3C2 84.7368 25.8632 108.6 55.3 108.6Z" stroke-width="2" stroke-miterlimit="10" stroke-linecap="round" stroke-linejoin="round"/>
<path d="M45.4004 74.0999L25.4004 85.5V35.5999L45.4004 24.2V74.0999Z" stroke-width="2" stroke-miterlimit="10" stroke-linecap="round" stroke-linejoin="round"/>
<path d="M85.2998 74.0999L65.2998 85.5V35.5999L85.2998 24.2V74.0999Z" stroke-width="2" stroke-miterlimit="10" stroke-linecap="round" stroke-linejoin="round"/>
<path d="M65.3004 35.5999L45.4004 24.2V74.0999L65.3004 85.5" stroke-width="2" stroke-miterlimit="10" stroke-linecap="round" stroke-linejoin="round"/>
<path d="M34.6998 70.3C34.3998 69.7 34.0998 69.1 33.7998 68.5" stroke-width="2" stroke-linecap="round" stroke-linejoin="round"/>
<path d="M32.6997 64.7C30.7997 54.8 35.2997 42.6 46.6997 46.9C60.3997 52 53.9997 67.9 65.3997 69.1C73.5997 70 77.6997 67.8 76.9997 58.8" stroke-width="2" stroke-linecap="round" stroke-linejoin="round" stroke-dasharray="4.01 4.01"/>
<path d="M76.8 56.8C76.7 56.2 76.6 55.5 76.5 54.8" stroke-width="2" stroke-linecap="round" stroke-linejoin="round"/>
<path d="M71.7002 44.5L79.4002 49.3" stroke-width="2" stroke-miterlimit="10" stroke-linecap="round" stroke-linejoin="round"/>
<path d="M77.9002 43L73.2002 50.7" stroke-width="2" stroke-miterlimit="10" stroke-linecap="round" stroke-linejoin="round"/>
</symbol><symbol viewBox="0 0 23 21" id="linkedin" xmlns="http://www.w3.org/2000/svg">
<path d="M5.53993 20.9999H0.854855V7.11722H5.45317V20.9999H5.53993ZM3.19739 5.26081C1.72246 5.26081 0.507812 4.13083 0.507812 2.7587C0.507812 1.38658 1.72246 0.256592 3.19739 0.256592C4.67232 0.256592 5.88697 1.38658 5.88697 2.7587C5.88697 4.13083 4.67232 5.26081 3.19739 5.26081ZM22.8921 20.9999H18.2937V14.22C18.2937 12.6057 18.2937 10.5072 15.8644 10.5072C13.4351 10.5072 13.0881 12.2829 13.0881 14.0586V20.9192H8.40303V7.11722H12.8278V8.97362H12.9146C13.5219 7.84364 15.0836 6.71365 17.3394 6.71365C22.0244 6.71365 22.8921 9.61933 22.8921 13.3321V20.9999Z"/>
</symbol><symbol viewBox="0 0 22 15" id="mail" xmlns="http://www.w3.org/2000/svg">
<path d="M0.268293 0.423828C0.107317 0.423828 0 0.531145 0 0.692121V0.960413L11 9.41163L22 0.960413V0.692121C22 0.531145 21.8927 0.423828 21.7317 0.423828H0.268293ZM0 2.30188V14.1068C0 14.2677 0.107317 14.375 0.268293 14.375H21.7317C21.8927 14.375 22 14.2677 22 14.1068V2.30188L11.322 10.4848C11.1341 10.6458 10.8659 10.6458 10.678 10.4848L0 2.30188Z"/>
</symbol><symbol viewBox="0 0 110 110" id="medal" xmlns="http://www.w3.org/2000/svg">
<path d="M55.3 108.6C84.7368 108.6 108.6 84.7368 108.6 55.3C108.6 25.8632 84.7368 2 55.3 2C25.8632 2 2 25.8632 2 55.3C2 84.7368 25.8632 108.6 55.3 108.6Z" stroke-width="2" stroke-miterlimit="10" stroke-linecap="round" stroke-linejoin="round"/>
<path d="M72.5002 51.1999L55.3002 61.1999L38.2002 51.1999V23.8999H72.5002V51.1999Z" stroke-width="2" stroke-miterlimit="10" stroke-linecap="round" stroke-linejoin="round"/>
<path d="M47.0996 23.8999V55.8999" stroke-width="2" stroke-miterlimit="10" stroke-linecap="round" stroke-linejoin="round"/>
<path d="M64.2002 23.8999V55.8999" stroke-width="2" stroke-miterlimit="10" stroke-linecap="round" stroke-linejoin="round"/>
<path d="M55.2996 62.1001L59.7996 71.0001L69.5996 72.5001L62.4996 79.4001L64.1996 89.2001L55.2996 84.6001L46.4996 89.2001L48.1996 79.4001L41.0996 72.5001L50.8996 71.0001L55.2996 62.1001Z" stroke-width="2" stroke-miterlimit="10" stroke-linecap="round" stroke-linejoin="round"/>
<path d="M55.2998 71L57.0998 74.4L60.8998 75L58.0998 77.7L58.7998 81.5L55.2998 79.7L51.8998 81.5L52.5998 77.7L49.7998 75L53.5998 74.4L55.2998 71Z" stroke-width="2" stroke-miterlimit="10" stroke-linecap="round" stroke-linejoin="round"/>
</symbol><symbol viewBox="0 0 110 110" id="member" xmlns="http://www.w3.org/2000/svg">
<path d="M55.3 108.6C84.7368 108.6 108.6 84.7368 108.6 55.3C108.6 25.8632 84.7368 2 55.3 2C25.8632 2 2 25.8632 2 55.3C2 84.7368 25.8632 108.6 55.3 108.6Z" stroke-width="2" stroke-miterlimit="10" stroke-linecap="round" stroke-linejoin="round"/>
<path d="M58.6996 35.6H79.6996C83.1996 35.6 86.0996 38.4 86.0996 42V69.2C86.0996 72.7 83.2996 75.6 79.6996 75.6H30.9996C27.4996 75.6 24.5996 72.8 24.5996 69.2V41.9C24.5996 38.4 27.3996 35.5 30.9996 35.5H51.9996" stroke-width="2" stroke-miterlimit="10" stroke-linecap="round" stroke-linejoin="round"/>
<path d="M58.7 28.7H52V39.9H58.7V28.7Z" stroke-width="2" stroke-miterlimit="10" stroke-linecap="round" stroke-linejoin="round"/>
<path d="M60.2002 49H79.5002" stroke-width="2" stroke-miterlimit="10" stroke-linecap="round" stroke-linejoin="round"/>
<path d="M60.2002 55.6001H79.5002" stroke-width="2" stroke-miterlimit="10" stroke-linecap="round" stroke-linejoin="round"/>
<path d="M60.2002 62.1001H79.5002" stroke-width="2" stroke-miterlimit="10" stroke-linecap="round" stroke-linejoin="round"/>
<path d="M42.3998 66.8001C48.254 66.8001 52.9998 62.0543 52.9998 56.2001C52.9998 50.3459 48.254 45.6001 42.3998 45.6001C36.5456 45.6001 31.7998 50.3459 31.7998 56.2001C31.7998 62.0543 36.5456 66.8001 42.3998 66.8001Z" stroke-width="2" stroke-miterlimit="10" stroke-linecap="round" stroke-linejoin="round"/>
<path d="M42.3996 59.2999C44.7744 59.2999 46.6996 57.3748 46.6996 55C46.6996 52.6251 44.7744 50.7 42.3996 50.7C40.0248 50.7 38.0996 52.6251 38.0996 55C38.0996 57.3748 40.0248 59.2999 42.3996 59.2999Z" stroke-width="2" stroke-miterlimit="10" stroke-linecap="round" stroke-linejoin="round"/>
<path d="M39.9 58.5L36.5 64.3" stroke-width="2" stroke-miterlimit="10" stroke-linecap="round" stroke-linejoin="round"/>
<path d="M45 58.5L48.4 64.3" stroke-width="2" stroke-miterlimit="10" stroke-linecap="round" stroke-linejoin="round"/>
</symbol><symbol viewBox="0 0 16 3" id="minus" xmlns="http://www.w3.org/2000/svg">
<path fill-rule="evenodd" clip-rule="evenodd" d="M0 1.36727C0 0.741725 0.507106 0.234619 1.13265 0.234619H14.8673C15.4929 0.234619 16 0.741725 16 1.36727C16 1.99282 15.4929 2.49993 14.8673 2.49993H1.13265C0.507106 2.49993 0 1.99282 0 1.36727Z"/>
</symbol><symbol viewBox="0 0 110 110" id="mountain" xmlns="http://www.w3.org/2000/svg">
<path d="M20.3604 95.5852L46.2236 64.9927L79.4764 101.645" stroke-width="2" stroke-miterlimit="10" stroke-linecap="round" stroke-linejoin="round"/>
<path d="M11.9365 86.2745L20.9517 75.4858L28.7846 84.2054" stroke-width="2" stroke-miterlimit="10" stroke-linecap="round" stroke-linejoin="round"/>
<path d="M65.4365 84.5012L78.8854 68.8354L96.4724 87.6048" stroke-width="2" stroke-miterlimit="10" stroke-linecap="round" stroke-linejoin="round"/>
<path d="M46.2236 64.9932V29.228" stroke-width="2" stroke-miterlimit="10" stroke-linecap="round" stroke-linejoin="round"/>
<path d="M46.2236 31.593H66.4709V43.564H46.2236" stroke-width="2" stroke-miterlimit="10" stroke-linecap="round" stroke-linejoin="round"/>
<path d="M54.5 108C84.0472 108 108 84.0472 108 54.5C108 24.9528 84.0472 1 54.5 1C24.9528 1 1 24.9528 1 54.5C1 84.0472 24.9528 108 54.5 108Z" stroke-width="2" stroke-miterlimit="10" stroke-linecap="round" stroke-linejoin="round"/>
</symbol><symbol viewBox="0 0 110 110" id="peoples" xmlns="http://www.w3.org/2000/svg">
<path d="M55.3 108.6C84.7368 108.6 108.6 84.7368 108.6 55.3C108.6 25.8632 84.7368 2 55.3 2C25.8632 2 2 25.8632 2 55.3C2 84.7368 25.8632 108.6 55.3 108.6Z" stroke-width="2" stroke-miterlimit="10" stroke-linecap="round" stroke-linejoin="round"/>
<path d="M55.3 52.4001C61.2647 52.4001 66.1 47.5647 66.1 41.6C66.1 35.6354 61.2647 30.8 55.3 30.8C49.3353 30.8 44.5 35.6354 44.5 41.6C44.5 47.5647 49.3353 52.4001 55.3 52.4001Z" stroke-width="2" stroke-miterlimit="10" stroke-linecap="round" stroke-linejoin="round"/>
<path d="M33.0996 54.2C36.4133 54.2 39.0996 51.5137 39.0996 48.2C39.0996 44.8862 36.4133 42.2 33.0996 42.2C29.7859 42.2 27.0996 44.8862 27.0996 48.2C27.0996 51.5137 29.7859 54.2 33.0996 54.2Z" stroke-width="2" stroke-miterlimit="10" stroke-linecap="round" stroke-linejoin="round"/>
<path d="M77.2002 54.2C80.5139 54.2 83.2002 51.5137 83.2002 48.2C83.2002 44.8862 80.5139 42.2 77.2002 42.2C73.8865 42.2 71.2002 44.8862 71.2002 48.2C71.2002 51.5137 73.8865 54.2 77.2002 54.2Z" stroke-width="2" stroke-miterlimit="10" stroke-linecap="round" stroke-linejoin="round"/>
<path d="M72.4996 74V72.0999C72.4996 66.2999 67.7996 61.7 62.0996 61.7H49.4996C43.6996 61.7 39.0996 66.3999 39.0996 72.0999V74" stroke-width="2" stroke-miterlimit="10" stroke-linecap="round" stroke-linejoin="round"/>
<path d="M37.6996 61.7H35.4996C29.6996 61.7 25.0996 66.3999 25.0996 72.0999V74" stroke-width="2" stroke-miterlimit="10" stroke-linecap="round" stroke-linejoin="round"/>
<path d="M72.5 61.7H74.7C80.5 61.7 85.1 66.3999 85.1 72.0999V74" stroke-width="2" stroke-miterlimit="10" stroke-linecap="round" stroke-linejoin="round"/>
</symbol><symbol viewBox="0 0 17 17" id="plus" xmlns="http://www.w3.org/2000/svg">
<path fill-rule="evenodd" clip-rule="evenodd" d="M0.5 8.36727C0.5 7.74173 1.00711 7.23462 1.63265 7.23462H15.3673C15.9929 7.23462 16.5 7.74173 16.5 8.36727C16.5 8.99282 15.9929 9.49993 15.3673 9.49993H1.63265C1.00711 9.49993 0.5 8.99282 0.5 8.36727Z"/>
<path fill-rule="evenodd" clip-rule="evenodd" d="M8.63297 0.5C9.25852 0.5 9.76562 1.00711 9.76562 1.63265L9.76562 15.3673C9.76562 15.9929 9.25852 16.5 8.63297 16.5C8.00742 16.5 7.50032 15.9929 7.50032 15.3673L7.50032 1.63265C7.50032 1.00711 8.00742 0.5 8.63297 0.5Z"/>
</symbol><symbol viewBox="0 0 110 110" id="question" xmlns="http://www.w3.org/2000/svg">
<g clip-path="url(#qclip0_0_394)">
<path d="M55.3 108.6C84.7368 108.6 108.6 84.7368 108.6 55.3C108.6 25.8632 84.7368 2 55.3 2C25.8632 2 2 25.8632 2 55.3C2 84.7368 25.8632 108.6 55.3 108.6Z" stroke-width="2" stroke-miterlimit="10" stroke-linecap="round" stroke-linejoin="round"/>
<path d="M72.7996 69.5V81.8H31.0996V39.3L44.0996 39.2V27H72.7996V51.8" stroke-width="2" stroke-miterlimit="10" stroke-linecap="round" stroke-linejoin="round"/>
<path d="M38.5996 47.1001H55.6996" stroke-width="2" stroke-miterlimit="10" stroke-linecap="round" stroke-linejoin="round"/>
<path d="M38.5996 53.8H59.2996" stroke-width="2" stroke-miterlimit="10" stroke-linecap="round" stroke-linejoin="round"/>
<path d="M38.5996 60.5H55.6996" stroke-width="2" stroke-miterlimit="10" stroke-linecap="round" stroke-linejoin="round"/>
<path d="M38.5996 67.1001H53.2996" stroke-width="2" stroke-miterlimit="10" stroke-linecap="round" stroke-linejoin="round"/>
<path d="M38.5996 73.8H59.2996" stroke-width="2" stroke-miterlimit="10" stroke-linecap="round" stroke-linejoin="round"/>
<path d="M44.0996 27L31.0996 39.3" stroke-width="2" stroke-miterlimit="10" stroke-linecap="round" stroke-linejoin="round"/>
<path d="M59.2998 73.7L63.7998 61.3L76.6998 48.6L83.9998 41.3L92.2998 49.6L72.5998 69.3001L59.2998 73.7Z" stroke-width="2" stroke-miterlimit="10" stroke-linecap="round" stroke-linejoin="round"/>
<path d="M80 45.3L88.3 53.6" stroke-width="2" stroke-miterlimit="10" stroke-linecap="round" stroke-linejoin="round"/>
<path d="M64.5 61.6001L72.4 69.5001" stroke-width="2" stroke-miterlimit="10" stroke-linecap="round" stroke-linejoin="round"/>
</g>
<defs>
<clipPath id="qclip0_0_394">
<rect width="108.7" height="108.7" transform="translate(1 1)"/>
</clipPath>
</defs>
</symbol><symbol viewBox="0 0 110 110" id="rocket" xmlns="http://www.w3.org/2000/svg">
<g clip-path="url(#rclip0_0_362)">
<path d="M54.5935 108.187C84.1924 108.187 108.187 84.1924 108.187 54.5935C108.187 24.9946 84.1924 1 54.5935 1C24.9946 1 1 24.9946 1 54.5935C1 84.1924 24.9946 108.187 54.5935 108.187Z" stroke-width="2" stroke-miterlimit="10" stroke-linecap="round" stroke-linejoin="round"/>
<path d="M54.2976 21.135C48.2276 27.353 39.0486 40.5294 42.0096 59.7757C44.9706 79.022 47.0432 78.2817 47.0432 78.2817H61.8481C61.8481 78.2817 63.9208 79.022 66.8817 59.7757C69.8427 40.5294 60.6637 27.353 54.5937 21.135" stroke-width="2" stroke-miterlimit="10" stroke-linecap="round" stroke-linejoin="round"/>
<path d="M67.326 49.7078C69.6948 52.3726 78.8738 62.588 71.0272 78.2811L63.9209 74.4319" stroke-width="2" stroke-miterlimit="10" stroke-linecap="round" stroke-linejoin="round"/>
<path d="M41.1212 49.7078C38.7524 52.3726 29.5734 62.588 37.42 78.2811L44.5263 74.4319" stroke-width="2" stroke-miterlimit="10" stroke-linecap="round" stroke-linejoin="round"/>
<path d="M58.2949 78.43C60.2195 82.7234 60.0715 90.1259 54.4457 93.2349C54.4457 93.2349 46.5991 89.9778 50.4484 78.282" stroke-width="2" stroke-miterlimit="10" stroke-linecap="round" stroke-linejoin="round"/>
<path d="M44.5264 73.1003H63.9207" stroke-width="2" stroke-miterlimit="10" stroke-linecap="round" stroke-linejoin="round"/>
<path d="M44.5264 36.0878C49.1159 31.2022 58.739 30.4619 64.2168 36.0878" stroke-width="2" stroke-miterlimit="10" stroke-linecap="round" stroke-linejoin="round"/>
<path d="M54.1494 54.5947C56.5629 54.5947 58.5195 52.6381 58.5195 50.2246C58.5195 47.8111 56.5629 45.8545 54.1494 45.8545C51.7359 45.8545 49.7793 47.8111 49.7793 50.2246C49.7793 52.6381 51.7359 54.5947 54.1494 54.5947Z" stroke-width="2" stroke-miterlimit="10" stroke-linecap="round" stroke-linejoin="round"/>
<path d="M44.5267 87.7568C44.5267 87.7568 39.345 89.9776 37.2723 93.2346C37.2723 93.2346 27.0569 84.4998 17.8779 93.5307" stroke-width="2" stroke-miterlimit="10" stroke-linecap="round" stroke-linejoin="round"/>
<path d="M63.9209 87.7568C63.9209 87.7568 69.1026 89.9776 71.1753 93.2346C71.1753 93.2346 81.3906 84.4998 90.5696 93.5307" stroke-width="2" stroke-miterlimit="10" stroke-linecap="round" stroke-linejoin="round"/>
</g>
<defs>
<clipPath id="rclip0_0_362">
<rect width="110" height="110"/>
</clipPath>
</defs>
</symbol><symbol viewBox="0 0 110 110" id="talking" xmlns="http://www.w3.org/2000/svg">
<path d="M55.3 108.6C84.7368 108.6 108.6 84.7368 108.6 55.3C108.6 25.8632 84.7368 2 55.3 2C25.8632 2 2 25.8632 2 55.3C2 84.7368 25.8632 108.6 55.3 108.6Z" stroke-width="2" stroke-miterlimit="10" stroke-linecap="round" stroke-linejoin="round"/>
<path d="M37.6996 67.2C41.0996 68.9 44.9996 69.9 49.2996 69.9C61.4996 69.9 71.4996 61.7 71.4996 51.7C71.4996 41.7 61.5996 33.5 49.2996 33.5C36.9996 33.5 27.0996 41.7 27.0996 51.7C27.0996 55.8 28.7996 59.7 31.5996 62.7L28.8996 72.4L37.6996 67.2Z" stroke-width="2" stroke-miterlimit="10" stroke-linecap="round" stroke-linejoin="round"/>
<path d="M77.0998 47.8C81.9998 50.4 85.1998 54.9 85.1998 60C85.1998 63.3 83.8998 66.3 81.5998 68.7L83.6998 76.4001L76.7998 72.3001C74.0998 73.6001 70.9998 74.4001 67.5998 74.4001C64.9998 74.4001 62.4998 73.9 60.2998 73.1" stroke-width="2" stroke-miterlimit="10" stroke-linecap="round" stroke-linejoin="round"/>
</symbol><symbol viewBox="0 0 110 110" id="target" xmlns="http://www.w3.org/2000/svg">
<path d="M55.3 108.6C84.7368 108.6 108.6 84.7368 108.6 55.3C108.6 25.8632 84.7368 2 55.3 2C25.8632 2 2 25.8632 2 55.3C2 84.7368 25.8632 108.6 55.3 108.6Z" stroke-width="2" stroke-miterlimit="10" stroke-linecap="round" stroke-linejoin="round"/>
<path d="M55.3002 81.4C69.7148 81.4 81.4002 69.7146 81.4002 55.2999C81.4002 40.8853 69.7148 29.2 55.3002 29.2C40.8856 29.2 29.2002 40.8853 29.2002 55.2999C29.2002 69.7146 40.8856 81.4 55.3002 81.4Z" stroke-width="2" stroke-miterlimit="10" stroke-linecap="round" stroke-linejoin="round"/>
<path d="M55.2998 74.8001C66.0694 74.8001 74.7998 66.0696 74.7998 55.3C74.7998 44.5305 66.0694 35.8 55.2998 35.8C44.5303 35.8 35.7998 44.5305 35.7998 55.3C35.7998 66.0696 44.5303 74.8001 55.2998 74.8001Z" stroke-width="2" stroke-miterlimit="10" stroke-linecap="round" stroke-linejoin="round"/>
<path d="M55.2998 68.3001C62.4795 68.3001 68.2998 62.4798 68.2998 55.3C68.2998 48.1203 62.4795 42.3 55.2998 42.3C48.1201 42.3 42.2998 48.1203 42.2998 55.3C42.2998 62.4798 48.1201 68.3001 55.2998 68.3001Z" stroke-width="2" stroke-miterlimit="10" stroke-linecap="round" stroke-linejoin="round"/>
<path d="M55.3 60.6C58.2271 60.6 60.6 58.2271 60.6 55.3C60.6 52.3729 58.2271 50 55.3 50C52.3729 50 50 52.3729 50 55.3C50 58.2271 52.3729 60.6 55.3 60.6Z" stroke-width="2" stroke-miterlimit="10" stroke-linecap="round" stroke-linejoin="round"/>
<path d="M55.2998 55.3L76.6998 34" stroke-width="2" stroke-miterlimit="10" stroke-linecap="round" stroke-linejoin="round"/>
<path d="M83.8002 33.7999L76.7002 34L76.9002 26.9L83.6002 20.2L83.4002 27.2L90.5002 27.1L83.8002 33.7999Z" stroke-width="2" stroke-miterlimit="10" stroke-linecap="round" stroke-linejoin="round"/>
</symbol><symbol viewBox="0 0 32 32" id="twitter" xmlns="http://www.w3.org/2000/svg">
<g clip-path="url(#uclip0_0_255)">
<path d="M9.76529 27.4562C21.4863 27.4562 27.8952 18.0861 27.8952 9.96534C27.8952 9.69762 27.8952 9.4299 27.882 9.17494C29.1241 8.30804 30.2076 7.22443 31.0666 5.98783C29.9302 6.47227 28.7012 6.80373 27.4062 6.95671C28.7277 6.19181 29.7319 4.99346 30.2076 3.55288C28.9787 4.25405 27.6177 4.76398 26.1641 5.04445C24.988 3.85885 23.3363 3.10669 21.4995 3.10669C17.9845 3.10669 15.1303 5.86035 15.1303 9.25143C15.1303 9.73587 15.1831 10.2076 15.302 10.6538C10.0031 10.3988 5.29889 7.95109 2.16713 4.22855C1.61213 5.14644 1.29499 6.19181 1.29499 7.32642C1.29499 9.4554 2.4182 11.3422 4.13604 12.4385C3.09212 12.413 2.11427 12.1326 1.25535 11.6736C1.25535 11.6991 1.25535 11.7246 1.25535 11.7501C1.25535 14.7332 3.4489 17.2064 6.36924 17.7801C5.84067 17.9204 5.27246 17.9968 4.69104 17.9968C4.2814 17.9968 3.88497 17.9586 3.48855 17.8821C4.29461 20.3298 6.64674 22.1018 9.43494 22.1528C7.25459 23.7974 4.50604 24.779 1.51963 24.779C1.00428 24.779 0.502139 24.7535 0 24.6898C2.81462 26.4363 6.17103 27.4562 9.76529 27.4562Z"/>
</g>
<defs>
<clipPath id="uclip0_0_255">
<rect width="31.0666" height="31.0666"/>
</clipPath>
</defs>
</symbol></svg>