<svg width="50" height="32" viewBox="0 0 50 32" fill="none" xmlns="http://www.w3.org/2000/svg">
<path fill-rule="evenodd" clip-rule="evenodd" d="M0 30.7457V0.745689C0 0.581755 0.14572 0.436035 0.309654 0.436035H49.6903C49.8543 0.436035 50 0.581755 50 0.745689V30.7457C50 30.9096 49.8543 31.0553 49.6903 31.0553H0.309654C0.14572 31.0553 0 30.9278 0 30.7457ZM47.1949 2.93148H2.8051C2.64117 2.93148 2.49545 3.0772 2.49545 3.24114V28.2502C2.49545 28.4142 2.64117 28.5599 2.8051 28.5599H47.1767C47.3406 28.5599 47.4863 28.4142 47.4863 28.2502V3.24114C47.5046 3.0772 47.3588 2.93148 47.1949 2.93148ZM10.9472 22.3122H9.07104C8.9071 22.3122 8.76138 22.1665 8.76138 22.0025V9.50707C8.76138 9.34314 8.9071 9.19742 9.07104 9.19742H10.9472C11.1111 9.19742 11.2568 9.34314 11.2568 9.50707V22.0025C11.2568 22.1665 11.1111 22.3122 10.9472 22.3122ZM21.5665 22.3122H19.6903C19.5264 22.3122 19.3807 22.1665 19.3807 22.0025V9.50707C19.3807 9.34314 19.5264 9.19742 19.6903 9.19742H21.5665C21.7304 9.19742 21.8761 9.34314 21.8761 9.50707V22.0025C21.8761 22.1665 21.7304 22.3122 21.5665 22.3122ZM40.9472 11.6929H28.4517C28.2878 11.6929 28.1421 11.5471 28.1421 11.3832V9.50707C28.1421 9.34314 28.2878 9.19742 28.4517 9.19742H40.9472C41.1111 9.19742 41.2568 9.34314 41.2568 9.50707V11.3832C41.2568 11.5471 41.1111 11.6929 40.9472 11.6929ZM40.9472 22.3122H28.4517C28.2878 22.3122 28.1421 22.1665 28.1421 22.0025V20.1264C28.1421 19.9624 28.2878 19.8167 28.4517 19.8167H40.9472C41.1111 19.8167 41.2568 19.9624 41.2568 20.1264V22.0025C41.2568 22.1665 41.1111 22.3122 40.9472 22.3122Z" fill="#0B233F"/>
</svg>
