<svg width="289" height="42" viewBox="0 0 289 42" fill="none" xmlns="http://www.w3.org/2000/svg">
<path d="M101.196 27.9081C99.7231 26.5827 98.9131 24.7173 98.9131 22.0173V12.371C98.9131 12.0273 99.1831 11.7573 99.5267 11.7573H101.711C102.055 11.7573 102.325 12.0273 102.325 12.371V22.2627C102.325 23.8827 102.767 24.8645 103.479 25.5518C104.239 26.2882 105.295 26.6809 106.498 26.6809C107.676 26.6809 108.756 26.2882 109.517 25.5518C110.253 24.8645 110.67 23.8827 110.67 22.2627V12.371C110.67 12.0273 110.94 11.7573 111.284 11.7573H113.468C113.812 11.7573 114.082 12.0273 114.082 12.371V22.0173C114.082 24.7173 113.272 26.6072 111.799 27.9081C110.425 29.1354 108.486 29.7245 106.473 29.7245C104.534 29.7245 102.57 29.1109 101.196 27.9081Z" fill="white"/>
<path d="M127.41 22.3609L133.694 12.0519C133.817 11.8801 134.013 11.7573 134.209 11.7573H135.658C136.001 11.7573 136.271 12.0273 136.271 12.371V28.8654C136.271 29.209 136.001 29.479 135.658 29.479H133.473C133.129 29.479 132.859 29.209 132.859 28.8654V19.5873L128.785 26.2636C128.687 26.4354 128.49 26.5336 128.294 26.5336H126.576C126.379 26.5336 126.183 26.4354 126.085 26.2636L122.01 19.5873V28.8409C122.01 29.1845 121.74 29.4545 121.397 29.4545H119.212C118.869 29.4545 118.599 29.1845 118.599 28.8409V12.371C118.599 12.0273 118.869 11.7573 119.212 11.7573H120.66C120.881 11.7573 121.078 11.8801 121.176 12.0519L127.41 22.3609Z" fill="white"/>
<path d="M159.564 11.7573H161.061C161.233 11.7573 161.405 11.831 161.527 11.9782L171.223 23.3182V12.371C171.223 12.0273 171.493 11.7573 171.836 11.7573H174.021C174.365 11.7573 174.635 12.0273 174.635 12.371V28.8654C174.635 29.209 174.365 29.479 174.021 29.479H172.524C172.352 29.479 172.18 29.4054 172.057 29.2581L162.362 17.9182V28.8409C162.362 29.1845 162.092 29.4545 161.748 29.4545H159.564C159.22 29.4545 158.95 29.1845 158.95 28.8409V12.371C158.95 12.0273 159.22 11.7573 159.564 11.7573Z" fill="white"/>
<path d="M188.355 20.7162C188.404 24.1035 191.031 26.6807 194.418 26.6807C196.455 26.6807 198.001 25.8216 199.032 24.6926C199.253 24.4471 199.646 24.4226 199.891 24.6435L201.34 25.9198C201.585 26.1407 201.61 26.5335 201.389 26.8034C199.793 28.5462 197.339 29.7243 194.344 29.7243C188.822 29.7243 184.943 25.6989 184.943 20.618C184.943 15.5372 188.772 11.5117 194.295 11.5117C196.676 11.5117 198.738 12.3217 200.284 13.5981C200.554 13.819 200.579 14.2362 200.333 14.5062L198.983 15.9299C198.762 16.1753 198.394 16.1753 198.149 15.979C197.093 15.0953 195.67 14.4817 194.05 14.5553C190.785 14.6535 188.282 17.4762 188.355 20.7162Z" fill="white"/>
<path d="M226.842 22.2627V28.8654C226.842 29.209 226.572 29.479 226.229 29.479H224.044C223.701 29.479 223.431 29.209 223.431 28.8654V12.371C223.431 12.0273 223.701 11.7573 224.044 11.7573H230.082C232.365 11.7573 233.715 12.3219 234.697 13.3528C235.581 14.2609 236.096 15.6355 236.096 17.0346C236.096 18.4337 235.581 19.7836 234.697 20.7164C233.74 21.7227 232.365 22.2873 230.082 22.2873H226.842V22.2627ZM229.935 19.2191C231.089 19.2191 231.678 18.9491 232.095 18.5073C232.463 18.1146 232.684 17.5991 232.684 17.01C232.684 16.4209 232.488 15.9055 232.095 15.4882C231.702 15.0464 231.113 14.7764 229.935 14.7764H226.842V19.2191H229.935Z" fill="white"/>
<path d="M239.729 11.7573H241.913C242.257 11.7573 242.527 12.0273 242.527 12.371V28.8654C242.527 29.209 242.257 29.479 241.913 29.479H239.729C239.385 29.479 239.115 29.209 239.115 28.8654V12.371C239.115 12.0273 239.385 11.7573 239.729 11.7573Z" fill="white"/>
<path d="M258.481 12.3711V14.1874C258.481 14.5311 258.211 14.8011 257.868 14.8011H253.793V28.8655C253.793 29.2092 253.523 29.4792 253.18 29.4792H250.995C250.652 29.4792 250.382 29.2092 250.382 28.8655V14.7765H246.307C245.963 14.7765 245.693 14.5065 245.693 14.1629V12.3465C245.693 12.0029 245.963 11.7329 246.307 11.7329H257.868C258.211 11.7575 258.481 12.0275 258.481 12.3711Z" fill="white"/>
<path d="M278.977 11.7573H281.161C281.505 11.7573 281.775 12.0273 281.775 12.371V26.4354H288.059C288.402 26.4354 288.672 26.7054 288.672 27.0491V28.8654C288.672 29.209 288.402 29.479 288.059 29.479H278.977C278.633 29.479 278.363 29.209 278.363 28.8654V12.371C278.363 12.0273 278.633 11.7573 278.977 11.7573Z" fill="white"/>
<path d="M214.325 22.5082L212.067 17.2555L209.808 22.5082L208.507 25.5518L206.986 29.1109C206.887 29.3318 206.667 29.479 206.421 29.479H204.187C203.746 29.479 203.451 29.0372 203.623 28.62L210.692 12.1255C210.79 11.9046 211.011 11.7573 211.257 11.7573H212.852C213.097 11.7573 213.318 11.9046 213.417 12.1255L220.486 28.62C220.657 29.0372 220.363 29.479 219.921 29.479H217.687C217.442 29.479 217.221 29.3318 217.123 29.1109L215.601 25.5518L214.325 22.5082Z" fill="white"/>
<path d="M149.844 22.5082L147.586 17.2555L145.352 22.5082L144.051 25.5518L142.53 29.1109C142.431 29.3318 142.21 29.479 141.965 29.479H139.731C139.29 29.479 138.995 29.0372 139.167 28.62L146.236 12.1255C146.334 11.9046 146.555 11.7573 146.8 11.7573H148.396C148.641 11.7573 148.862 11.9046 148.96 12.1255L156.03 28.62C156.201 29.0372 155.907 29.479 155.465 29.479H153.231C152.986 29.479 152.765 29.3318 152.667 29.1109L151.145 25.5518L149.844 22.5082Z" fill="white"/>
<path d="M269.085 22.5082L266.827 17.2555L264.569 22.5082L263.268 25.5518L261.746 29.1109C261.648 29.3318 261.427 29.479 261.182 29.479H258.948C258.506 29.479 258.212 29.0372 258.384 28.62L265.453 12.1255C265.551 11.9046 265.772 11.7573 266.017 11.7573H267.613C267.858 11.7573 268.079 11.9046 268.177 12.1255L275.246 28.62C275.418 29.0372 275.124 29.479 274.682 29.479H272.448C272.203 29.479 271.982 29.3318 271.884 29.1109L270.362 25.5518L269.085 22.5082Z" fill="white"/>
<path d="M179.789 21.7474C180.738 21.7474 181.508 20.9781 181.508 20.0292C181.508 19.0803 180.738 18.311 179.789 18.311C178.841 18.311 178.071 19.0803 178.071 20.0292C178.071 20.9781 178.841 21.7474 179.789 21.7474Z" fill="#BB945B"/>
<path d="M91.0824 21.5019H82.2215V28.9392C82.2215 29.2337 81.9761 29.4792 81.6815 29.4792H79.3252C79.0306 29.4792 78.7852 29.2337 78.7852 28.9392V12.2729C78.7852 11.9784 79.0306 11.7329 79.3252 11.7329H81.6815C81.9761 11.7329 82.2215 11.9784 82.2215 12.2729V18.4583H91.0824V12.2729C91.0824 11.9784 91.3278 11.7329 91.6224 11.7329H93.9787C94.2733 11.7329 94.5187 11.9784 94.5187 12.2729V28.9392C94.5187 29.2337 94.2733 29.4792 93.9787 29.4792H91.5978C91.3033 29.4792 91.0578 29.2337 91.0578 28.9392V21.5019H91.0824Z" fill="white"/>
<path fill-rule="evenodd" clip-rule="evenodd" d="M0 40.8434V0.41727C0 0.196363 0.196363 0 0.41727 0H66.9596C67.1805 0 67.3769 0.196363 67.3769 0.41727V40.8434C67.3769 41.0643 67.1805 41.2607 66.9596 41.2607H0.41727C0.196363 41.2607 0 41.0889 0 40.8434ZM63.5969 3.36271H3.77998C3.55907 3.36271 3.36271 3.55907 3.36271 3.77998V37.4807C3.36271 37.7016 3.55907 37.898 3.77998 37.898H63.5724C63.7933 37.898 63.9896 37.7016 63.9896 37.4807V3.77998C64.0142 3.55907 63.8178 3.36271 63.5969 3.36271ZM14.7517 29.4789H12.2236C12.0027 29.4789 11.8063 29.2826 11.8063 29.0617V12.2236C11.8063 12.0027 12.0027 11.8063 12.2236 11.8063H14.7517C14.9726 11.8063 15.169 12.0027 15.169 12.2236V29.0617C15.169 29.2826 14.9726 29.4789 14.7517 29.4789ZM29.0617 29.4789H26.5335C26.3126 29.4789 26.1162 29.2826 26.1162 29.0617V12.2236C26.1162 12.0027 26.3126 11.8063 26.5335 11.8063H29.0617C29.2826 11.8063 29.4789 12.0027 29.4789 12.2236V29.0617C29.4789 29.2826 29.2826 29.4789 29.0617 29.4789ZM55.1779 15.169H38.3398C38.1189 15.169 37.9225 14.9726 37.9225 14.7517V12.2236C37.9225 12.0027 38.1189 11.8063 38.3398 11.8063H55.1779C55.3988 11.8063 55.5951 12.0027 55.5951 12.2236V14.7517C55.5951 14.9726 55.3988 15.169 55.1779 15.169ZM55.1779 29.4789H38.3398C38.1189 29.4789 37.9225 29.2826 37.9225 29.0617V26.5335C37.9225 26.3126 38.1189 26.1162 38.3398 26.1162H55.1779C55.3988 26.1162 55.5951 26.3126 55.5951 26.5335V29.0617C55.5951 29.2826 55.3988 29.4789 55.1779 29.4789Z" fill="#BB945B"/>
</svg>
