<svg width="91" height="55" viewBox="0 0 91 55" fill="none" xmlns="http://www.w3.org/2000/svg">
<path fill-rule="evenodd" clip-rule="evenodd" d="M0.795898 54.4058V0.55986C0.795898 0.26346 1.05937 0 1.35577 0H90.2427C90.5391 0 90.8026 0.26346 90.8026 0.55986V54.4058C90.8026 54.7022 90.5391 54.9657 90.2427 54.9657H1.35577C1.05937 54.9657 0.795898 54.7022 0.795898 54.4058ZM85.9285 4.31425H5.70296C5.40656 4.31425 5.1431 4.57772 5.1431 4.87412V50.0915C5.1431 50.3879 5.40656 50.6514 5.70296 50.6514H85.9285C86.2249 50.6514 86.4883 50.3879 86.4883 50.0915V4.87412C86.4883 4.57772 86.2578 4.31425 85.9285 4.31425ZM20.2924 39.2565H17.0979C16.8015 39.2565 16.538 38.993 16.538 38.6966V16.302C16.538 16.0056 16.8015 15.7421 17.0979 15.7421H20.2924C20.5888 15.7421 20.8523 16.0056 20.8523 16.302V38.6966C20.8523 38.993 20.5888 39.2565 20.2924 39.2565ZM39.4925 39.2565H36.298C36.0016 39.2565 35.7381 38.993 35.7381 38.6966V16.302C35.7381 16.0056 36.0016 15.7421 36.298 15.7421H39.4925C39.7889 15.7421 40.0524 16.0056 40.0524 16.302V38.6966C40.0524 38.993 39.8219 39.2565 39.4925 39.2565ZM74.6324 20.0234H52.0401C51.7437 20.0234 51.4803 19.76 51.4803 19.4636V16.269C51.4803 15.9726 51.7437 15.7092 52.0401 15.7092H74.6324C74.9288 15.7092 75.1922 15.9726 75.1922 16.269V19.4636C75.1922 19.7929 74.9288 20.0234 74.6324 20.0234ZM74.6324 39.2565H52.0401C51.7437 39.2565 51.4803 38.993 51.4803 38.6966V35.4033C51.4803 35.1069 51.7437 34.9422 52.0401 34.9422H74.6324C74.9288 34.9422 75.1922 35.1069 75.1922 35.4033V38.6966C75.1922 38.993 74.9288 39.2565 74.6324 39.2565Z" fill="#BB945B"/>
</svg>
