<svg width="139" height="175" viewBox="0 0 139 175" fill="none" xmlns="http://www.w3.org/2000/svg">
<path fill-rule="evenodd" clip-rule="evenodd" d="M37.4552 174.791C35.1567 174.791 33.2939 172.928 33.2939 170.63C33.2939 168.331 35.1567 166.468 37.4552 166.468C39.7537 166.468 41.6165 168.331 41.6165 170.63C41.6165 172.928 39.7537 174.791 37.4552 174.791ZM37.4552 158.145C35.1567 158.145 33.2939 156.282 33.2939 153.983C33.2939 151.685 35.1567 149.822 37.4552 149.822C39.7537 149.822 41.6165 151.685 41.6165 153.983C41.6165 156.281 39.7537 158.145 37.4552 158.145ZM37.4552 141.497C35.1567 141.497 33.2939 139.634 33.2939 137.336C33.2939 135.037 35.1567 133.174 37.4552 133.174C39.7537 133.174 41.6165 135.037 41.6165 137.336C41.6165 139.634 39.7537 141.497 37.4552 141.497ZM37.4552 124.851C35.1567 124.851 33.2939 122.988 33.2939 120.689C33.2939 118.391 35.1567 116.528 37.4552 116.528C39.7537 116.528 41.6165 118.391 41.6165 120.689C41.6165 122.988 39.7537 124.851 37.4552 124.851ZM37.4552 108.204C35.1567 108.204 33.2939 106.342 33.2939 104.043C33.2939 101.743 35.1567 99.8805 37.4552 99.8805C39.7537 99.8805 41.6165 101.743 41.6165 104.042C41.6165 106.34 39.7537 108.204 37.4552 108.204ZM37.4552 91.5567C35.1567 91.5567 33.2939 89.694 33.2939 87.3955C33.2939 85.097 35.1567 83.2342 37.4552 83.2342C39.7537 83.2342 41.6165 85.097 41.6165 87.3955C41.6165 89.694 39.7537 91.5567 37.4552 91.5567ZM37.4552 74.9104C35.1567 74.9104 33.2939 73.0476 33.2939 70.7491C33.2939 68.4506 35.1567 66.5879 37.4552 66.5879C39.7537 66.5879 41.6165 68.4506 41.6165 70.7491C41.6165 73.0476 39.7537 74.9104 37.4552 74.9104ZM37.4552 58.2641C35.1567 58.2641 33.2939 56.4013 33.2939 54.1028C33.2939 51.803 35.1567 49.9403 37.4552 49.9403C39.7537 49.9403 41.6165 51.803 41.6165 54.1015C41.6165 56.4 39.7537 58.2641 37.4552 58.2641ZM37.4552 41.6165C35.1567 41.6165 33.2939 39.7537 33.2939 37.4552C33.2939 35.1567 35.1567 33.2939 37.4552 33.2939C39.7537 33.2939 41.6165 35.1567 41.6165 37.4552C41.6165 39.7537 39.7537 41.6165 37.4552 41.6165ZM37.4552 24.9701C35.1567 24.9701 33.2939 23.1074 33.2939 20.8089C33.2939 18.5104 35.1567 16.6476 37.4552 16.6476C39.7537 16.6476 41.6165 18.5104 41.6165 20.8089C41.6165 23.1074 39.7537 24.9701 37.4552 24.9701ZM37.4552 8.32379C35.1567 8.32379 33.2939 6.46102 33.2939 4.16252C33.2939 1.86277 35.1567 0 37.4552 0C39.7537 0 41.6165 1.86277 41.6165 4.16127C41.6165 6.45977 39.7537 8.32379 37.4552 8.32379ZM20.8089 174.791C18.5104 174.791 16.6476 172.928 16.6476 170.63C16.6476 168.331 18.5104 166.468 20.8089 166.468C23.1074 166.468 24.9701 168.331 24.9701 170.63C24.9701 172.928 23.1074 174.791 20.8089 174.791ZM20.8089 158.145C18.5104 158.145 16.6476 156.282 16.6476 153.983C16.6476 151.685 18.5104 149.822 20.8089 149.822C23.1074 149.822 24.9701 151.685 24.9701 153.983C24.9701 156.281 23.1074 158.145 20.8089 158.145ZM20.8089 141.497C18.5104 141.497 16.6476 139.634 16.6476 137.336C16.6476 135.037 18.5104 133.174 20.8089 133.174C23.1074 133.174 24.9701 135.037 24.9701 137.336C24.9701 139.634 23.1074 141.497 20.8089 141.497ZM20.8089 124.851C18.5104 124.851 16.6476 122.988 16.6476 120.689C16.6476 118.391 18.5104 116.528 20.8089 116.528C23.1074 116.528 24.9701 118.391 24.9701 120.689C24.9701 122.988 23.1074 124.851 20.8089 124.851ZM20.8089 108.204C18.5104 108.204 16.6476 106.342 16.6476 104.043C16.6476 101.745 18.5104 99.8818 20.8089 99.8818C23.1074 99.8805 24.9701 101.743 24.9701 104.042C24.9701 106.34 23.1074 108.204 20.8089 108.204ZM20.8089 91.5567C18.5104 91.5567 16.6476 89.694 16.6476 87.3955C16.6476 85.097 18.5104 83.2342 20.8089 83.2342C23.1074 83.2342 24.9701 85.097 24.9701 87.3955C24.9701 89.694 23.1074 91.5567 20.8089 91.5567ZM20.8089 74.9104C18.5104 74.9104 16.6476 73.0476 16.6476 70.7491C16.6476 68.4506 18.5104 66.5879 20.8089 66.5879C23.1074 66.5879 24.9701 68.4506 24.9701 70.7491C24.9701 73.0476 23.1074 74.9104 20.8089 74.9104ZM20.8089 58.2641C18.5104 58.2641 16.6476 56.4013 16.6476 54.1028C16.6476 51.8043 18.5104 49.9415 20.8089 49.9415C23.1074 49.9403 24.9701 51.803 24.9701 54.1015C24.9701 56.4 23.1074 58.2641 20.8089 58.2641ZM20.8089 41.6165C18.5104 41.6165 16.6476 39.7537 16.6476 37.4552C16.6476 35.1567 18.5104 33.2939 20.8089 33.2939C23.1074 33.2939 24.9701 35.1567 24.9701 37.4552C24.9701 39.7537 23.1074 41.6165 20.8089 41.6165ZM20.8089 24.9701C18.5104 24.9701 16.6476 23.1074 16.6476 20.8089C16.6476 18.5104 18.5104 16.6476 20.8089 16.6476C23.1074 16.6476 24.9701 18.5104 24.9701 20.8089C24.9701 23.1074 23.1074 24.9701 20.8089 24.9701ZM20.8089 8.32379C18.5104 8.32379 16.6476 6.46102 16.6476 4.16252C16.6463 1.86277 18.5104 0 20.8089 0C23.1074 0 24.9701 1.86277 24.9701 4.16127C24.9701 6.45977 23.1074 8.32379 20.8089 8.32379ZM4.16127 174.791C1.86277 174.791 0 172.928 0 170.63C0 168.331 1.86277 166.468 4.16127 166.468C6.45977 166.468 8.32255 168.331 8.32255 170.63C8.32255 172.928 6.45977 174.791 4.16127 174.791ZM4.16127 158.145C1.86277 158.145 0 156.282 0 153.983C0 151.684 1.86277 149.821 4.16127 149.821C6.45977 149.821 8.32255 151.684 8.32255 153.982C8.32379 156.281 6.45977 158.145 4.16127 158.145ZM4.16127 141.497C1.86277 141.497 0 139.634 0 137.336C0 135.037 1.86277 133.174 4.16127 133.174C6.45977 133.174 8.32255 135.037 8.32255 137.336C8.32379 139.634 6.45977 141.497 4.16127 141.497ZM4.16127 124.851C1.86277 124.851 0 122.988 0 120.689C0 118.391 1.86277 116.528 4.16127 116.528C6.45977 116.528 8.32255 118.391 8.32255 120.689C8.32379 122.988 6.45977 124.851 4.16127 124.851ZM4.16127 108.204C1.86277 108.204 0 106.34 0 104.042C0 101.743 1.86277 99.8805 4.16127 99.8805C6.45977 99.8805 8.32255 101.743 8.32255 104.042C8.32379 106.34 6.45977 108.204 4.16127 108.204ZM4.16127 91.5567C1.86277 91.5567 0 89.694 0 87.3955C0 85.097 1.86277 83.2342 4.16127 83.2342C6.45977 83.2342 8.32379 85.097 8.32379 87.3955C8.32379 89.694 6.45977 91.5567 4.16127 91.5567ZM4.16127 74.9104C1.86277 74.9104 0 73.0476 0 70.7491C0 68.4506 1.86277 66.5879 4.16127 66.5879C6.45977 66.5879 8.32255 68.4506 8.32255 70.7491C8.32379 73.0476 6.45977 74.9104 4.16127 74.9104ZM4.16127 58.2641C1.86277 58.2641 0 56.4 0 54.1015C0 51.803 1.86277 49.9403 4.16127 49.9403C6.45977 49.9403 8.32255 51.803 8.32255 54.1015C8.32379 56.4 6.45977 58.2641 4.16127 58.2641ZM4.16127 41.6165C1.86277 41.6165 0 39.7537 0 37.4552C0 35.1567 1.86277 33.2939 4.16127 33.2939C6.45977 33.2939 8.32379 35.1567 8.32379 37.4552C8.32379 39.7537 6.45977 41.6165 4.16127 41.6165ZM4.16127 24.9701C1.86277 24.9701 0 23.1074 0 20.8089C0 18.5104 1.86277 16.6476 4.16127 16.6476C6.45977 16.6476 8.32255 18.5104 8.32255 20.8089C8.32255 23.1074 6.45977 24.9701 4.16127 24.9701ZM4.16127 8.32379C1.86277 8.32379 0 6.45977 0 4.16127C0 1.86277 1.86277 0 4.16127 0C6.45977 0 8.32255 1.86277 8.32255 4.16127C8.32379 6.45977 6.45977 8.32379 4.16127 8.32379Z" fill="#BB945B"/>
<path fill-rule="evenodd" clip-rule="evenodd" d="M86.1476 174.791C83.8491 174.791 81.9863 172.928 81.9863 170.63C81.9863 168.331 83.8491 166.468 86.1476 166.468C88.4461 166.468 90.3089 168.331 90.3089 170.63C90.3089 172.928 88.4461 174.791 86.1476 174.791ZM86.1476 158.145C83.8491 158.145 81.9863 156.282 81.9863 153.983C81.9863 151.685 83.8491 149.822 86.1476 149.822C88.4461 149.822 90.3089 151.685 90.3089 153.983C90.3089 156.281 88.4461 158.145 86.1476 158.145ZM86.1476 141.497C83.8491 141.497 81.9863 139.634 81.9863 137.336C81.9863 135.037 83.8491 133.174 86.1476 133.174C88.4461 133.174 90.3089 135.037 90.3089 137.336C90.3089 139.634 88.4461 141.497 86.1476 141.497ZM86.1476 124.851C83.8491 124.851 81.9863 122.988 81.9863 120.689C81.9863 118.391 83.8491 116.528 86.1476 116.528C88.4461 116.528 90.3089 118.391 90.3089 120.689C90.3089 122.988 88.4461 124.851 86.1476 124.851ZM86.1476 108.204C83.8491 108.204 81.9863 106.342 81.9863 104.043C81.9863 101.743 83.8491 99.8805 86.1476 99.8805C88.4461 99.8805 90.3089 101.743 90.3089 104.042C90.3089 106.34 88.4461 108.204 86.1476 108.204ZM86.1476 91.5567C83.8491 91.5567 81.9863 89.694 81.9863 87.3955C81.9863 85.097 83.8491 83.2342 86.1476 83.2342C88.4461 83.2342 90.3089 85.097 90.3089 87.3955C90.3089 89.694 88.4461 91.5567 86.1476 91.5567ZM86.1476 74.9104C83.8491 74.9104 81.9863 73.0476 81.9863 70.7491C81.9863 68.4506 83.8491 66.5879 86.1476 66.5879C88.4461 66.5879 90.3089 68.4506 90.3089 70.7491C90.3089 73.0476 88.4461 74.9104 86.1476 74.9104ZM86.1476 58.2641C83.8491 58.2641 81.9863 56.4013 81.9863 54.1028C81.9863 51.803 83.8491 49.9403 86.1476 49.9403C88.4461 49.9403 90.3089 51.803 90.3089 54.1015C90.3089 56.4 88.4461 58.2641 86.1476 58.2641ZM86.1476 41.6165C83.8491 41.6165 81.9863 39.7537 81.9863 37.4552C81.9863 35.1567 83.8491 33.2939 86.1476 33.2939C88.4461 33.2939 90.3089 35.1567 90.3089 37.4552C90.3089 39.7537 88.4461 41.6165 86.1476 41.6165ZM86.1476 24.9701C83.8491 24.9701 81.9863 23.1074 81.9863 20.8089C81.9863 18.5104 83.8491 16.6476 86.1476 16.6476C88.4461 16.6476 90.3089 18.5104 90.3089 20.8089C90.3089 23.1074 88.4461 24.9701 86.1476 24.9701ZM86.1476 8.32379C83.8491 8.32379 81.9863 6.46102 81.9863 4.16252C81.9863 1.86277 83.8491 0 86.1476 0C88.4461 0 90.3089 1.86277 90.3089 4.16127C90.3089 6.45977 88.4461 8.32379 86.1476 8.32379ZM69.5012 174.791C67.2027 174.791 65.34 172.928 65.34 170.63C65.34 168.331 67.2027 166.468 69.5012 166.468C71.7997 166.468 73.6625 168.331 73.6625 170.63C73.6625 172.928 71.7997 174.791 69.5012 174.791ZM69.5012 158.145C67.2027 158.145 65.34 156.282 65.34 153.983C65.34 151.685 67.2027 149.822 69.5012 149.822C71.7997 149.822 73.6625 151.685 73.6625 153.983C73.6625 156.281 71.7997 158.145 69.5012 158.145ZM69.5012 141.497C67.2027 141.497 65.34 139.634 65.34 137.336C65.34 135.037 67.2027 133.174 69.5012 133.174C71.7997 133.174 73.6625 135.037 73.6625 137.336C73.6625 139.634 71.7997 141.497 69.5012 141.497ZM69.5012 124.851C67.2027 124.851 65.34 122.988 65.34 120.689C65.34 118.391 67.2027 116.528 69.5012 116.528C71.7997 116.528 73.6625 118.391 73.6625 120.689C73.6625 122.988 71.7997 124.851 69.5012 124.851ZM69.5012 108.204C67.2027 108.204 65.34 106.342 65.34 104.043C65.34 101.745 67.2027 99.8818 69.5012 99.8818C71.7997 99.8805 73.6625 101.743 73.6625 104.042C73.6625 106.34 71.7997 108.204 69.5012 108.204ZM69.5012 91.5567C67.2027 91.5567 65.34 89.694 65.34 87.3955C65.34 85.097 67.2027 83.2342 69.5012 83.2342C71.7997 83.2342 73.6625 85.097 73.6625 87.3955C73.6625 89.694 71.7997 91.5567 69.5012 91.5567ZM69.5012 74.9104C67.2027 74.9104 65.34 73.0476 65.34 70.7491C65.34 68.4506 67.2027 66.5879 69.5012 66.5879C71.7997 66.5879 73.6625 68.4506 73.6625 70.7491C73.6625 73.0476 71.7997 74.9104 69.5012 74.9104ZM69.5012 58.2641C67.2027 58.2641 65.34 56.4013 65.34 54.1028C65.34 51.8043 67.2027 49.9415 69.5012 49.9415C71.7997 49.9403 73.6625 51.803 73.6625 54.1015C73.6625 56.4 71.7997 58.2641 69.5012 58.2641ZM69.5012 41.6165C67.2027 41.6165 65.34 39.7537 65.34 37.4552C65.34 35.1567 67.2027 33.2939 69.5012 33.2939C71.7997 33.2939 73.6625 35.1567 73.6625 37.4552C73.6625 39.7537 71.7997 41.6165 69.5012 41.6165ZM69.5012 24.9701C67.2027 24.9701 65.34 23.1074 65.34 20.8089C65.34 18.5104 67.2027 16.6476 69.5012 16.6476C71.7997 16.6476 73.6625 18.5104 73.6625 20.8089C73.6625 23.1074 71.7997 24.9701 69.5012 24.9701ZM69.5012 8.32379C67.2027 8.32379 65.34 6.46102 65.34 4.16252C65.3387 1.86277 67.2027 0 69.5012 0C71.7997 0 73.6625 1.86277 73.6625 4.16127C73.6625 6.45977 71.7997 8.32379 69.5012 8.32379ZM52.8537 174.791C50.5552 174.791 48.6924 172.928 48.6924 170.63C48.6924 168.331 50.5552 166.468 52.8537 166.468C55.1522 166.468 57.0149 168.331 57.0149 170.63C57.0149 172.928 55.1522 174.791 52.8537 174.791ZM52.8537 158.145C50.5552 158.145 48.6924 156.282 48.6924 153.983C48.6924 151.684 50.5552 149.821 52.8537 149.821C55.1522 149.821 57.0149 151.684 57.0149 153.982C57.0162 156.281 55.1522 158.145 52.8537 158.145ZM52.8537 141.497C50.5552 141.497 48.6924 139.634 48.6924 137.336C48.6924 135.037 50.5552 133.174 52.8537 133.174C55.1522 133.174 57.0149 135.037 57.0149 137.336C57.0162 139.634 55.1522 141.497 52.8537 141.497ZM52.8537 124.851C50.5552 124.851 48.6924 122.988 48.6924 120.689C48.6924 118.391 50.5552 116.528 52.8537 116.528C55.1522 116.528 57.0149 118.391 57.0149 120.689C57.0162 122.988 55.1522 124.851 52.8537 124.851ZM52.8537 108.204C50.5552 108.204 48.6924 106.34 48.6924 104.042C48.6924 101.743 50.5552 99.8805 52.8537 99.8805C55.1522 99.8805 57.0149 101.743 57.0149 104.042C57.0162 106.34 55.1522 108.204 52.8537 108.204ZM52.8537 91.5567C50.5552 91.5567 48.6924 89.694 48.6924 87.3955C48.6924 85.097 50.5552 83.2342 52.8537 83.2342C55.1522 83.2342 57.0162 85.097 57.0162 87.3955C57.0162 89.694 55.1522 91.5567 52.8537 91.5567ZM52.8537 74.9104C50.5552 74.9104 48.6924 73.0476 48.6924 70.7491C48.6924 68.4506 50.5552 66.5879 52.8537 66.5879C55.1522 66.5879 57.0149 68.4506 57.0149 70.7491C57.0162 73.0476 55.1522 74.9104 52.8537 74.9104ZM52.8537 58.2641C50.5552 58.2641 48.6924 56.4 48.6924 54.1015C48.6924 51.803 50.5552 49.9403 52.8537 49.9403C55.1522 49.9403 57.0149 51.803 57.0149 54.1015C57.0162 56.4 55.1522 58.2641 52.8537 58.2641ZM52.8537 41.6165C50.5552 41.6165 48.6924 39.7537 48.6924 37.4552C48.6924 35.1567 50.5552 33.2939 52.8537 33.2939C55.1522 33.2939 57.0162 35.1567 57.0162 37.4552C57.0162 39.7537 55.1522 41.6165 52.8537 41.6165ZM52.8537 24.9701C50.5552 24.9701 48.6924 23.1074 48.6924 20.8089C48.6924 18.5104 50.5552 16.6476 52.8537 16.6476C55.1522 16.6476 57.0149 18.5104 57.0149 20.8089C57.0149 23.1074 55.1522 24.9701 52.8537 24.9701ZM52.8537 8.32379C50.5552 8.32379 48.6924 6.45977 48.6924 4.16127C48.6924 1.86277 50.5552 0 52.8537 0C55.1522 0 57.0149 1.86277 57.0149 4.16127C57.0162 6.45977 55.1522 8.32379 52.8537 8.32379Z" fill="#BB945B"/>
<path fill-rule="evenodd" clip-rule="evenodd" d="M134.839 174.791C132.54 174.791 130.678 172.928 130.678 170.63C130.678 168.331 132.54 166.468 134.839 166.468C137.137 166.468 139 168.331 139 170.63C139 172.928 137.137 174.791 134.839 174.791ZM134.839 158.145C132.54 158.145 130.678 156.282 130.678 153.983C130.678 151.685 132.54 149.822 134.839 149.822C137.137 149.822 139 151.685 139 153.983C139 156.281 137.137 158.145 134.839 158.145ZM134.839 141.497C132.54 141.497 130.678 139.634 130.678 137.336C130.678 135.037 132.54 133.174 134.839 133.174C137.137 133.174 139 135.037 139 137.336C139 139.634 137.137 141.497 134.839 141.497ZM134.839 124.851C132.54 124.851 130.678 122.988 130.678 120.689C130.678 118.391 132.54 116.528 134.839 116.528C137.137 116.528 139 118.391 139 120.689C139 122.988 137.137 124.851 134.839 124.851ZM134.839 108.204C132.54 108.204 130.678 106.342 130.678 104.043C130.678 101.743 132.54 99.8805 134.839 99.8805C137.137 99.8805 139 101.743 139 104.042C139 106.34 137.137 108.204 134.839 108.204ZM134.839 91.5567C132.54 91.5567 130.678 89.694 130.678 87.3955C130.678 85.097 132.54 83.2342 134.839 83.2342C137.137 83.2342 139 85.097 139 87.3955C139 89.694 137.137 91.5567 134.839 91.5567ZM134.839 74.9104C132.54 74.9104 130.678 73.0476 130.678 70.7491C130.678 68.4506 132.54 66.5879 134.839 66.5879C137.137 66.5879 139 68.4506 139 70.7491C139 73.0476 137.137 74.9104 134.839 74.9104ZM134.839 58.2641C132.54 58.2641 130.678 56.4013 130.678 54.1028C130.678 51.803 132.54 49.9403 134.839 49.9403C137.137 49.9403 139 51.803 139 54.1015C139 56.4 137.137 58.2641 134.839 58.2641ZM134.839 41.6165C132.54 41.6165 130.678 39.7537 130.678 37.4552C130.678 35.1567 132.54 33.2939 134.839 33.2939C137.137 33.2939 139 35.1567 139 37.4552C139 39.7537 137.137 41.6165 134.839 41.6165ZM134.839 24.9701C132.54 24.9701 130.678 23.1074 130.678 20.8089C130.678 18.5104 132.54 16.6476 134.839 16.6476C137.137 16.6476 139 18.5104 139 20.8089C139 23.1074 137.137 24.9701 134.839 24.9701ZM134.839 8.32379C132.54 8.32379 130.678 6.46102 130.678 4.16252C130.678 1.86277 132.54 0 134.839 0C137.137 0 139 1.86277 139 4.16127C139 6.45977 137.137 8.32379 134.839 8.32379ZM118.193 174.791C115.894 174.791 114.031 172.928 114.031 170.63C114.031 168.331 115.894 166.468 118.193 166.468C120.491 166.468 122.354 168.331 122.354 170.63C122.354 172.928 120.491 174.791 118.193 174.791ZM118.193 158.145C115.894 158.145 114.031 156.282 114.031 153.983C114.031 151.685 115.894 149.822 118.193 149.822C120.491 149.822 122.354 151.685 122.354 153.983C122.354 156.281 120.491 158.145 118.193 158.145ZM118.193 141.497C115.894 141.497 114.031 139.634 114.031 137.336C114.031 135.037 115.894 133.174 118.193 133.174C120.491 133.174 122.354 135.037 122.354 137.336C122.354 139.634 120.491 141.497 118.193 141.497ZM118.193 124.851C115.894 124.851 114.031 122.988 114.031 120.689C114.031 118.391 115.894 116.528 118.193 116.528C120.491 116.528 122.354 118.391 122.354 120.689C122.354 122.988 120.491 124.851 118.193 124.851ZM118.193 108.204C115.894 108.204 114.031 106.342 114.031 104.043C114.031 101.745 115.894 99.8818 118.193 99.8818C120.491 99.8805 122.354 101.743 122.354 104.042C122.354 106.34 120.491 108.204 118.193 108.204ZM118.193 91.5567C115.894 91.5567 114.031 89.694 114.031 87.3955C114.031 85.097 115.894 83.2342 118.193 83.2342C120.491 83.2342 122.354 85.097 122.354 87.3955C122.354 89.694 120.491 91.5567 118.193 91.5567ZM118.193 74.9104C115.894 74.9104 114.031 73.0476 114.031 70.7491C114.031 68.4506 115.894 66.5879 118.193 66.5879C120.491 66.5879 122.354 68.4506 122.354 70.7491C122.354 73.0476 120.491 74.9104 118.193 74.9104ZM118.193 58.2641C115.894 58.2641 114.031 56.4013 114.031 54.1028C114.031 51.8043 115.894 49.9415 118.193 49.9415C120.491 49.9403 122.354 51.803 122.354 54.1015C122.354 56.4 120.491 58.2641 118.193 58.2641ZM118.193 41.6165C115.894 41.6165 114.031 39.7537 114.031 37.4552C114.031 35.1567 115.894 33.2939 118.193 33.2939C120.491 33.2939 122.354 35.1567 122.354 37.4552C122.354 39.7537 120.491 41.6165 118.193 41.6165ZM118.193 24.9701C115.894 24.9701 114.031 23.1074 114.031 20.8089C114.031 18.5104 115.894 16.6476 118.193 16.6476C120.491 16.6476 122.354 18.5104 122.354 20.8089C122.354 23.1074 120.491 24.9701 118.193 24.9701ZM118.193 8.32379C115.894 8.32379 114.031 6.46102 114.031 4.16252C114.03 1.86277 115.894 0 118.193 0C120.491 0 122.354 1.86277 122.354 4.16127C122.354 6.45977 120.491 8.32379 118.193 8.32379ZM101.545 174.791C99.2466 174.791 97.3838 172.928 97.3838 170.63C97.3838 168.331 99.2466 166.468 101.545 166.468C103.844 166.468 105.706 168.331 105.706 170.63C105.706 172.928 103.844 174.791 101.545 174.791ZM101.545 158.145C99.2466 158.145 97.3838 156.282 97.3838 153.983C97.3838 151.684 99.2466 149.821 101.545 149.821C103.844 149.821 105.706 151.684 105.706 153.982C105.708 156.281 103.844 158.145 101.545 158.145ZM101.545 141.497C99.2466 141.497 97.3838 139.634 97.3838 137.336C97.3838 135.037 99.2466 133.174 101.545 133.174C103.844 133.174 105.706 135.037 105.706 137.336C105.708 139.634 103.844 141.497 101.545 141.497ZM101.545 124.851C99.2466 124.851 97.3838 122.988 97.3838 120.689C97.3838 118.391 99.2466 116.528 101.545 116.528C103.844 116.528 105.706 118.391 105.706 120.689C105.708 122.988 103.844 124.851 101.545 124.851ZM101.545 108.204C99.2466 108.204 97.3838 106.34 97.3838 104.042C97.3838 101.743 99.2466 99.8805 101.545 99.8805C103.844 99.8805 105.706 101.743 105.706 104.042C105.708 106.34 103.844 108.204 101.545 108.204ZM101.545 91.5567C99.2466 91.5567 97.3838 89.694 97.3838 87.3955C97.3838 85.097 99.2466 83.2342 101.545 83.2342C103.844 83.2342 105.708 85.097 105.708 87.3955C105.708 89.694 103.844 91.5567 101.545 91.5567ZM101.545 74.9104C99.2466 74.9104 97.3838 73.0476 97.3838 70.7491C97.3838 68.4506 99.2466 66.5879 101.545 66.5879C103.844 66.5879 105.706 68.4506 105.706 70.7491C105.708 73.0476 103.844 74.9104 101.545 74.9104ZM101.545 58.2641C99.2466 58.2641 97.3838 56.4 97.3838 54.1015C97.3838 51.803 99.2466 49.9403 101.545 49.9403C103.844 49.9403 105.706 51.803 105.706 54.1015C105.708 56.4 103.844 58.2641 101.545 58.2641ZM101.545 41.6165C99.2466 41.6165 97.3838 39.7537 97.3838 37.4552C97.3838 35.1567 99.2466 33.2939 101.545 33.2939C103.844 33.2939 105.708 35.1567 105.708 37.4552C105.708 39.7537 103.844 41.6165 101.545 41.6165ZM101.545 24.9701C99.2466 24.9701 97.3838 23.1074 97.3838 20.8089C97.3838 18.5104 99.2466 16.6476 101.545 16.6476C103.844 16.6476 105.706 18.5104 105.706 20.8089C105.706 23.1074 103.844 24.9701 101.545 24.9701ZM101.545 8.32379C99.2466 8.32379 97.3838 6.45977 97.3838 4.16127C97.3838 1.86277 99.2466 0 101.545 0C103.844 0 105.706 1.86277 105.706 4.16127C105.708 6.45977 103.844 8.32379 101.545 8.32379Z" fill="#BB945B"/>
</svg>
