<svg width="825" height="733" viewBox="0 0 825 733" fill="none" xmlns="http://www.w3.org/2000/svg">
<path fill-rule="evenodd" clip-rule="evenodd" d="M0.0021407 -16.5771L30.4191 -47.0001L32.8942 -47.0001L0.00311704 -14.1021L0.00311726 -16.5771L0.0021407 -16.5771ZM358.25 732.667L2.35208 375.967L0.00210617 378.318L0.00210639 375.843L232.956 142.838L216.372 126.226L0.00210929 342.644L0.00210951 340.169L215.136 124.987L198.552 108.375L0.00308897 306.969L0.00308919 304.494L197.315 107.136L180.732 90.5249L0.00211553 271.295L0.00211575 268.82L179.496 89.2869L162.912 72.6749L0.00309521 235.621L0.00309543 233.146L161.675 71.4359L145.091 54.8239L0.00212177 199.945L0.00212198 197.47L143.855 53.585L127.272 36.9739L0.00212489 164.272L0.0021251 161.797L126.036 35.7349L109.452 19.1229L0.002128 128.597L0.00212822 126.122L108.215 17.8849L91.6312 1.27295L0.00213112 92.9219L0.00213134 90.4469L90.3951 0.034909L73.8121 -16.5761L0.00213424 57.2499L0.00213446 54.7749L72.5751 -17.8141L55.9901 -34.4271L0.00213736 21.5739L0.00213758 19.0989L54.7542 -35.665L43.4412 -46.9971L45.9141 -46.9971L824.257 732.667L821.784 732.667L234.192 144.076L217.589 160.683L788.281 732.667L785.809 732.667L216.352 161.921L199.757 178.52L752.652 732.667L750.18 732.667L198.519 179.757L181.923 196.356L717.021 732.667L714.549 732.667L180.687 197.594L164.09 214.194L681.39 732.667L678.918 732.667L162.852 215.432L146.257 232.031L645.759 732.667L643.287 732.667L145.019 233.269L128.423 249.868L610.13 732.667L607.658 732.667L127.186 251.106L110.59 267.706L574.5 732.667L572.028 732.667L109.352 268.944L92.7561 285.543L538.869 732.667L536.397 732.667L91.5191 286.781L74.9231 303.381L503.239 732.667L500.767 732.667L73.6851 304.618L57.0891 321.217L467.61 732.667L465.138 732.667L55.8531 322.455L39.2571 339.055L431.979 732.667L429.507 732.667L38.0201 340.292L21.4231 356.892L396.348 732.667L393.876 732.667L20.1851 358.13L3.59012 374.729L360.722 732.667L358.25 732.667ZM178.833 732.667L176.358 732.667L249.563 659.446L233.833 643.68L144.864 732.667L142.389 732.667L232.596 642.441L216.016 625.824L109.197 732.667L106.722 732.667L214.78 624.585L198.201 607.969L73.5301 732.667L71.0551 732.667L196.965 606.729L180.386 590.113L37.8641 732.667L35.3891 732.667L179.15 588.874L162.571 572.257L2.19611 732.667L0.0020752 732.667L0.00207522 732.386L161.335 571.018L144.756 554.402L0.00207812 699.187L0.00207834 696.712L143.52 553.163L126.941 536.547L0.00208124 663.513L0.00208146 661.038L125.704 535.308L109.124 518.691L0.00208436 627.837L0.00208458 625.362L107.888 517.452L91.3091 500.836L0.00111092 592.164L0.00111113 589.689L90.0731 499.598L73.4931 482.981L0.00111403 556.489L0.00111425 554.014L72.2571 481.742L55.6781 465.126L0.00111715 520.815L0.00111737 518.34L54.4411 463.888L37.8621 447.272L8.26745e-05 485.142L8.28909e-05 482.667L36.6251 446.034L20.0461 429.417L8.57933e-05 449.467L8.60097e-05 446.992L18.8101 428.178L2.23111 411.562L8.8912e-05 413.793L8.91284e-05 411.318L0.995084 410.323L8.93025e-05 409.326L8.95192e-05 406.848L325.092 732.667L322.62 732.667L322.061 732.107L321.501 732.667L319.026 732.667L320.825 730.868L304.246 714.251L285.833 732.667L283.358 732.667L303.009 713.012L286.43 696.396L250.166 732.667L247.691 732.667L285.193 695.157L268.614 678.54L214.5 732.667L212.025 732.667L267.379 677.301L250.8 660.684L178.833 732.667Z" fill="white"/>
</svg>
