<svg width="34" height="260" viewBox="0 0 34 260" fill="none" xmlns="http://www.w3.org/2000/svg">
<path fill-rule="evenodd" clip-rule="evenodd" d="M30 246.667C28.159 246.667 26.667 245.175 26.667 243.334C26.667 241.493 28.159 240.001 30 240.001C31.841 240.001 33.333 241.493 33.333 243.334C33.333 245.174 31.841 246.667 30 246.667ZM30 233.333C28.159 233.333 26.667 231.841 26.667 230C26.667 228.159 28.159 226.667 30 226.667C31.841 226.667 33.333 228.159 33.333 230C33.333 231.841 31.841 233.333 30 233.333ZM30 220C28.159 220 26.667 218.508 26.667 216.667C26.667 214.826 28.159 213.334 30 213.334C31.841 213.334 33.333 214.826 33.333 216.667C33.333 218.508 31.841 220 30 220ZM30 206.667C28.159 206.667 26.667 205.175 26.667 203.334C26.667 201.493 28.159 200.001 30 200.001C31.841 200.001 33.333 201.493 33.333 203.334C33.333 205.174 31.841 206.667 30 206.667ZM30 193.333C28.159 193.333 26.667 191.841 26.667 190C26.667 188.159 28.159 186.667 30 186.667C31.841 186.667 33.333 188.159 33.333 190C33.333 191.841 31.841 193.333 30 193.333ZM30 180C28.159 180 26.667 178.508 26.667 176.667C26.667 174.826 28.159 173.334 30 173.334C31.841 173.334 33.333 174.826 33.333 176.667C33.333 178.508 31.841 180 30 180ZM30 166.667C28.159 166.667 26.667 165.175 26.667 163.334C26.667 161.493 28.159 160.001 30 160.001C31.841 160.001 33.333 161.493 33.333 163.334C33.333 165.174 31.841 166.667 30 166.667ZM30 153.333C28.159 153.333 26.667 151.841 26.667 150C26.667 148.159 28.159 146.667 30 146.667C31.841 146.667 33.333 148.159 33.333 150C33.333 151.841 31.841 153.333 30 153.333ZM30 140C28.159 140 26.667 138.508 26.667 136.667C26.667 134.826 28.159 133.334 30 133.334C31.841 133.334 33.333 134.826 33.333 136.667C33.333 138.508 31.841 140 30 140ZM30 126.667C28.159 126.667 26.667 125.175 26.667 123.334C26.667 121.493 28.159 120.001 30 120.001C31.841 120.001 33.333 121.493 33.333 123.334C33.333 125.174 31.841 126.667 30 126.667ZM30 113.333C28.159 113.333 26.667 111.841 26.667 110C26.667 108.159 28.159 106.667 30 106.667C31.841 106.667 33.333 108.159 33.333 110C33.333 111.841 31.841 113.333 30 113.333ZM30 100C28.159 100 26.667 98.508 26.667 96.667C26.667 94.826 28.159 93.334 30 93.334C31.841 93.334 33.333 94.826 33.333 96.667C33.333 98.508 31.841 100 30 100ZM30 86.667C28.159 86.667 26.667 85.175 26.667 83.334C26.667 81.492 28.159 80 30 80C31.841 80 33.333 81.492 33.333 83.333C33.333 85.174 31.841 86.667 30 86.667ZM30 73.333C28.159 73.333 26.667 71.841 26.667 70C26.667 68.159 28.159 66.667 30 66.667C31.841 66.667 33.333 68.159 33.333 70C33.333 71.841 31.841 73.333 30 73.333ZM30 60C28.159 60 26.667 58.508 26.667 56.667C26.667 54.826 28.159 53.334 30 53.334C31.841 53.334 33.333 54.826 33.333 56.667C33.333 58.508 31.841 60 30 60ZM30 46.667C28.159 46.667 26.667 45.175 26.667 43.334C26.667 41.492 28.159 40 30 40C31.841 40 33.333 41.492 33.333 43.333C33.333 45.174 31.841 46.667 30 46.667ZM30 33.333C28.159 33.333 26.667 31.841 26.667 30C26.667 28.159 28.159 26.667 30 26.667C31.841 26.667 33.333 28.159 33.333 30C33.333 31.841 31.841 33.333 30 33.333ZM30 20C28.159 20 26.667 18.508 26.667 16.667C26.667 14.826 28.159 13.334 30 13.334C31.841 13.334 33.333 14.826 33.333 16.667C33.333 18.508 31.841 20 30 20ZM30 6.667C28.159 6.667 26.667 5.175 26.667 3.334C26.667 1.492 28.159 0 30 0C31.841 0 33.333 1.492 33.333 3.333C33.333 5.174 31.841 6.667 30 6.667ZM16.667 260C14.826 260 13.334 258.508 13.334 256.667C13.334 254.826 14.826 253.334 16.667 253.334C18.508 253.334 20 254.826 20 256.667C20 258.508 18.508 260 16.667 260ZM16.667 246.667C14.826 246.667 13.334 245.175 13.334 243.334C13.334 241.493 14.826 240.001 16.667 240.001C18.508 240.001 20 241.493 20 243.334C20 245.174 18.508 246.667 16.667 246.667ZM16.667 233.333C14.826 233.333 13.334 231.841 13.334 230C13.334 228.159 14.826 226.667 16.667 226.667C18.508 226.667 20 228.159 20 230C20 231.841 18.508 233.333 16.667 233.333ZM16.667 220C14.826 220 13.334 218.508 13.334 216.667C13.334 214.826 14.826 213.334 16.667 213.334C18.508 213.334 20 214.826 20 216.667C20 218.508 18.508 220 16.667 220ZM16.667 206.667C14.826 206.667 13.334 205.175 13.334 203.334C13.334 201.493 14.826 200.001 16.667 200.001C18.508 200.001 20 201.493 20 203.334C20 205.174 18.508 206.667 16.667 206.667ZM16.667 193.333C14.826 193.333 13.334 191.841 13.334 190C13.334 188.159 14.826 186.667 16.667 186.667C18.508 186.667 20 188.159 20 190C20 191.841 18.508 193.333 16.667 193.333ZM16.667 180C14.826 180 13.334 178.508 13.334 176.667C13.334 174.826 14.826 173.334 16.667 173.334C18.508 173.334 20 174.826 20 176.667C20 178.508 18.508 180 16.667 180ZM16.667 166.667C14.826 166.667 13.334 165.175 13.334 163.334C13.334 161.493 14.826 160.001 16.667 160.001C18.508 160.001 20 161.493 20 163.334C20 165.174 18.508 166.667 16.667 166.667ZM16.667 153.333C14.826 153.333 13.334 151.841 13.334 150C13.334 148.159 14.826 146.667 16.667 146.667C18.508 146.667 20 148.159 20 150C20 151.841 18.508 153.333 16.667 153.333ZM16.667 140C14.826 140 13.334 138.508 13.334 136.667C13.334 134.826 14.826 133.334 16.667 133.334C18.508 133.334 20 134.826 20 136.667C20 138.508 18.508 140 16.667 140ZM16.667 126.667C14.826 126.667 13.334 125.175 13.334 123.334C13.334 121.493 14.826 120.001 16.667 120.001C18.508 120.001 20 121.493 20 123.334C20 125.174 18.508 126.667 16.667 126.667ZM16.667 113.333C14.826 113.333 13.334 111.841 13.334 110C13.334 108.159 14.826 106.667 16.667 106.667C18.508 106.667 20 108.159 20 110C20 111.841 18.508 113.333 16.667 113.333ZM16.667 100C14.826 100 13.334 98.508 13.334 96.667C13.334 94.826 14.826 93.334 16.667 93.334C18.508 93.334 20 94.826 20 96.667C20 98.508 18.508 100 16.667 100ZM16.667 86.667C14.826 86.667 13.334 85.175 13.334 83.334C13.334 81.493 14.826 80.001 16.667 80.001C18.508 80 20 81.492 20 83.333C20 85.174 18.508 86.667 16.667 86.667ZM16.667 73.333C14.826 73.333 13.334 71.841 13.334 70C13.334 68.159 14.826 66.667 16.667 66.667C18.508 66.667 20 68.159 20 70C20 71.841 18.508 73.333 16.667 73.333ZM16.667 60C14.826 60 13.334 58.508 13.334 56.667C13.334 54.826 14.826 53.334 16.667 53.334C18.508 53.334 20 54.826 20 56.667C20 58.508 18.508 60 16.667 60ZM16.667 46.667C14.826 46.667 13.334 45.175 13.334 43.334C13.334 41.493 14.826 40.001 16.667 40.001C18.508 40 20 41.492 20 43.333C20 45.174 18.508 46.667 16.667 46.667ZM16.667 33.333C14.826 33.333 13.334 31.841 13.334 30C13.334 28.159 14.826 26.667 16.667 26.667C18.508 26.667 20 28.159 20 30C20 31.841 18.508 33.333 16.667 33.333ZM16.667 20C14.826 20 13.334 18.508 13.334 16.667C13.334 14.826 14.826 13.334 16.667 13.334C18.508 13.334 20 14.826 20 16.667C20 18.508 18.508 20 16.667 20ZM16.667 6.667C14.826 6.667 13.334 5.175 13.334 3.334C13.333 1.492 14.826 0 16.667 0C18.508 0 20 1.492 20 3.333C20 5.174 18.508 6.667 16.667 6.667ZM3.333 260C1.492 260 0 258.508 0 256.667C0 254.826 1.492 253.334 3.333 253.334C5.174 253.334 6.666 254.826 6.666 256.667C6.667 258.508 5.174 260 3.333 260ZM3.333 246.667C1.492 246.667 0 245.175 0 243.334C0 241.492 1.492 240 3.333 240C5.174 240 6.666 241.492 6.666 243.333C6.667 245.174 5.174 246.667 3.333 246.667ZM3.333 233.333C1.492 233.333 0 231.841 0 230C0 228.159 1.492 226.667 3.333 226.667C5.174 226.667 6.666 228.159 6.666 230C6.667 231.841 5.174 233.333 3.333 233.333ZM3.333 220C1.492 220 0 218.508 0 216.667C0 214.826 1.492 213.334 3.333 213.334C5.174 213.334 6.666 214.826 6.666 216.667C6.666 218.508 5.174 220 3.333 220ZM3.333 206.667C1.492 206.667 0 205.175 0 203.334C0 201.492 1.492 200 3.333 200C5.174 200 6.666 201.492 6.666 203.333C6.667 205.174 5.174 206.667 3.333 206.667ZM3.333 193.333C1.492 193.333 0 191.841 0 190C0 188.159 1.492 186.667 3.333 186.667C5.174 186.667 6.666 188.159 6.666 190C6.667 191.841 5.174 193.333 3.333 193.333ZM3.333 180C1.492 180 0 178.508 0 176.667C0 174.826 1.492 173.334 3.333 173.334C5.174 173.334 6.666 174.826 6.666 176.667C6.666 178.508 5.174 180 3.333 180ZM3.333 166.667C1.492 166.667 0 165.175 0 163.334C0 161.492 1.492 160 3.333 160C5.174 160 6.666 161.492 6.666 163.333C6.667 165.174 5.174 166.667 3.333 166.667ZM3.333 153.333C1.492 153.333 0 151.841 0 150C0 148.159 1.492 146.667 3.333 146.667C5.174 146.667 6.666 148.159 6.666 150C6.667 151.841 5.174 153.333 3.333 153.333ZM3.333 140C1.492 140 0 138.508 0 136.667C0 134.826 1.492 133.334 3.333 133.334C5.174 133.334 6.666 134.826 6.666 136.667C6.666 138.508 5.174 140 3.333 140ZM3.333 126.667C1.492 126.667 0 125.175 0 123.334C0 121.492 1.492 120 3.333 120C5.174 120 6.666 121.492 6.666 123.333C6.667 125.174 5.174 126.667 3.333 126.667ZM3.333 113.333C1.492 113.333 0 111.841 0 110C0 108.159 1.492 106.667 3.333 106.667C5.174 106.667 6.666 108.159 6.666 110C6.667 111.841 5.174 113.333 3.333 113.333ZM3.333 100C1.492 100 0 98.508 0 96.667C0 94.826 1.492 93.334 3.333 93.334C5.174 93.334 6.666 94.826 6.666 96.667C6.667 98.508 5.174 100 3.333 100ZM3.333 86.667C1.492 86.667 0 85.174 0 83.333C0 81.492 1.492 80 3.333 80C5.174 80 6.666 81.492 6.666 83.333C6.667 85.174 5.174 86.667 3.333 86.667ZM3.333 73.333C1.492 73.333 0 71.841 0 70C0 68.159 1.492 66.667 3.333 66.667C5.174 66.667 6.667 68.159 6.667 70C6.667 71.841 5.174 73.333 3.333 73.333ZM3.333 60C1.492 60 0 58.508 0 56.667C0 54.826 1.492 53.334 3.333 53.334C5.174 53.334 6.666 54.826 6.666 56.667C6.667 58.508 5.174 60 3.333 60ZM3.333 46.667C1.492 46.667 0 45.174 0 43.333C0 41.492 1.492 40 3.333 40C5.174 40 6.666 41.492 6.666 43.333C6.667 45.174 5.174 46.667 3.333 46.667ZM3.333 33.333C1.492 33.333 0 31.841 0 30C0 28.159 1.492 26.667 3.333 26.667C5.174 26.667 6.667 28.159 6.667 30C6.667 31.841 5.174 33.333 3.333 33.333ZM3.333 20C1.492 20 0 18.508 0 16.667C0 14.826 1.492 13.334 3.333 13.334C5.174 13.334 6.666 14.826 6.666 16.667C6.666 18.508 5.174 20 3.333 20ZM3.333 6.667C1.492 6.667 0 5.174 0 3.333C0 1.492 1.492 0 3.333 0C5.174 0 6.666 1.492 6.666 3.333C6.667 5.174 5.174 6.667 3.333 6.667ZM30 253.333C31.841 253.333 33.333 254.825 33.333 256.666C33.333 258.507 31.841 259.999 30 259.999C28.159 259.999 26.667 258.507 26.667 256.666C26.667 254.826 28.159 253.333 30 253.333Z" fill="#BB945B"/>
</svg>
