<svg width="112" height="287" viewBox="0 0 112 287" fill="none" xmlns="http://www.w3.org/2000/svg">
<path fill-rule="evenodd" clip-rule="evenodd" d="M30 140C28.159 140 26.667 138.508 26.667 136.667C26.667 134.826 28.159 133.334 30 133.334C31.841 133.334 33.333 134.826 33.333 136.667C33.333 138.508 31.841 140 30 140ZM30 126.667C28.159 126.667 26.667 125.175 26.667 123.334C26.667 121.493 28.159 120.001 30 120.001C31.841 120.001 33.333 121.493 33.333 123.334C33.333 125.174 31.841 126.667 30 126.667ZM30 113.333C28.159 113.333 26.667 111.841 26.667 110C26.667 108.159 28.159 106.667 30 106.667C31.841 106.667 33.333 108.159 33.333 110C33.333 111.841 31.841 113.333 30 113.333ZM30 100C28.159 100 26.667 98.508 26.667 96.667C26.667 94.826 28.159 93.334 30 93.334C31.841 93.334 33.333 94.826 33.333 96.667C33.333 98.508 31.841 100 30 100ZM30 86.667C28.159 86.667 26.667 85.175 26.667 83.334C26.667 81.492 28.159 80 30 80C31.841 80 33.333 81.492 33.333 83.333C33.333 85.174 31.841 86.667 30 86.667ZM30 73.333C28.159 73.333 26.667 71.841 26.667 70C26.667 68.159 28.159 66.667 30 66.667C31.841 66.667 33.333 68.159 33.333 70C33.333 71.841 31.841 73.333 30 73.333ZM30 60C28.159 60 26.667 58.508 26.667 56.667C26.667 54.826 28.159 53.334 30 53.334C31.841 53.334 33.333 54.826 33.333 56.667C33.333 58.508 31.841 60 30 60ZM30 46.667C28.159 46.667 26.667 45.175 26.667 43.334C26.667 41.492 28.159 40 30 40C31.841 40 33.333 41.492 33.333 43.333C33.333 45.174 31.841 46.667 30 46.667ZM30 33.333C28.159 33.333 26.667 31.841 26.667 30C26.667 28.159 28.159 26.667 30 26.667C31.841 26.667 33.333 28.159 33.333 30C33.333 31.841 31.841 33.333 30 33.333ZM30 20C28.159 20 26.667 18.508 26.667 16.667C26.667 14.826 28.159 13.334 30 13.334C31.841 13.334 33.333 14.826 33.333 16.667C33.333 18.508 31.841 20 30 20ZM30 6.667C28.159 6.667 26.667 5.175 26.667 3.334C26.667 1.492 28.159 0 30 0C31.841 0 33.333 1.492 33.333 3.333C33.333 5.174 31.841 6.667 30 6.667ZM16.667 140C14.826 140 13.334 138.508 13.334 136.667C13.334 134.826 14.826 133.334 16.667 133.334C18.508 133.334 20 134.826 20 136.667C20 138.508 18.508 140 16.667 140ZM16.667 126.667C14.826 126.667 13.334 125.175 13.334 123.334C13.334 121.493 14.826 120.001 16.667 120.001C18.508 120.001 20 121.493 20 123.334C20 125.174 18.508 126.667 16.667 126.667ZM16.667 113.333C14.826 113.333 13.334 111.841 13.334 110C13.334 108.159 14.826 106.667 16.667 106.667C18.508 106.667 20 108.159 20 110C20 111.841 18.508 113.333 16.667 113.333ZM16.667 100C14.826 100 13.334 98.508 13.334 96.667C13.334 94.826 14.826 93.334 16.667 93.334C18.508 93.334 20 94.826 20 96.667C20 98.508 18.508 100 16.667 100ZM16.667 86.667C14.826 86.667 13.334 85.175 13.334 83.334C13.334 81.493 14.826 80.001 16.667 80.001C18.508 80 20 81.492 20 83.333C20 85.174 18.508 86.667 16.667 86.667ZM16.667 73.333C14.826 73.333 13.334 71.841 13.334 70C13.334 68.159 14.826 66.667 16.667 66.667C18.508 66.667 20 68.159 20 70C20 71.841 18.508 73.333 16.667 73.333ZM16.667 60C14.826 60 13.334 58.508 13.334 56.667C13.334 54.826 14.826 53.334 16.667 53.334C18.508 53.334 20 54.826 20 56.667C20 58.508 18.508 60 16.667 60ZM16.667 46.667C14.826 46.667 13.334 45.175 13.334 43.334C13.334 41.493 14.826 40.001 16.667 40.001C18.508 40 20 41.492 20 43.333C20 45.174 18.508 46.667 16.667 46.667ZM16.667 33.333C14.826 33.333 13.334 31.841 13.334 30C13.334 28.159 14.826 26.667 16.667 26.667C18.508 26.667 20 28.159 20 30C20 31.841 18.508 33.333 16.667 33.333ZM16.667 20C14.826 20 13.334 18.508 13.334 16.667C13.334 14.826 14.826 13.334 16.667 13.334C18.508 13.334 20 14.826 20 16.667C20 18.508 18.508 20 16.667 20ZM16.667 6.667C14.826 6.667 13.334 5.175 13.334 3.334C13.333 1.492 14.826 0 16.667 0C18.508 0 20 1.492 20 3.333C20 5.174 18.508 6.667 16.667 6.667ZM3.333 140C1.492 140 0 138.508 0 136.667C0 134.826 1.492 133.334 3.333 133.334C5.174 133.334 6.666 134.826 6.666 136.667C6.666 138.508 5.174 140 3.333 140ZM3.333 126.667C1.492 126.667 0 125.175 0 123.334C0 121.492 1.492 120 3.333 120C5.174 120 6.666 121.492 6.666 123.333C6.667 125.174 5.174 126.667 3.333 126.667ZM3.333 113.333C1.492 113.333 0 111.841 0 110C0 108.159 1.492 106.667 3.333 106.667C5.174 106.667 6.666 108.159 6.666 110C6.667 111.841 5.174 113.333 3.333 113.333ZM3.333 100C1.492 100 0 98.508 0 96.667C0 94.826 1.492 93.334 3.333 93.334C5.174 93.334 6.666 94.826 6.666 96.667C6.667 98.508 5.174 100 3.333 100ZM3.333 86.667C1.492 86.667 0 85.174 0 83.333C0 81.492 1.492 80 3.333 80C5.174 80 6.666 81.492 6.666 83.333C6.667 85.174 5.174 86.667 3.333 86.667ZM3.333 73.333C1.492 73.333 0 71.841 0 70C0 68.159 1.492 66.667 3.333 66.667C5.174 66.667 6.667 68.159 6.667 70C6.667 71.841 5.174 73.333 3.333 73.333ZM3.333 60C1.492 60 0 58.508 0 56.667C0 54.826 1.492 53.334 3.333 53.334C5.174 53.334 6.666 54.826 6.666 56.667C6.667 58.508 5.174 60 3.333 60ZM3.333 46.667C1.492 46.667 0 45.174 0 43.333C0 41.492 1.492 40 3.333 40C5.174 40 6.666 41.492 6.666 43.333C6.667 45.174 5.174 46.667 3.333 46.667ZM3.333 33.333C1.492 33.333 0 31.841 0 30C0 28.159 1.492 26.667 3.333 26.667C5.174 26.667 6.667 28.159 6.667 30C6.667 31.841 5.174 33.333 3.333 33.333ZM3.333 20C1.492 20 0 18.508 0 16.667C0 14.826 1.492 13.334 3.333 13.334C5.174 13.334 6.666 14.826 6.666 16.667C6.666 18.508 5.174 20 3.333 20ZM3.333 6.667C1.492 6.667 0 5.174 0 3.333C0 1.492 1.492 0 3.333 0C5.174 0 6.666 1.492 6.666 3.333C6.667 5.174 5.174 6.667 3.333 6.667Z" fill="#BB945B"/>
<path fill-rule="evenodd" clip-rule="evenodd" d="M69 140C67.159 140 65.667 138.508 65.667 136.667C65.667 134.826 67.159 133.334 69 133.334C70.841 133.334 72.333 134.826 72.333 136.667C72.333 138.508 70.841 140 69 140ZM69 126.667C67.159 126.667 65.667 125.175 65.667 123.334C65.667 121.493 67.159 120.001 69 120.001C70.841 120.001 72.333 121.493 72.333 123.334C72.333 125.174 70.841 126.667 69 126.667ZM69 113.333C67.159 113.333 65.667 111.841 65.667 110C65.667 108.159 67.159 106.667 69 106.667C70.841 106.667 72.333 108.159 72.333 110C72.333 111.841 70.841 113.333 69 113.333ZM69 100C67.159 100 65.667 98.508 65.667 96.667C65.667 94.826 67.159 93.334 69 93.334C70.841 93.334 72.333 94.826 72.333 96.667C72.333 98.508 70.841 100 69 100ZM69 86.667C67.159 86.667 65.667 85.175 65.667 83.334C65.667 81.492 67.159 80 69 80C70.841 80 72.333 81.492 72.333 83.333C72.333 85.174 70.841 86.667 69 86.667ZM69 73.333C67.159 73.333 65.667 71.841 65.667 70C65.667 68.159 67.159 66.667 69 66.667C70.841 66.667 72.333 68.159 72.333 70C72.333 71.841 70.841 73.333 69 73.333ZM69 60C67.159 60 65.667 58.508 65.667 56.667C65.667 54.826 67.159 53.334 69 53.334C70.841 53.334 72.333 54.826 72.333 56.667C72.333 58.508 70.841 60 69 60ZM69 46.667C67.159 46.667 65.667 45.175 65.667 43.334C65.667 41.492 67.159 40 69 40C70.841 40 72.333 41.492 72.333 43.333C72.333 45.174 70.841 46.667 69 46.667ZM69 33.333C67.159 33.333 65.667 31.841 65.667 30C65.667 28.159 67.159 26.667 69 26.667C70.841 26.667 72.333 28.159 72.333 30C72.333 31.841 70.841 33.333 69 33.333ZM69 20C67.159 20 65.667 18.508 65.667 16.667C65.667 14.826 67.159 13.334 69 13.334C70.841 13.334 72.333 14.826 72.333 16.667C72.333 18.508 70.841 20 69 20ZM69 6.667C67.159 6.667 65.667 5.175 65.667 3.334C65.667 1.492 67.159 0 69 0C70.841 0 72.333 1.492 72.333 3.333C72.333 5.174 70.841 6.667 69 6.667ZM55.667 140C53.826 140 52.334 138.508 52.334 136.667C52.334 134.826 53.826 133.334 55.667 133.334C57.508 133.334 59 134.826 59 136.667C59 138.508 57.508 140 55.667 140ZM55.667 126.667C53.826 126.667 52.334 125.175 52.334 123.334C52.334 121.493 53.826 120.001 55.667 120.001C57.508 120.001 59 121.493 59 123.334C59 125.174 57.508 126.667 55.667 126.667ZM55.667 113.333C53.826 113.333 52.334 111.841 52.334 110C52.334 108.159 53.826 106.667 55.667 106.667C57.508 106.667 59 108.159 59 110C59 111.841 57.508 113.333 55.667 113.333ZM55.667 100C53.826 100 52.334 98.508 52.334 96.667C52.334 94.826 53.826 93.334 55.667 93.334C57.508 93.334 59 94.826 59 96.667C59 98.508 57.508 100 55.667 100ZM55.667 86.667C53.826 86.667 52.334 85.175 52.334 83.334C52.334 81.493 53.826 80.001 55.667 80.001C57.508 80 59 81.492 59 83.333C59 85.174 57.508 86.667 55.667 86.667ZM55.667 73.333C53.826 73.333 52.334 71.841 52.334 70C52.334 68.159 53.826 66.667 55.667 66.667C57.508 66.667 59 68.159 59 70C59 71.841 57.508 73.333 55.667 73.333ZM55.667 60C53.826 60 52.334 58.508 52.334 56.667C52.334 54.826 53.826 53.334 55.667 53.334C57.508 53.334 59 54.826 59 56.667C59 58.508 57.508 60 55.667 60ZM55.667 46.667C53.826 46.667 52.334 45.175 52.334 43.334C52.334 41.493 53.826 40.001 55.667 40.001C57.508 40 59 41.492 59 43.333C59 45.174 57.508 46.667 55.667 46.667ZM55.667 33.333C53.826 33.333 52.334 31.841 52.334 30C52.334 28.159 53.826 26.667 55.667 26.667C57.508 26.667 59 28.159 59 30C59 31.841 57.508 33.333 55.667 33.333ZM55.667 20C53.826 20 52.334 18.508 52.334 16.667C52.334 14.826 53.826 13.334 55.667 13.334C57.508 13.334 59 14.826 59 16.667C59 18.508 57.508 20 55.667 20ZM55.667 6.667C53.826 6.667 52.334 5.175 52.334 3.334C52.333 1.492 53.826 0 55.667 0C57.508 0 59 1.492 59 3.333C59 5.174 57.508 6.667 55.667 6.667ZM42.333 140C40.492 140 39 138.508 39 136.667C39 134.826 40.492 133.334 42.333 133.334C44.174 133.334 45.666 134.826 45.666 136.667C45.666 138.508 44.174 140 42.333 140ZM42.333 126.667C40.492 126.667 39 125.175 39 123.334C39 121.492 40.492 120 42.333 120C44.174 120 45.666 121.492 45.666 123.333C45.667 125.174 44.174 126.667 42.333 126.667ZM42.333 113.333C40.492 113.333 39 111.841 39 110C39 108.159 40.492 106.667 42.333 106.667C44.174 106.667 45.666 108.159 45.666 110C45.667 111.841 44.174 113.333 42.333 113.333ZM42.333 100C40.492 100 39 98.508 39 96.667C39 94.826 40.492 93.334 42.333 93.334C44.174 93.334 45.666 94.826 45.666 96.667C45.667 98.508 44.174 100 42.333 100ZM42.333 86.667C40.492 86.667 39 85.174 39 83.333C39 81.492 40.492 80 42.333 80C44.174 80 45.666 81.492 45.666 83.333C45.667 85.174 44.174 86.667 42.333 86.667ZM42.333 73.333C40.492 73.333 39 71.841 39 70C39 68.159 40.492 66.667 42.333 66.667C44.174 66.667 45.667 68.159 45.667 70C45.667 71.841 44.174 73.333 42.333 73.333ZM42.333 60C40.492 60 39 58.508 39 56.667C39 54.826 40.492 53.334 42.333 53.334C44.174 53.334 45.666 54.826 45.666 56.667C45.667 58.508 44.174 60 42.333 60ZM42.333 46.667C40.492 46.667 39 45.174 39 43.333C39 41.492 40.492 40 42.333 40C44.174 40 45.666 41.492 45.666 43.333C45.667 45.174 44.174 46.667 42.333 46.667ZM42.333 33.333C40.492 33.333 39 31.841 39 30C39 28.159 40.492 26.667 42.333 26.667C44.174 26.667 45.667 28.159 45.667 30C45.667 31.841 44.174 33.333 42.333 33.333ZM42.333 20C40.492 20 39 18.508 39 16.667C39 14.826 40.492 13.334 42.333 13.334C44.174 13.334 45.666 14.826 45.666 16.667C45.666 18.508 44.174 20 42.333 20ZM42.333 6.667C40.492 6.667 39 5.174 39 3.333C39 1.492 40.492 0 42.333 0C44.174 0 45.666 1.492 45.666 3.333C45.667 5.174 44.174 6.667 42.333 6.667Z" fill="#BB945B"/>
<path fill-rule="evenodd" clip-rule="evenodd" d="M108 140C106.159 140 104.667 138.508 104.667 136.667C104.667 134.826 106.159 133.334 108 133.334C109.841 133.334 111.333 134.826 111.333 136.667C111.333 138.508 109.841 140 108 140ZM108 126.667C106.159 126.667 104.667 125.175 104.667 123.334C104.667 121.493 106.159 120.001 108 120.001C109.841 120.001 111.333 121.493 111.333 123.334C111.333 125.174 109.841 126.667 108 126.667ZM108 113.333C106.159 113.333 104.667 111.841 104.667 110C104.667 108.159 106.159 106.667 108 106.667C109.841 106.667 111.333 108.159 111.333 110C111.333 111.841 109.841 113.333 108 113.333ZM108 100C106.159 100 104.667 98.508 104.667 96.667C104.667 94.826 106.159 93.334 108 93.334C109.841 93.334 111.333 94.826 111.333 96.667C111.333 98.508 109.841 100 108 100ZM108 86.667C106.159 86.667 104.667 85.175 104.667 83.334C104.667 81.492 106.159 80 108 80C109.841 80 111.333 81.492 111.333 83.333C111.333 85.174 109.841 86.667 108 86.667ZM108 73.333C106.159 73.333 104.667 71.841 104.667 70C104.667 68.159 106.159 66.667 108 66.667C109.841 66.667 111.333 68.159 111.333 70C111.333 71.841 109.841 73.333 108 73.333ZM108 60C106.159 60 104.667 58.508 104.667 56.667C104.667 54.826 106.159 53.334 108 53.334C109.841 53.334 111.333 54.826 111.333 56.667C111.333 58.508 109.841 60 108 60ZM108 46.667C106.159 46.667 104.667 45.175 104.667 43.334C104.667 41.492 106.159 40 108 40C109.841 40 111.333 41.492 111.333 43.333C111.333 45.174 109.841 46.667 108 46.667ZM108 33.333C106.159 33.333 104.667 31.841 104.667 30C104.667 28.159 106.159 26.667 108 26.667C109.841 26.667 111.333 28.159 111.333 30C111.333 31.841 109.841 33.333 108 33.333ZM108 20C106.159 20 104.667 18.508 104.667 16.667C104.667 14.826 106.159 13.334 108 13.334C109.841 13.334 111.333 14.826 111.333 16.667C111.333 18.508 109.841 20 108 20ZM108 6.667C106.159 6.667 104.667 5.175 104.667 3.334C104.667 1.492 106.159 0 108 0C109.841 0 111.333 1.492 111.333 3.333C111.333 5.174 109.841 6.667 108 6.667ZM94.667 140C92.826 140 91.334 138.508 91.334 136.667C91.334 134.826 92.826 133.334 94.667 133.334C96.508 133.334 98 134.826 98 136.667C98 138.508 96.508 140 94.667 140ZM94.667 126.667C92.826 126.667 91.334 125.175 91.334 123.334C91.334 121.493 92.826 120.001 94.667 120.001C96.508 120.001 98 121.493 98 123.334C98 125.174 96.508 126.667 94.667 126.667ZM94.667 113.333C92.826 113.333 91.334 111.841 91.334 110C91.334 108.159 92.826 106.667 94.667 106.667C96.508 106.667 98 108.159 98 110C98 111.841 96.508 113.333 94.667 113.333ZM94.667 100C92.826 100 91.334 98.508 91.334 96.667C91.334 94.826 92.826 93.334 94.667 93.334C96.508 93.334 98 94.826 98 96.667C98 98.508 96.508 100 94.667 100ZM94.667 86.667C92.826 86.667 91.334 85.175 91.334 83.334C91.334 81.493 92.826 80.001 94.667 80.001C96.508 80 98 81.492 98 83.333C98 85.174 96.508 86.667 94.667 86.667ZM94.667 73.333C92.826 73.333 91.334 71.841 91.334 70C91.334 68.159 92.826 66.667 94.667 66.667C96.508 66.667 98 68.159 98 70C98 71.841 96.508 73.333 94.667 73.333ZM94.667 60C92.826 60 91.334 58.508 91.334 56.667C91.334 54.826 92.826 53.334 94.667 53.334C96.508 53.334 98 54.826 98 56.667C98 58.508 96.508 60 94.667 60ZM94.667 46.667C92.826 46.667 91.334 45.175 91.334 43.334C91.334 41.493 92.826 40.001 94.667 40.001C96.508 40 98 41.492 98 43.333C98 45.174 96.508 46.667 94.667 46.667ZM94.667 33.333C92.826 33.333 91.334 31.841 91.334 30C91.334 28.159 92.826 26.667 94.667 26.667C96.508 26.667 98 28.159 98 30C98 31.841 96.508 33.333 94.667 33.333ZM94.667 20C92.826 20 91.334 18.508 91.334 16.667C91.334 14.826 92.826 13.334 94.667 13.334C96.508 13.334 98 14.826 98 16.667C98 18.508 96.508 20 94.667 20ZM94.667 6.667C92.826 6.667 91.334 5.175 91.334 3.334C91.333 1.492 92.826 0 94.667 0C96.508 0 98 1.492 98 3.333C98 5.174 96.508 6.667 94.667 6.667ZM81.333 140C79.492 140 78 138.508 78 136.667C78 134.826 79.492 133.334 81.333 133.334C83.174 133.334 84.666 134.826 84.666 136.667C84.666 138.508 83.174 140 81.333 140ZM81.333 126.667C79.492 126.667 78 125.175 78 123.334C78 121.492 79.492 120 81.333 120C83.174 120 84.666 121.492 84.666 123.333C84.667 125.174 83.174 126.667 81.333 126.667ZM81.333 113.333C79.492 113.333 78 111.841 78 110C78 108.159 79.492 106.667 81.333 106.667C83.174 106.667 84.666 108.159 84.666 110C84.667 111.841 83.174 113.333 81.333 113.333ZM81.333 100C79.492 100 78 98.508 78 96.667C78 94.826 79.492 93.334 81.333 93.334C83.174 93.334 84.666 94.826 84.666 96.667C84.667 98.508 83.174 100 81.333 100ZM81.333 86.667C79.492 86.667 78 85.174 78 83.333C78 81.492 79.492 80 81.333 80C83.174 80 84.666 81.492 84.666 83.333C84.667 85.174 83.174 86.667 81.333 86.667ZM81.333 73.333C79.492 73.333 78 71.841 78 70C78 68.159 79.492 66.667 81.333 66.667C83.174 66.667 84.667 68.159 84.667 70C84.667 71.841 83.174 73.333 81.333 73.333ZM81.333 60C79.492 60 78 58.508 78 56.667C78 54.826 79.492 53.334 81.333 53.334C83.174 53.334 84.666 54.826 84.666 56.667C84.667 58.508 83.174 60 81.333 60ZM81.333 46.667C79.492 46.667 78 45.174 78 43.333C78 41.492 79.492 40 81.333 40C83.174 40 84.666 41.492 84.666 43.333C84.667 45.174 83.174 46.667 81.333 46.667ZM81.333 33.333C79.492 33.333 78 31.841 78 30C78 28.159 79.492 26.667 81.333 26.667C83.174 26.667 84.667 28.159 84.667 30C84.667 31.841 83.174 33.333 81.333 33.333ZM81.333 20C79.492 20 78 18.508 78 16.667C78 14.826 79.492 13.334 81.333 13.334C83.174 13.334 84.666 14.826 84.666 16.667C84.666 18.508 83.174 20 81.333 20ZM81.333 6.667C79.492 6.667 78 5.174 78 3.333C78 1.492 79.492 0 81.333 0C83.174 0 84.666 1.492 84.666 3.333C84.667 5.174 83.174 6.667 81.333 6.667Z" fill="#BB945B"/>
<path fill-rule="evenodd" clip-rule="evenodd" d="M30 287C28.159 287 26.667 285.508 26.667 283.667C26.667 281.826 28.159 280.334 30 280.334C31.841 280.334 33.333 281.826 33.333 283.667C33.333 285.508 31.841 287 30 287ZM30 273.667C28.159 273.667 26.667 272.175 26.667 270.334C26.667 268.493 28.159 267.001 30 267.001C31.841 267.001 33.333 268.493 33.333 270.334C33.333 272.174 31.841 273.667 30 273.667ZM30 260.333C28.159 260.333 26.667 258.841 26.667 257C26.667 255.159 28.159 253.667 30 253.667C31.841 253.667 33.333 255.159 33.333 257C33.333 258.841 31.841 260.333 30 260.333ZM30 247C28.159 247 26.667 245.508 26.667 243.667C26.667 241.826 28.159 240.334 30 240.334C31.841 240.334 33.333 241.826 33.333 243.667C33.333 245.508 31.841 247 30 247ZM30 233.667C28.159 233.667 26.667 232.175 26.667 230.334C26.667 228.492 28.159 227 30 227C31.841 227 33.333 228.492 33.333 230.333C33.333 232.174 31.841 233.667 30 233.667ZM30 220.333C28.159 220.333 26.667 218.841 26.667 217C26.667 215.159 28.159 213.667 30 213.667C31.841 213.667 33.333 215.159 33.333 217C33.333 218.841 31.841 220.333 30 220.333ZM30 207C28.159 207 26.667 205.508 26.667 203.667C26.667 201.826 28.159 200.334 30 200.334C31.841 200.334 33.333 201.826 33.333 203.667C33.333 205.508 31.841 207 30 207ZM30 193.667C28.159 193.667 26.667 192.175 26.667 190.334C26.667 188.492 28.159 187 30 187C31.841 187 33.333 188.492 33.333 190.333C33.333 192.174 31.841 193.667 30 193.667ZM30 180.333C28.159 180.333 26.667 178.841 26.667 177C26.667 175.159 28.159 173.667 30 173.667C31.841 173.667 33.333 175.159 33.333 177C33.333 178.841 31.841 180.333 30 180.333ZM30 167C28.159 167 26.667 165.508 26.667 163.667C26.667 161.826 28.159 160.334 30 160.334C31.841 160.334 33.333 161.826 33.333 163.667C33.333 165.508 31.841 167 30 167ZM30 153.667C28.159 153.667 26.667 152.175 26.667 150.334C26.667 148.492 28.159 147 30 147C31.841 147 33.333 148.492 33.333 150.333C33.333 152.174 31.841 153.667 30 153.667ZM16.667 287C14.826 287 13.334 285.508 13.334 283.667C13.334 281.826 14.826 280.334 16.667 280.334C18.508 280.334 20 281.826 20 283.667C20 285.508 18.508 287 16.667 287ZM16.667 273.667C14.826 273.667 13.334 272.175 13.334 270.334C13.334 268.493 14.826 267.001 16.667 267.001C18.508 267.001 20 268.493 20 270.334C20 272.174 18.508 273.667 16.667 273.667ZM16.667 260.333C14.826 260.333 13.334 258.841 13.334 257C13.334 255.159 14.826 253.667 16.667 253.667C18.508 253.667 20 255.159 20 257C20 258.841 18.508 260.333 16.667 260.333ZM16.667 247C14.826 247 13.334 245.508 13.334 243.667C13.334 241.826 14.826 240.334 16.667 240.334C18.508 240.334 20 241.826 20 243.667C20 245.508 18.508 247 16.667 247ZM16.667 233.667C14.826 233.667 13.334 232.175 13.334 230.334C13.334 228.493 14.826 227.001 16.667 227.001C18.508 227 20 228.492 20 230.333C20 232.174 18.508 233.667 16.667 233.667ZM16.667 220.333C14.826 220.333 13.334 218.841 13.334 217C13.334 215.159 14.826 213.667 16.667 213.667C18.508 213.667 20 215.159 20 217C20 218.841 18.508 220.333 16.667 220.333ZM16.667 207C14.826 207 13.334 205.508 13.334 203.667C13.334 201.826 14.826 200.334 16.667 200.334C18.508 200.334 20 201.826 20 203.667C20 205.508 18.508 207 16.667 207ZM16.667 193.667C14.826 193.667 13.334 192.175 13.334 190.334C13.334 188.493 14.826 187.001 16.667 187.001C18.508 187 20 188.492 20 190.333C20 192.174 18.508 193.667 16.667 193.667ZM16.667 180.333C14.826 180.333 13.334 178.841 13.334 177C13.334 175.159 14.826 173.667 16.667 173.667C18.508 173.667 20 175.159 20 177C20 178.841 18.508 180.333 16.667 180.333ZM16.667 167C14.826 167 13.334 165.508 13.334 163.667C13.334 161.826 14.826 160.334 16.667 160.334C18.508 160.334 20 161.826 20 163.667C20 165.508 18.508 167 16.667 167ZM16.667 153.667C14.826 153.667 13.334 152.175 13.334 150.334C13.333 148.492 14.826 147 16.667 147C18.508 147 20 148.492 20 150.333C20 152.174 18.508 153.667 16.667 153.667ZM3.333 287C1.492 287 0 285.508 0 283.667C0 281.826 1.492 280.334 3.333 280.334C5.174 280.334 6.666 281.826 6.666 283.667C6.666 285.508 5.174 287 3.333 287ZM3.333 273.667C1.492 273.667 0 272.175 0 270.334C0 268.492 1.492 267 3.333 267C5.174 267 6.666 268.492 6.666 270.333C6.667 272.174 5.174 273.667 3.333 273.667ZM3.333 260.333C1.492 260.333 0 258.841 0 257C0 255.159 1.492 253.667 3.333 253.667C5.174 253.667 6.666 255.159 6.666 257C6.667 258.841 5.174 260.333 3.333 260.333ZM3.333 247C1.492 247 0 245.508 0 243.667C0 241.826 1.492 240.334 3.333 240.334C5.174 240.334 6.666 241.826 6.666 243.667C6.667 245.508 5.174 247 3.333 247ZM3.333 233.667C1.492 233.667 0 232.174 0 230.333C0 228.492 1.492 227 3.333 227C5.174 227 6.666 228.492 6.666 230.333C6.667 232.174 5.174 233.667 3.333 233.667ZM3.333 220.333C1.492 220.333 0 218.841 0 217C0 215.159 1.492 213.667 3.333 213.667C5.174 213.667 6.667 215.159 6.667 217C6.667 218.841 5.174 220.333 3.333 220.333ZM3.333 207C1.492 207 0 205.508 0 203.667C0 201.826 1.492 200.334 3.333 200.334C5.174 200.334 6.666 201.826 6.666 203.667C6.667 205.508 5.174 207 3.333 207ZM3.333 193.667C1.492 193.667 0 192.174 0 190.333C0 188.492 1.492 187 3.333 187C5.174 187 6.666 188.492 6.666 190.333C6.667 192.174 5.174 193.667 3.333 193.667ZM3.333 180.333C1.492 180.333 0 178.841 0 177C0 175.159 1.492 173.667 3.333 173.667C5.174 173.667 6.667 175.159 6.667 177C6.667 178.841 5.174 180.333 3.333 180.333ZM3.333 167C1.492 167 0 165.508 0 163.667C0 161.826 1.492 160.334 3.333 160.334C5.174 160.334 6.666 161.826 6.666 163.667C6.666 165.508 5.174 167 3.333 167ZM3.333 153.667C1.492 153.667 0 152.174 0 150.333C0 148.492 1.492 147 3.333 147C5.174 147 6.666 148.492 6.666 150.333C6.667 152.174 5.174 153.667 3.333 153.667Z" fill="#BB945B"/>
<path fill-rule="evenodd" clip-rule="evenodd" d="M69 287C67.159 287 65.667 285.508 65.667 283.667C65.667 281.826 67.159 280.334 69 280.334C70.841 280.334 72.333 281.826 72.333 283.667C72.333 285.508 70.841 287 69 287ZM69 273.667C67.159 273.667 65.667 272.175 65.667 270.334C65.667 268.493 67.159 267.001 69 267.001C70.841 267.001 72.333 268.493 72.333 270.334C72.333 272.174 70.841 273.667 69 273.667ZM69 260.333C67.159 260.333 65.667 258.841 65.667 257C65.667 255.159 67.159 253.667 69 253.667C70.841 253.667 72.333 255.159 72.333 257C72.333 258.841 70.841 260.333 69 260.333ZM69 247C67.159 247 65.667 245.508 65.667 243.667C65.667 241.826 67.159 240.334 69 240.334C70.841 240.334 72.333 241.826 72.333 243.667C72.333 245.508 70.841 247 69 247ZM69 233.667C67.159 233.667 65.667 232.175 65.667 230.334C65.667 228.492 67.159 227 69 227C70.841 227 72.333 228.492 72.333 230.333C72.333 232.174 70.841 233.667 69 233.667ZM69 220.333C67.159 220.333 65.667 218.841 65.667 217C65.667 215.159 67.159 213.667 69 213.667C70.841 213.667 72.333 215.159 72.333 217C72.333 218.841 70.841 220.333 69 220.333ZM69 207C67.159 207 65.667 205.508 65.667 203.667C65.667 201.826 67.159 200.334 69 200.334C70.841 200.334 72.333 201.826 72.333 203.667C72.333 205.508 70.841 207 69 207ZM69 193.667C67.159 193.667 65.667 192.175 65.667 190.334C65.667 188.492 67.159 187 69 187C70.841 187 72.333 188.492 72.333 190.333C72.333 192.174 70.841 193.667 69 193.667ZM69 180.333C67.159 180.333 65.667 178.841 65.667 177C65.667 175.159 67.159 173.667 69 173.667C70.841 173.667 72.333 175.159 72.333 177C72.333 178.841 70.841 180.333 69 180.333ZM69 167C67.159 167 65.667 165.508 65.667 163.667C65.667 161.826 67.159 160.334 69 160.334C70.841 160.334 72.333 161.826 72.333 163.667C72.333 165.508 70.841 167 69 167ZM69 153.667C67.159 153.667 65.667 152.175 65.667 150.334C65.667 148.492 67.159 147 69 147C70.841 147 72.333 148.492 72.333 150.333C72.333 152.174 70.841 153.667 69 153.667ZM55.667 287C53.826 287 52.334 285.508 52.334 283.667C52.334 281.826 53.826 280.334 55.667 280.334C57.508 280.334 59 281.826 59 283.667C59 285.508 57.508 287 55.667 287ZM55.667 273.667C53.826 273.667 52.334 272.175 52.334 270.334C52.334 268.493 53.826 267.001 55.667 267.001C57.508 267.001 59 268.493 59 270.334C59 272.174 57.508 273.667 55.667 273.667ZM55.667 260.333C53.826 260.333 52.334 258.841 52.334 257C52.334 255.159 53.826 253.667 55.667 253.667C57.508 253.667 59 255.159 59 257C59 258.841 57.508 260.333 55.667 260.333ZM55.667 247C53.826 247 52.334 245.508 52.334 243.667C52.334 241.826 53.826 240.334 55.667 240.334C57.508 240.334 59 241.826 59 243.667C59 245.508 57.508 247 55.667 247ZM55.667 233.667C53.826 233.667 52.334 232.175 52.334 230.334C52.334 228.493 53.826 227.001 55.667 227.001C57.508 227 59 228.492 59 230.333C59 232.174 57.508 233.667 55.667 233.667ZM55.667 220.333C53.826 220.333 52.334 218.841 52.334 217C52.334 215.159 53.826 213.667 55.667 213.667C57.508 213.667 59 215.159 59 217C59 218.841 57.508 220.333 55.667 220.333ZM55.667 207C53.826 207 52.334 205.508 52.334 203.667C52.334 201.826 53.826 200.334 55.667 200.334C57.508 200.334 59 201.826 59 203.667C59 205.508 57.508 207 55.667 207ZM55.667 193.667C53.826 193.667 52.334 192.175 52.334 190.334C52.334 188.493 53.826 187.001 55.667 187.001C57.508 187 59 188.492 59 190.333C59 192.174 57.508 193.667 55.667 193.667ZM55.667 180.333C53.826 180.333 52.334 178.841 52.334 177C52.334 175.159 53.826 173.667 55.667 173.667C57.508 173.667 59 175.159 59 177C59 178.841 57.508 180.333 55.667 180.333ZM55.667 167C53.826 167 52.334 165.508 52.334 163.667C52.334 161.826 53.826 160.334 55.667 160.334C57.508 160.334 59 161.826 59 163.667C59 165.508 57.508 167 55.667 167ZM55.667 153.667C53.826 153.667 52.334 152.175 52.334 150.334C52.333 148.492 53.826 147 55.667 147C57.508 147 59 148.492 59 150.333C59 152.174 57.508 153.667 55.667 153.667ZM42.333 287C40.492 287 39 285.508 39 283.667C39 281.826 40.492 280.334 42.333 280.334C44.174 280.334 45.666 281.826 45.666 283.667C45.666 285.508 44.174 287 42.333 287ZM42.333 273.667C40.492 273.667 39 272.175 39 270.334C39 268.492 40.492 267 42.333 267C44.174 267 45.666 268.492 45.666 270.333C45.667 272.174 44.174 273.667 42.333 273.667ZM42.333 260.333C40.492 260.333 39 258.841 39 257C39 255.159 40.492 253.667 42.333 253.667C44.174 253.667 45.666 255.159 45.666 257C45.667 258.841 44.174 260.333 42.333 260.333ZM42.333 247C40.492 247 39 245.508 39 243.667C39 241.826 40.492 240.334 42.333 240.334C44.174 240.334 45.666 241.826 45.666 243.667C45.667 245.508 44.174 247 42.333 247ZM42.333 233.667C40.492 233.667 39 232.174 39 230.333C39 228.492 40.492 227 42.333 227C44.174 227 45.666 228.492 45.666 230.333C45.667 232.174 44.174 233.667 42.333 233.667ZM42.333 220.333C40.492 220.333 39 218.841 39 217C39 215.159 40.492 213.667 42.333 213.667C44.174 213.667 45.667 215.159 45.667 217C45.667 218.841 44.174 220.333 42.333 220.333ZM42.333 207C40.492 207 39 205.508 39 203.667C39 201.826 40.492 200.334 42.333 200.334C44.174 200.334 45.666 201.826 45.666 203.667C45.667 205.508 44.174 207 42.333 207ZM42.333 193.667C40.492 193.667 39 192.174 39 190.333C39 188.492 40.492 187 42.333 187C44.174 187 45.666 188.492 45.666 190.333C45.667 192.174 44.174 193.667 42.333 193.667ZM42.333 180.333C40.492 180.333 39 178.841 39 177C39 175.159 40.492 173.667 42.333 173.667C44.174 173.667 45.667 175.159 45.667 177C45.667 178.841 44.174 180.333 42.333 180.333ZM42.333 167C40.492 167 39 165.508 39 163.667C39 161.826 40.492 160.334 42.333 160.334C44.174 160.334 45.666 161.826 45.666 163.667C45.666 165.508 44.174 167 42.333 167ZM42.333 153.667C40.492 153.667 39 152.174 39 150.333C39 148.492 40.492 147 42.333 147C44.174 147 45.666 148.492 45.666 150.333C45.667 152.174 44.174 153.667 42.333 153.667Z" fill="#BB945B"/>
<path fill-rule="evenodd" clip-rule="evenodd" d="M108 287C106.159 287 104.667 285.508 104.667 283.667C104.667 281.826 106.159 280.334 108 280.334C109.841 280.334 111.333 281.826 111.333 283.667C111.333 285.508 109.841 287 108 287ZM108 273.667C106.159 273.667 104.667 272.175 104.667 270.334C104.667 268.493 106.159 267.001 108 267.001C109.841 267.001 111.333 268.493 111.333 270.334C111.333 272.174 109.841 273.667 108 273.667ZM108 260.333C106.159 260.333 104.667 258.841 104.667 257C104.667 255.159 106.159 253.667 108 253.667C109.841 253.667 111.333 255.159 111.333 257C111.333 258.841 109.841 260.333 108 260.333ZM108 247C106.159 247 104.667 245.508 104.667 243.667C104.667 241.826 106.159 240.334 108 240.334C109.841 240.334 111.333 241.826 111.333 243.667C111.333 245.508 109.841 247 108 247ZM108 233.667C106.159 233.667 104.667 232.175 104.667 230.334C104.667 228.492 106.159 227 108 227C109.841 227 111.333 228.492 111.333 230.333C111.333 232.174 109.841 233.667 108 233.667ZM108 220.333C106.159 220.333 104.667 218.841 104.667 217C104.667 215.159 106.159 213.667 108 213.667C109.841 213.667 111.333 215.159 111.333 217C111.333 218.841 109.841 220.333 108 220.333ZM108 207C106.159 207 104.667 205.508 104.667 203.667C104.667 201.826 106.159 200.334 108 200.334C109.841 200.334 111.333 201.826 111.333 203.667C111.333 205.508 109.841 207 108 207ZM108 193.667C106.159 193.667 104.667 192.175 104.667 190.334C104.667 188.492 106.159 187 108 187C109.841 187 111.333 188.492 111.333 190.333C111.333 192.174 109.841 193.667 108 193.667ZM108 180.333C106.159 180.333 104.667 178.841 104.667 177C104.667 175.159 106.159 173.667 108 173.667C109.841 173.667 111.333 175.159 111.333 177C111.333 178.841 109.841 180.333 108 180.333ZM108 167C106.159 167 104.667 165.508 104.667 163.667C104.667 161.826 106.159 160.334 108 160.334C109.841 160.334 111.333 161.826 111.333 163.667C111.333 165.508 109.841 167 108 167ZM108 153.667C106.159 153.667 104.667 152.175 104.667 150.334C104.667 148.492 106.159 147 108 147C109.841 147 111.333 148.492 111.333 150.333C111.333 152.174 109.841 153.667 108 153.667ZM94.667 287C92.826 287 91.334 285.508 91.334 283.667C91.334 281.826 92.826 280.334 94.667 280.334C96.508 280.334 98 281.826 98 283.667C98 285.508 96.508 287 94.667 287ZM94.667 273.667C92.826 273.667 91.334 272.175 91.334 270.334C91.334 268.493 92.826 267.001 94.667 267.001C96.508 267.001 98 268.493 98 270.334C98 272.174 96.508 273.667 94.667 273.667ZM94.667 260.333C92.826 260.333 91.334 258.841 91.334 257C91.334 255.159 92.826 253.667 94.667 253.667C96.508 253.667 98 255.159 98 257C98 258.841 96.508 260.333 94.667 260.333ZM94.667 247C92.826 247 91.334 245.508 91.334 243.667C91.334 241.826 92.826 240.334 94.667 240.334C96.508 240.334 98 241.826 98 243.667C98 245.508 96.508 247 94.667 247ZM94.667 233.667C92.826 233.667 91.334 232.175 91.334 230.334C91.334 228.493 92.826 227.001 94.667 227.001C96.508 227 98 228.492 98 230.333C98 232.174 96.508 233.667 94.667 233.667ZM94.667 220.333C92.826 220.333 91.334 218.841 91.334 217C91.334 215.159 92.826 213.667 94.667 213.667C96.508 213.667 98 215.159 98 217C98 218.841 96.508 220.333 94.667 220.333ZM94.667 207C92.826 207 91.334 205.508 91.334 203.667C91.334 201.826 92.826 200.334 94.667 200.334C96.508 200.334 98 201.826 98 203.667C98 205.508 96.508 207 94.667 207ZM94.667 193.667C92.826 193.667 91.334 192.175 91.334 190.334C91.334 188.493 92.826 187.001 94.667 187.001C96.508 187 98 188.492 98 190.333C98 192.174 96.508 193.667 94.667 193.667ZM94.667 180.333C92.826 180.333 91.334 178.841 91.334 177C91.334 175.159 92.826 173.667 94.667 173.667C96.508 173.667 98 175.159 98 177C98 178.841 96.508 180.333 94.667 180.333ZM94.667 167C92.826 167 91.334 165.508 91.334 163.667C91.334 161.826 92.826 160.334 94.667 160.334C96.508 160.334 98 161.826 98 163.667C98 165.508 96.508 167 94.667 167ZM94.667 153.667C92.826 153.667 91.334 152.175 91.334 150.334C91.333 148.492 92.826 147 94.667 147C96.508 147 98 148.492 98 150.333C98 152.174 96.508 153.667 94.667 153.667ZM81.333 287C79.492 287 78 285.508 78 283.667C78 281.826 79.492 280.334 81.333 280.334C83.174 280.334 84.666 281.826 84.666 283.667C84.666 285.508 83.174 287 81.333 287ZM81.333 273.667C79.492 273.667 78 272.175 78 270.334C78 268.492 79.492 267 81.333 267C83.174 267 84.666 268.492 84.666 270.333C84.667 272.174 83.174 273.667 81.333 273.667ZM81.333 260.333C79.492 260.333 78 258.841 78 257C78 255.159 79.492 253.667 81.333 253.667C83.174 253.667 84.666 255.159 84.666 257C84.667 258.841 83.174 260.333 81.333 260.333ZM81.333 247C79.492 247 78 245.508 78 243.667C78 241.826 79.492 240.334 81.333 240.334C83.174 240.334 84.666 241.826 84.666 243.667C84.667 245.508 83.174 247 81.333 247ZM81.333 233.667C79.492 233.667 78 232.174 78 230.333C78 228.492 79.492 227 81.333 227C83.174 227 84.666 228.492 84.666 230.333C84.667 232.174 83.174 233.667 81.333 233.667ZM81.333 220.333C79.492 220.333 78 218.841 78 217C78 215.159 79.492 213.667 81.333 213.667C83.174 213.667 84.667 215.159 84.667 217C84.667 218.841 83.174 220.333 81.333 220.333ZM81.333 207C79.492 207 78 205.508 78 203.667C78 201.826 79.492 200.334 81.333 200.334C83.174 200.334 84.666 201.826 84.666 203.667C84.667 205.508 83.174 207 81.333 207ZM81.333 193.667C79.492 193.667 78 192.174 78 190.333C78 188.492 79.492 187 81.333 187C83.174 187 84.666 188.492 84.666 190.333C84.667 192.174 83.174 193.667 81.333 193.667ZM81.333 180.333C79.492 180.333 78 178.841 78 177C78 175.159 79.492 173.667 81.333 173.667C83.174 173.667 84.667 175.159 84.667 177C84.667 178.841 83.174 180.333 81.333 180.333ZM81.333 167C79.492 167 78 165.508 78 163.667C78 161.826 79.492 160.334 81.333 160.334C83.174 160.334 84.666 161.826 84.666 163.667C84.666 165.508 83.174 167 81.333 167ZM81.333 153.667C79.492 153.667 78 152.174 78 150.333C78 148.492 79.492 147 81.333 147C83.174 147 84.666 148.492 84.666 150.333C84.667 152.174 83.174 153.667 81.333 153.667Z" fill="#BB945B"/>
</svg>
