<svg width="1052" height="154" viewBox="0 0 1052 154" fill="none" xmlns="http://www.w3.org/2000/svg">
<path fill-rule="evenodd" clip-rule="evenodd" d="M1214.24 440H1211.77L1248 403.757V406.232L1214.24 440ZM1178.57 440H1176.1L1248 368.083V370.558L1178.57 440ZM1142.91 440H1140.43L1248 332.408V334.883L1142.91 440ZM1107.24 440H1104.77L1248 296.735V299.21L1107.24 440ZM1071.57 440H1069.1L1248 261.059V263.534L1071.57 440ZM1002.17 440H999.697L526.801 -33H529.276L1002.17 440ZM966.505 440H964.03L491.125 -33H493.6L966.505 440ZM928.362 440L455.459 -33H457.934L930.837 440H928.362ZM18.007 -33H20.485L-192 178.956V176.484L18.007 -33ZM243.118 -33H245.59L717.411 440H714.939L243.118 -33ZM278.743 -33H281.215L753.036 440H750.564L278.743 -33ZM314.37 -33H316.842L788.664 440H786.192L314.37 -33ZM352.469 -33L824.29 440H821.818L349.996 -33H352.469ZM385.622 -33H388.094L859.916 440H857.444L385.622 -33ZM423.72 -33L895.543 440H893.071L421.248 -33H423.72ZM56.201 -33L-192 214.581V212.109L53.722 -33H56.201ZM-192 247.735L89.437 -33H91.915L-192 250.207V247.735ZM486.439 353.788L469.862 337.169L367.008 440H364.533L468.626 335.931L452.049 319.313L331.334 440H328.859L450.813 318.073L434.236 301.455L295.659 440H293.184L433 300.216L416.422 283.597L259.983 440H257.508L415.186 282.357L398.609 265.739L224.309 440H221.834L397.373 264.5L380.796 247.882L188.635 440H186.16L379.56 246.643L362.982 230.024L152.96 440H150.485L361.747 228.784L345.17 212.166L117.284 440H114.809L343.934 210.927L327.357 194.309L81.61 440H79.135L326.121 193.07L309.543 176.451L45.936 440H43.461L308.308 175.212L291.731 158.594L10.26 440H7.785L290.494 157.354L273.916 140.735L-25.415 440H-27.89L272.68 139.496L256.103 122.878L-61.089 440H-63.564L254.867 121.639L238.11 104.84L-97.125 440H-99.6L236.875 103.601L220.297 86.982L-132.8 440H-135.275L219.06 85.743L202.483 69.125L-168.473 440H-170.948L201.249 67.886L184.672 51.268L-192 427.853V425.378L183.435 50.028L167.528 34.081L-192 392.713V390.241L166.292 32.842L149.715 16.224L-192 357.087V354.615L148.479 14.985L131.902 -1.633L-192 321.461V318.989L130.666 -2.872L114.089 -19.491L-192 285.835V283.363L112.853 -20.73L100.613 -33H103.085L114.091 -21.966L125.153 -33H127.631L115.327 -20.727L131.904 -4.108L148.522 -20.684L136.238 -33H138.71L149.762 -21.921L160.869 -33H163.347L150.998 -20.682L167.575 -4.064L184.194 -20.641L171.866 -33H174.338L185.433 -21.877L196.584 -33H199.062L186.669 -20.638L203.246 -4.02L219.864 -20.597L207.491 -33H209.963L221.103 -21.832L232.299 -33H234.777L222.339 -20.593L681.786 440H679.314L221.1 -19.357L204.482 -2.78L646.158 440H643.686L203.243 -1.544L186.624 15.033L610.533 440H608.061L185.385 16.269L168.767 32.845L574.908 440H572.436L487.675 355.027L402.683 440H400.208L486.439 353.788ZM149.759 -19.446L133.141 -2.87L149.718 13.748L166.336 -2.828L149.759 -19.446ZM185.388 13.794L202.007 -2.784L185.43 -19.402L168.811 -2.825L185.388 13.794ZM184.149 15.03L167.572 -1.589L150.954 14.987L167.531 31.605L184.149 15.03ZM-192 143.328V140.856L-17.709 -33H-15.231L-192 143.328ZM-89.139 -33H-86.661L-192 72.077V69.605L-89.139 -33ZM-192 107.702V105.23L-53.424 -33H-50.946L-192 107.702ZM1248 225.385V227.86L1036.87 439.034L1037.84 440H1035.36L562.469 -33H564.944L892.969 295.098L909.746 278.317L598.496 -33H600.971L910.984 277.08L927.579 260.481L634.161 -33H636.636L928.816 259.243L945.412 242.644L669.829 -33H672.304L946.65 241.406L963.247 224.806L705.495 -33H707.97L964.483 223.569L981.078 206.97L741.163 -33H743.638L982.316 205.732L998.912 189.133L776.828 -33H779.303L1000.15 187.895L1016.74 171.295L812.495 -33H814.97L1017.98 170.057L1034.58 153.458L848.162 -33H850.637L1035.82 152.22L1052.41 135.62L883.829 -33H886.304L1053.65 134.383L1070.25 117.784L919.495 -33H921.97L1071.48 116.545L1088.08 99.946L955.162 -33H957.637L1089.32 98.708L1105.91 82.108L990.829 -33H993.304L1107.15 80.871L1123.74 64.272L1026.49 -33H1028.97L1124.98 63.034L1141.58 46.434L1062.16 -33H1064.64L1142.82 45.197L1220.99 -33H1223.47L894.206 296.336L910.802 312.936L1248 -24.337V-21.862L912.04 314.173L928.636 330.773L1248 11.338V13.813L929.873 332.01L946.468 348.609L1248 47.012V49.487L947.706 349.847L964.302 366.447L1248 82.687V85.162L965.54 367.685L982.136 384.285L1248 118.362V120.837L983.373 385.522L999.968 402.121L1248 154.035V156.51L1001.21 403.359L1017.8 419.959L1248 189.711V192.186L1019.04 421.196L1035.64 437.796L1248 225.385ZM1248 437.734V440H1245.73L1248 437.734Z" fill="#C5DEE3"/>
</svg>
