<svg width="750" height="140" viewBox="0 0 750 140" fill="none" xmlns="http://www.w3.org/2000/svg">
<path fill-rule="evenodd" clip-rule="evenodd" d="M967.24 432H964.765L1001 395.757V398.232L967.24 432ZM931.573 432H929.098L1001 360.083V362.558L931.573 432ZM895.907 432H893.432L1001 324.408V326.883L895.907 432ZM860.241 432H857.766L1001 288.735V291.21L860.241 432ZM824.573 432H822.098L1001 253.059V255.534L824.573 432ZM755.172 432H752.697L279.801 -41H282.276L755.172 432ZM719.505 432H717.03L244.125 -41H246.6L719.505 432ZM681.362 432L208.459 -41H210.934L683.837 432H681.362ZM-228.993 -41H-226.515L-439 170.956V168.484L-228.993 -41ZM-3.88199 -41H-1.41L470.411 432H467.939L-3.88199 -41ZM31.743 -41H34.215L506.036 432H503.564L31.743 -41ZM67.37 -41H69.842L541.664 432H539.192L67.37 -41ZM105.469 -41L577.29 432H574.818L102.996 -41H105.469ZM138.622 -41H141.094L612.916 432H610.444L138.622 -41ZM176.72 -41L648.543 432H646.071L174.248 -41H176.72ZM-190.799 -41L-439 206.581V204.109L-193.278 -41H-190.799ZM-439 239.735L-157.563 -41H-155.085L-439 242.207V239.735ZM239.439 345.788L222.862 329.169L120.008 432H117.533L221.626 327.931L205.049 311.313L84.334 432H81.859L203.813 310.073L187.236 293.455L48.659 432H46.184L186 292.216L169.422 275.597L12.983 432H10.508L168.186 274.357L151.609 257.739L-22.691 432H-25.166L150.373 256.5L133.796 239.882L-58.365 432H-60.84L132.56 238.643L115.982 222.024L-94.04 432H-96.515L114.747 220.784L98.17 204.166L-129.716 432H-132.191L96.934 202.927L80.357 186.309L-165.39 432H-167.865L79.121 185.07L62.543 168.451L-201.064 432H-203.539L61.308 167.212L44.731 150.594L-236.74 432H-239.215L43.494 149.354L26.916 132.735L-272.415 432H-274.89L25.68 131.496L9.103 114.878L-308.089 432H-310.564L7.867 113.639L-8.89001 96.84L-344.125 432H-346.6L-10.125 95.601L-26.703 78.982L-379.8 432H-382.275L-27.94 77.743L-44.517 61.125L-415.473 432H-417.948L-45.751 59.886L-62.328 43.268L-439 419.853V417.378L-63.565 42.028L-79.472 26.081L-439 384.713V382.241L-80.708 24.842L-97.285 8.224L-439 349.087V346.615L-98.521 6.985L-115.098 -9.633L-439 313.461V310.989L-116.334 -10.872L-132.911 -27.491L-439 277.835V275.363L-134.147 -28.73L-146.387 -41H-143.915L-132.909 -29.966L-121.847 -41H-119.369L-131.673 -28.727L-115.096 -12.108L-98.478 -28.684L-110.762 -41H-108.29L-97.238 -29.921L-86.131 -41H-83.653L-96.002 -28.682L-79.425 -12.064L-62.806 -28.641L-75.134 -41H-72.662L-61.567 -29.877L-50.416 -41H-47.938L-60.331 -28.638L-43.754 -12.02L-27.136 -28.597L-39.509 -41H-37.037L-25.897 -29.832L-14.701 -41H-12.223L-24.661 -28.593L434.786 432H432.314L-25.9 -27.357L-42.518 -10.78L399.158 432H396.686L-43.757 -9.544L-60.376 7.033L363.533 432H361.061L-61.615 8.269L-78.233 24.845L327.908 432H325.436L240.675 347.027L155.683 432H153.208L239.439 345.788ZM-97.241 -27.446L-113.859 -10.87L-97.282 5.748L-80.664 -10.828L-97.241 -27.446ZM-61.612 5.794L-44.993 -10.784L-61.57 -27.402L-78.189 -10.825L-61.612 5.794ZM-62.851 7.03L-79.428 -9.589L-96.046 6.987L-79.469 23.605L-62.851 7.03ZM-439 135.328V132.856L-264.709 -41H-262.231L-439 135.328ZM-336.139 -41H-333.661L-439 64.077V61.605L-336.139 -41ZM-439 99.702V97.23L-300.424 -41H-297.946L-439 99.702ZM1001 217.385V219.86L789.873 431.034L790.838 432H788.363L315.469 -41H317.944L645.969 287.098L662.746 270.317L351.496 -41H353.971L663.984 269.08L680.579 252.481L387.161 -41H389.636L681.816 251.243L698.412 234.644L422.829 -41H425.304L699.65 233.406L716.247 216.806L458.495 -41H460.97L717.483 215.569L734.078 198.97L494.163 -41H496.638L735.316 197.732L751.912 181.133L529.828 -41H532.303L753.149 179.895L769.745 163.295L565.495 -41H567.97L770.983 162.057L787.579 145.458L601.162 -41H603.637L788.816 144.22L805.412 127.62L636.829 -41H639.304L806.65 126.383L823.246 109.784L672.495 -41H674.97L824.483 108.545L841.079 91.946L708.162 -41H710.637L842.316 90.708L858.913 74.108L743.829 -41H746.304L860.15 72.871L876.745 56.272L779.495 -41H781.97L877.983 55.034L894.579 38.434L815.162 -41H817.637L895.816 37.197L973.995 -41H976.47L647.206 288.336L663.802 304.936L1001 -32.337V-29.862L665.04 306.173L681.636 322.773L1001 3.338V5.813L682.873 324.01L699.468 340.609L1001 39.012V41.487L700.706 341.847L717.302 358.447L1001 74.687V77.162L718.54 359.685L735.136 376.285L1001 110.362V112.837L736.373 377.522L752.968 394.121L1001 146.035V148.51L754.206 395.359L770.802 411.959L1001 181.711V184.186L772.039 413.196L788.635 429.796L1001 217.385ZM1001 429.734V432H998.734L1001 429.734Z" fill="#C5DEE3"/>
</svg>
