<svg width="825" height="780" viewBox="0 0 825 780" fill="none" xmlns="http://www.w3.org/2000/svg">
<path fill-rule="evenodd" clip-rule="evenodd" d="M824.255 749.244L793.838 779.667H791.363L824.254 746.769V749.244H824.255ZM466.007 0L821.905 356.7L824.255 354.349V356.824L591.301 589.829L607.885 606.441L824.255 390.023V392.498L609.121 607.68L625.705 624.292L824.254 425.698V428.173L626.942 625.531L643.525 642.142L824.255 461.372V463.847L644.761 643.38L661.345 659.992L824.254 497.046V499.521L662.582 661.231L679.166 677.843L824.255 532.722V535.197L680.402 679.082L696.985 695.693L824.255 568.395V570.87L698.221 696.932L714.805 713.544L824.255 604.07V606.545L716.042 714.782L732.626 731.394L824.255 639.745V642.22L733.862 732.632L750.445 749.243L824.255 675.417V677.892L751.682 750.481L768.267 767.094L824.255 711.093V713.568L769.503 768.332L780.816 779.664H778.343L0 0H2.473L590.065 588.591L606.668 571.984L35.976 0H38.448L607.905 570.746L624.5 554.147L71.605 0H74.077L625.738 552.91L642.334 536.311L107.236 0H109.708L643.57 535.073L660.167 518.473L142.867 0H145.339L661.405 517.235L678 500.636L178.498 0H180.97L679.238 499.398L695.834 482.799L214.127 0H216.599L697.071 481.561L713.667 464.961L249.757 0H252.229L714.905 463.723L731.501 447.124L285.388 0H287.86L732.738 445.886L749.334 429.286L321.018 0H323.49L750.572 428.049L767.168 411.45L356.647 0H359.119L768.404 410.212L785 393.612L392.278 0H394.75L786.237 392.375L802.834 375.775L427.909 0H430.381L804.072 374.537L820.667 357.938L463.535 0H466.007ZM645.424 0H647.899L574.694 73.221L590.424 88.987L679.393 0H681.868L591.661 90.226L608.241 106.843L715.06 0H717.535L609.477 108.082L626.056 124.698L750.727 0H753.202L627.292 125.938L643.871 142.554L786.393 0H788.868L645.107 143.793L661.686 160.41L822.061 0H824.255V0.281L662.922 161.649L679.501 178.265L824.255 33.48V35.955L680.737 179.504L697.316 196.12L824.255 69.154V71.629L698.553 197.359L715.133 213.976L824.255 104.83V107.305L716.369 215.215L732.948 231.831L824.256 140.503V142.978L734.184 233.069L750.764 249.686L824.256 176.178V178.653L752 250.925L768.579 267.541L824.256 211.852V214.327L769.816 268.779L786.395 285.395L824.257 247.525V250L787.632 286.633L804.211 303.25L824.257 283.2V285.675L805.447 304.489L822.026 321.105L824.257 318.874V321.349L823.262 322.344L824.257 323.341V325.819L499.165 0H501.637L502.196 0.56L502.756 0H505.231L503.432 1.799L520.011 18.416L538.424 0H540.899L521.248 19.655L537.827 36.271L574.091 0H576.566L539.064 37.51L555.643 54.127L609.757 0H612.232L556.878 55.366L573.457 71.983L645.424 0Z" fill="#C5DEE3" fill-opacity="0.1"/>
</svg>
