<svg width="375" height="41" viewBox="0 0 375 41" fill="none" xmlns="http://www.w3.org/2000/svg">
<path fill-rule="evenodd" clip-rule="evenodd" d="M366.427 41V0H374.333V41H366.427ZM333.24 0H341.146V41H333.24V0ZM299.781 0H307.687V41H299.781V0ZM266.594 0H274.5V41H266.594V0ZM233.135 0H241.041V41H233.135V0ZM199.948 0H207.844V41H199.948V0ZM166.49 0H174.386V41H166.49V0ZM133.292 0H141.198V41H133.292V0ZM99.833 0H107.739V41H99.833V0ZM66.646 0H74.552V41H66.646V0ZM33.188 0H41.094V41H33.188V0ZM0 0H7.906V41H0V0Z" fill="#C5DEE3"/>
</svg>
