<svg width="120" height="295" viewBox="0 0 120 295" fill="none" xmlns="http://www.w3.org/2000/svg">
<g filter="url(#filter0_d_0_4)">
<path fill-rule="evenodd" clip-rule="evenodd" d="M34 140C32.159 140 30.667 138.508 30.667 136.667C30.667 134.826 32.159 133.334 34 133.334C35.841 133.334 37.333 134.826 37.333 136.667C37.333 138.508 35.841 140 34 140ZM34 126.667C32.159 126.667 30.667 125.175 30.667 123.334C30.667 121.493 32.159 120.001 34 120.001C35.841 120.001 37.333 121.493 37.333 123.334C37.333 125.174 35.841 126.667 34 126.667ZM34 113.333C32.159 113.333 30.667 111.841 30.667 110C30.667 108.159 32.159 106.667 34 106.667C35.841 106.667 37.333 108.159 37.333 110C37.333 111.841 35.841 113.333 34 113.333ZM34 100C32.159 100 30.667 98.508 30.667 96.667C30.667 94.826 32.159 93.334 34 93.334C35.841 93.334 37.333 94.826 37.333 96.667C37.333 98.508 35.841 100 34 100ZM34 86.667C32.159 86.667 30.667 85.175 30.667 83.334C30.667 81.492 32.159 80 34 80C35.841 80 37.333 81.492 37.333 83.333C37.333 85.174 35.841 86.667 34 86.667ZM34 73.333C32.159 73.333 30.667 71.841 30.667 70C30.667 68.159 32.159 66.667 34 66.667C35.841 66.667 37.333 68.159 37.333 70C37.333 71.841 35.841 73.333 34 73.333ZM34 60C32.159 60 30.667 58.508 30.667 56.667C30.667 54.826 32.159 53.334 34 53.334C35.841 53.334 37.333 54.826 37.333 56.667C37.333 58.508 35.841 60 34 60ZM34 46.667C32.159 46.667 30.667 45.175 30.667 43.334C30.667 41.492 32.159 40 34 40C35.841 40 37.333 41.492 37.333 43.333C37.333 45.174 35.841 46.667 34 46.667ZM34 33.333C32.159 33.333 30.667 31.841 30.667 30C30.667 28.159 32.159 26.667 34 26.667C35.841 26.667 37.333 28.159 37.333 30C37.333 31.841 35.841 33.333 34 33.333ZM34 20C32.159 20 30.667 18.508 30.667 16.667C30.667 14.826 32.159 13.334 34 13.334C35.841 13.334 37.333 14.826 37.333 16.667C37.333 18.508 35.841 20 34 20ZM34 6.667C32.159 6.667 30.667 5.175 30.667 3.334C30.667 1.492 32.159 0 34 0C35.841 0 37.333 1.492 37.333 3.333C37.333 5.174 35.841 6.667 34 6.667ZM20.667 140C18.826 140 17.334 138.508 17.334 136.667C17.334 134.826 18.826 133.334 20.667 133.334C22.508 133.334 24 134.826 24 136.667C24 138.508 22.508 140 20.667 140ZM20.667 126.667C18.826 126.667 17.334 125.175 17.334 123.334C17.334 121.493 18.826 120.001 20.667 120.001C22.508 120.001 24 121.493 24 123.334C24 125.174 22.508 126.667 20.667 126.667ZM20.667 113.333C18.826 113.333 17.334 111.841 17.334 110C17.334 108.159 18.826 106.667 20.667 106.667C22.508 106.667 24 108.159 24 110C24 111.841 22.508 113.333 20.667 113.333ZM20.667 100C18.826 100 17.334 98.508 17.334 96.667C17.334 94.826 18.826 93.334 20.667 93.334C22.508 93.334 24 94.826 24 96.667C24 98.508 22.508 100 20.667 100ZM20.667 86.667C18.826 86.667 17.334 85.175 17.334 83.334C17.334 81.493 18.826 80.001 20.667 80.001C22.508 80 24 81.492 24 83.333C24 85.174 22.508 86.667 20.667 86.667ZM20.667 73.333C18.826 73.333 17.334 71.841 17.334 70C17.334 68.159 18.826 66.667 20.667 66.667C22.508 66.667 24 68.159 24 70C24 71.841 22.508 73.333 20.667 73.333ZM20.667 60C18.826 60 17.334 58.508 17.334 56.667C17.334 54.826 18.826 53.334 20.667 53.334C22.508 53.334 24 54.826 24 56.667C24 58.508 22.508 60 20.667 60ZM20.667 46.667C18.826 46.667 17.334 45.175 17.334 43.334C17.334 41.493 18.826 40.001 20.667 40.001C22.508 40 24 41.492 24 43.333C24 45.174 22.508 46.667 20.667 46.667ZM20.667 33.333C18.826 33.333 17.334 31.841 17.334 30C17.334 28.159 18.826 26.667 20.667 26.667C22.508 26.667 24 28.159 24 30C24 31.841 22.508 33.333 20.667 33.333ZM20.667 20C18.826 20 17.334 18.508 17.334 16.667C17.334 14.826 18.826 13.334 20.667 13.334C22.508 13.334 24 14.826 24 16.667C24 18.508 22.508 20 20.667 20ZM20.667 6.667C18.826 6.667 17.334 5.175 17.334 3.334C17.333 1.492 18.826 0 20.667 0C22.508 0 24 1.492 24 3.333C24 5.174 22.508 6.667 20.667 6.667ZM7.333 140C5.492 140 4 138.508 4 136.667C4 134.826 5.492 133.334 7.333 133.334C9.174 133.334 10.666 134.826 10.666 136.667C10.666 138.508 9.174 140 7.333 140ZM7.333 126.667C5.492 126.667 4 125.175 4 123.334C4 121.492 5.492 120 7.333 120C9.174 120 10.666 121.492 10.666 123.333C10.667 125.174 9.174 126.667 7.333 126.667ZM7.333 113.333C5.492 113.333 4 111.841 4 110C4 108.159 5.492 106.667 7.333 106.667C9.174 106.667 10.666 108.159 10.666 110C10.667 111.841 9.174 113.333 7.333 113.333ZM7.333 100C5.492 100 4 98.508 4 96.667C4 94.826 5.492 93.334 7.333 93.334C9.174 93.334 10.666 94.826 10.666 96.667C10.667 98.508 9.174 100 7.333 100ZM7.333 86.667C5.492 86.667 4 85.174 4 83.333C4 81.492 5.492 80 7.333 80C9.174 80 10.666 81.492 10.666 83.333C10.667 85.174 9.174 86.667 7.333 86.667ZM7.333 73.333C5.492 73.333 4 71.841 4 70C4 68.159 5.492 66.667 7.333 66.667C9.174 66.667 10.667 68.159 10.667 70C10.667 71.841 9.174 73.333 7.333 73.333ZM7.333 60C5.492 60 4 58.508 4 56.667C4 54.826 5.492 53.334 7.333 53.334C9.174 53.334 10.666 54.826 10.666 56.667C10.667 58.508 9.174 60 7.333 60ZM7.333 46.667C5.492 46.667 4 45.174 4 43.333C4 41.492 5.492 40 7.333 40C9.174 40 10.666 41.492 10.666 43.333C10.667 45.174 9.174 46.667 7.333 46.667ZM7.333 33.333C5.492 33.333 4 31.841 4 30C4 28.159 5.492 26.667 7.333 26.667C9.174 26.667 10.667 28.159 10.667 30C10.667 31.841 9.174 33.333 7.333 33.333ZM7.333 20C5.492 20 4 18.508 4 16.667C4 14.826 5.492 13.334 7.333 13.334C9.174 13.334 10.666 14.826 10.666 16.667C10.666 18.508 9.174 20 7.333 20ZM7.333 6.667C5.492 6.667 4 5.174 4 3.333C4 1.492 5.492 0 7.333 0C9.174 0 10.666 1.492 10.666 3.333C10.667 5.174 9.174 6.667 7.333 6.667Z" fill="#C5DEE3"/>
<path fill-rule="evenodd" clip-rule="evenodd" d="M73 140C71.159 140 69.667 138.508 69.667 136.667C69.667 134.826 71.159 133.334 73 133.334C74.841 133.334 76.333 134.826 76.333 136.667C76.333 138.508 74.841 140 73 140ZM73 126.667C71.159 126.667 69.667 125.175 69.667 123.334C69.667 121.493 71.159 120.001 73 120.001C74.841 120.001 76.333 121.493 76.333 123.334C76.333 125.174 74.841 126.667 73 126.667ZM73 113.333C71.159 113.333 69.667 111.841 69.667 110C69.667 108.159 71.159 106.667 73 106.667C74.841 106.667 76.333 108.159 76.333 110C76.333 111.841 74.841 113.333 73 113.333ZM73 100C71.159 100 69.667 98.508 69.667 96.667C69.667 94.826 71.159 93.334 73 93.334C74.841 93.334 76.333 94.826 76.333 96.667C76.333 98.508 74.841 100 73 100ZM73 86.667C71.159 86.667 69.667 85.175 69.667 83.334C69.667 81.492 71.159 80 73 80C74.841 80 76.333 81.492 76.333 83.333C76.333 85.174 74.841 86.667 73 86.667ZM73 73.333C71.159 73.333 69.667 71.841 69.667 70C69.667 68.159 71.159 66.667 73 66.667C74.841 66.667 76.333 68.159 76.333 70C76.333 71.841 74.841 73.333 73 73.333ZM73 60C71.159 60 69.667 58.508 69.667 56.667C69.667 54.826 71.159 53.334 73 53.334C74.841 53.334 76.333 54.826 76.333 56.667C76.333 58.508 74.841 60 73 60ZM73 46.667C71.159 46.667 69.667 45.175 69.667 43.334C69.667 41.492 71.159 40 73 40C74.841 40 76.333 41.492 76.333 43.333C76.333 45.174 74.841 46.667 73 46.667ZM73 33.333C71.159 33.333 69.667 31.841 69.667 30C69.667 28.159 71.159 26.667 73 26.667C74.841 26.667 76.333 28.159 76.333 30C76.333 31.841 74.841 33.333 73 33.333ZM73 20C71.159 20 69.667 18.508 69.667 16.667C69.667 14.826 71.159 13.334 73 13.334C74.841 13.334 76.333 14.826 76.333 16.667C76.333 18.508 74.841 20 73 20ZM73 6.667C71.159 6.667 69.667 5.175 69.667 3.334C69.667 1.492 71.159 0 73 0C74.841 0 76.333 1.492 76.333 3.333C76.333 5.174 74.841 6.667 73 6.667ZM59.667 140C57.826 140 56.334 138.508 56.334 136.667C56.334 134.826 57.826 133.334 59.667 133.334C61.508 133.334 63 134.826 63 136.667C63 138.508 61.508 140 59.667 140ZM59.667 126.667C57.826 126.667 56.334 125.175 56.334 123.334C56.334 121.493 57.826 120.001 59.667 120.001C61.508 120.001 63 121.493 63 123.334C63 125.174 61.508 126.667 59.667 126.667ZM59.667 113.333C57.826 113.333 56.334 111.841 56.334 110C56.334 108.159 57.826 106.667 59.667 106.667C61.508 106.667 63 108.159 63 110C63 111.841 61.508 113.333 59.667 113.333ZM59.667 100C57.826 100 56.334 98.508 56.334 96.667C56.334 94.826 57.826 93.334 59.667 93.334C61.508 93.334 63 94.826 63 96.667C63 98.508 61.508 100 59.667 100ZM59.667 86.667C57.826 86.667 56.334 85.175 56.334 83.334C56.334 81.493 57.826 80.001 59.667 80.001C61.508 80 63 81.492 63 83.333C63 85.174 61.508 86.667 59.667 86.667ZM59.667 73.333C57.826 73.333 56.334 71.841 56.334 70C56.334 68.159 57.826 66.667 59.667 66.667C61.508 66.667 63 68.159 63 70C63 71.841 61.508 73.333 59.667 73.333ZM59.667 60C57.826 60 56.334 58.508 56.334 56.667C56.334 54.826 57.826 53.334 59.667 53.334C61.508 53.334 63 54.826 63 56.667C63 58.508 61.508 60 59.667 60ZM59.667 46.667C57.826 46.667 56.334 45.175 56.334 43.334C56.334 41.493 57.826 40.001 59.667 40.001C61.508 40 63 41.492 63 43.333C63 45.174 61.508 46.667 59.667 46.667ZM59.667 33.333C57.826 33.333 56.334 31.841 56.334 30C56.334 28.159 57.826 26.667 59.667 26.667C61.508 26.667 63 28.159 63 30C63 31.841 61.508 33.333 59.667 33.333ZM59.667 20C57.826 20 56.334 18.508 56.334 16.667C56.334 14.826 57.826 13.334 59.667 13.334C61.508 13.334 63 14.826 63 16.667C63 18.508 61.508 20 59.667 20ZM59.667 6.667C57.826 6.667 56.334 5.175 56.334 3.334C56.333 1.492 57.826 0 59.667 0C61.508 0 63 1.492 63 3.333C63 5.174 61.508 6.667 59.667 6.667ZM46.333 140C44.492 140 43 138.508 43 136.667C43 134.826 44.492 133.334 46.333 133.334C48.174 133.334 49.666 134.826 49.666 136.667C49.666 138.508 48.174 140 46.333 140ZM46.333 126.667C44.492 126.667 43 125.175 43 123.334C43 121.492 44.492 120 46.333 120C48.174 120 49.666 121.492 49.666 123.333C49.667 125.174 48.174 126.667 46.333 126.667ZM46.333 113.333C44.492 113.333 43 111.841 43 110C43 108.159 44.492 106.667 46.333 106.667C48.174 106.667 49.666 108.159 49.666 110C49.667 111.841 48.174 113.333 46.333 113.333ZM46.333 100C44.492 100 43 98.508 43 96.667C43 94.826 44.492 93.334 46.333 93.334C48.174 93.334 49.666 94.826 49.666 96.667C49.667 98.508 48.174 100 46.333 100ZM46.333 86.667C44.492 86.667 43 85.174 43 83.333C43 81.492 44.492 80 46.333 80C48.174 80 49.666 81.492 49.666 83.333C49.667 85.174 48.174 86.667 46.333 86.667ZM46.333 73.333C44.492 73.333 43 71.841 43 70C43 68.159 44.492 66.667 46.333 66.667C48.174 66.667 49.667 68.159 49.667 70C49.667 71.841 48.174 73.333 46.333 73.333ZM46.333 60C44.492 60 43 58.508 43 56.667C43 54.826 44.492 53.334 46.333 53.334C48.174 53.334 49.666 54.826 49.666 56.667C49.667 58.508 48.174 60 46.333 60ZM46.333 46.667C44.492 46.667 43 45.174 43 43.333C43 41.492 44.492 40 46.333 40C48.174 40 49.666 41.492 49.666 43.333C49.667 45.174 48.174 46.667 46.333 46.667ZM46.333 33.333C44.492 33.333 43 31.841 43 30C43 28.159 44.492 26.667 46.333 26.667C48.174 26.667 49.667 28.159 49.667 30C49.667 31.841 48.174 33.333 46.333 33.333ZM46.333 20C44.492 20 43 18.508 43 16.667C43 14.826 44.492 13.334 46.333 13.334C48.174 13.334 49.666 14.826 49.666 16.667C49.666 18.508 48.174 20 46.333 20ZM46.333 6.667C44.492 6.667 43 5.174 43 3.333C43 1.492 44.492 0 46.333 0C48.174 0 49.666 1.492 49.666 3.333C49.667 5.174 48.174 6.667 46.333 6.667Z" fill="#C5DEE3"/>
<path fill-rule="evenodd" clip-rule="evenodd" d="M112 140C110.159 140 108.667 138.508 108.667 136.667C108.667 134.826 110.159 133.334 112 133.334C113.841 133.334 115.333 134.826 115.333 136.667C115.333 138.508 113.841 140 112 140ZM112 126.667C110.159 126.667 108.667 125.175 108.667 123.334C108.667 121.493 110.159 120.001 112 120.001C113.841 120.001 115.333 121.493 115.333 123.334C115.333 125.174 113.841 126.667 112 126.667ZM112 113.333C110.159 113.333 108.667 111.841 108.667 110C108.667 108.159 110.159 106.667 112 106.667C113.841 106.667 115.333 108.159 115.333 110C115.333 111.841 113.841 113.333 112 113.333ZM112 100C110.159 100 108.667 98.508 108.667 96.667C108.667 94.826 110.159 93.334 112 93.334C113.841 93.334 115.333 94.826 115.333 96.667C115.333 98.508 113.841 100 112 100ZM112 86.667C110.159 86.667 108.667 85.175 108.667 83.334C108.667 81.492 110.159 80 112 80C113.841 80 115.333 81.492 115.333 83.333C115.333 85.174 113.841 86.667 112 86.667ZM112 73.333C110.159 73.333 108.667 71.841 108.667 70C108.667 68.159 110.159 66.667 112 66.667C113.841 66.667 115.333 68.159 115.333 70C115.333 71.841 113.841 73.333 112 73.333ZM112 60C110.159 60 108.667 58.508 108.667 56.667C108.667 54.826 110.159 53.334 112 53.334C113.841 53.334 115.333 54.826 115.333 56.667C115.333 58.508 113.841 60 112 60ZM112 46.667C110.159 46.667 108.667 45.175 108.667 43.334C108.667 41.492 110.159 40 112 40C113.841 40 115.333 41.492 115.333 43.333C115.333 45.174 113.841 46.667 112 46.667ZM112 33.333C110.159 33.333 108.667 31.841 108.667 30C108.667 28.159 110.159 26.667 112 26.667C113.841 26.667 115.333 28.159 115.333 30C115.333 31.841 113.841 33.333 112 33.333ZM112 20C110.159 20 108.667 18.508 108.667 16.667C108.667 14.826 110.159 13.334 112 13.334C113.841 13.334 115.333 14.826 115.333 16.667C115.333 18.508 113.841 20 112 20ZM112 6.667C110.159 6.667 108.667 5.175 108.667 3.334C108.667 1.492 110.159 0 112 0C113.841 0 115.333 1.492 115.333 3.333C115.333 5.174 113.841 6.667 112 6.667ZM98.667 140C96.826 140 95.334 138.508 95.334 136.667C95.334 134.826 96.826 133.334 98.667 133.334C100.508 133.334 102 134.826 102 136.667C102 138.508 100.508 140 98.667 140ZM98.667 126.667C96.826 126.667 95.334 125.175 95.334 123.334C95.334 121.493 96.826 120.001 98.667 120.001C100.508 120.001 102 121.493 102 123.334C102 125.174 100.508 126.667 98.667 126.667ZM98.667 113.333C96.826 113.333 95.334 111.841 95.334 110C95.334 108.159 96.826 106.667 98.667 106.667C100.508 106.667 102 108.159 102 110C102 111.841 100.508 113.333 98.667 113.333ZM98.667 100C96.826 100 95.334 98.508 95.334 96.667C95.334 94.826 96.826 93.334 98.667 93.334C100.508 93.334 102 94.826 102 96.667C102 98.508 100.508 100 98.667 100ZM98.667 86.667C96.826 86.667 95.334 85.175 95.334 83.334C95.334 81.493 96.826 80.001 98.667 80.001C100.508 80 102 81.492 102 83.333C102 85.174 100.508 86.667 98.667 86.667ZM98.667 73.333C96.826 73.333 95.334 71.841 95.334 70C95.334 68.159 96.826 66.667 98.667 66.667C100.508 66.667 102 68.159 102 70C102 71.841 100.508 73.333 98.667 73.333ZM98.667 60C96.826 60 95.334 58.508 95.334 56.667C95.334 54.826 96.826 53.334 98.667 53.334C100.508 53.334 102 54.826 102 56.667C102 58.508 100.508 60 98.667 60ZM98.667 46.667C96.826 46.667 95.334 45.175 95.334 43.334C95.334 41.493 96.826 40.001 98.667 40.001C100.508 40 102 41.492 102 43.333C102 45.174 100.508 46.667 98.667 46.667ZM98.667 33.333C96.826 33.333 95.334 31.841 95.334 30C95.334 28.159 96.826 26.667 98.667 26.667C100.508 26.667 102 28.159 102 30C102 31.841 100.508 33.333 98.667 33.333ZM98.667 20C96.826 20 95.334 18.508 95.334 16.667C95.334 14.826 96.826 13.334 98.667 13.334C100.508 13.334 102 14.826 102 16.667C102 18.508 100.508 20 98.667 20ZM98.667 6.667C96.826 6.667 95.334 5.175 95.334 3.334C95.333 1.492 96.826 0 98.667 0C100.508 0 102 1.492 102 3.333C102 5.174 100.508 6.667 98.667 6.667ZM85.333 140C83.492 140 82 138.508 82 136.667C82 134.826 83.492 133.334 85.333 133.334C87.174 133.334 88.666 134.826 88.666 136.667C88.666 138.508 87.174 140 85.333 140ZM85.333 126.667C83.492 126.667 82 125.175 82 123.334C82 121.492 83.492 120 85.333 120C87.174 120 88.666 121.492 88.666 123.333C88.667 125.174 87.174 126.667 85.333 126.667ZM85.333 113.333C83.492 113.333 82 111.841 82 110C82 108.159 83.492 106.667 85.333 106.667C87.174 106.667 88.666 108.159 88.666 110C88.667 111.841 87.174 113.333 85.333 113.333ZM85.333 100C83.492 100 82 98.508 82 96.667C82 94.826 83.492 93.334 85.333 93.334C87.174 93.334 88.666 94.826 88.666 96.667C88.667 98.508 87.174 100 85.333 100ZM85.333 86.667C83.492 86.667 82 85.174 82 83.333C82 81.492 83.492 80 85.333 80C87.174 80 88.666 81.492 88.666 83.333C88.667 85.174 87.174 86.667 85.333 86.667ZM85.333 73.333C83.492 73.333 82 71.841 82 70C82 68.159 83.492 66.667 85.333 66.667C87.174 66.667 88.667 68.159 88.667 70C88.667 71.841 87.174 73.333 85.333 73.333ZM85.333 60C83.492 60 82 58.508 82 56.667C82 54.826 83.492 53.334 85.333 53.334C87.174 53.334 88.666 54.826 88.666 56.667C88.667 58.508 87.174 60 85.333 60ZM85.333 46.667C83.492 46.667 82 45.174 82 43.333C82 41.492 83.492 40 85.333 40C87.174 40 88.666 41.492 88.666 43.333C88.667 45.174 87.174 46.667 85.333 46.667ZM85.333 33.333C83.492 33.333 82 31.841 82 30C82 28.159 83.492 26.667 85.333 26.667C87.174 26.667 88.667 28.159 88.667 30C88.667 31.841 87.174 33.333 85.333 33.333ZM85.333 20C83.492 20 82 18.508 82 16.667C82 14.826 83.492 13.334 85.333 13.334C87.174 13.334 88.666 14.826 88.666 16.667C88.666 18.508 87.174 20 85.333 20ZM85.333 6.667C83.492 6.667 82 5.174 82 3.333C82 1.492 83.492 0 85.333 0C87.174 0 88.666 1.492 88.666 3.333C88.667 5.174 87.174 6.667 85.333 6.667Z" fill="#C5DEE3"/>
<path fill-rule="evenodd" clip-rule="evenodd" d="M34 287C32.159 287 30.667 285.508 30.667 283.667C30.667 281.826 32.159 280.334 34 280.334C35.841 280.334 37.333 281.826 37.333 283.667C37.333 285.508 35.841 287 34 287ZM34 273.667C32.159 273.667 30.667 272.175 30.667 270.334C30.667 268.493 32.159 267.001 34 267.001C35.841 267.001 37.333 268.493 37.333 270.334C37.333 272.174 35.841 273.667 34 273.667ZM34 260.333C32.159 260.333 30.667 258.841 30.667 257C30.667 255.159 32.159 253.667 34 253.667C35.841 253.667 37.333 255.159 37.333 257C37.333 258.841 35.841 260.333 34 260.333ZM34 247C32.159 247 30.667 245.508 30.667 243.667C30.667 241.826 32.159 240.334 34 240.334C35.841 240.334 37.333 241.826 37.333 243.667C37.333 245.508 35.841 247 34 247ZM34 233.667C32.159 233.667 30.667 232.175 30.667 230.334C30.667 228.492 32.159 227 34 227C35.841 227 37.333 228.492 37.333 230.333C37.333 232.174 35.841 233.667 34 233.667ZM34 220.333C32.159 220.333 30.667 218.841 30.667 217C30.667 215.159 32.159 213.667 34 213.667C35.841 213.667 37.333 215.159 37.333 217C37.333 218.841 35.841 220.333 34 220.333ZM34 207C32.159 207 30.667 205.508 30.667 203.667C30.667 201.826 32.159 200.334 34 200.334C35.841 200.334 37.333 201.826 37.333 203.667C37.333 205.508 35.841 207 34 207ZM34 193.667C32.159 193.667 30.667 192.175 30.667 190.334C30.667 188.492 32.159 187 34 187C35.841 187 37.333 188.492 37.333 190.333C37.333 192.174 35.841 193.667 34 193.667ZM34 180.333C32.159 180.333 30.667 178.841 30.667 177C30.667 175.159 32.159 173.667 34 173.667C35.841 173.667 37.333 175.159 37.333 177C37.333 178.841 35.841 180.333 34 180.333ZM34 167C32.159 167 30.667 165.508 30.667 163.667C30.667 161.826 32.159 160.334 34 160.334C35.841 160.334 37.333 161.826 37.333 163.667C37.333 165.508 35.841 167 34 167ZM34 153.667C32.159 153.667 30.667 152.175 30.667 150.334C30.667 148.492 32.159 147 34 147C35.841 147 37.333 148.492 37.333 150.333C37.333 152.174 35.841 153.667 34 153.667ZM20.667 287C18.826 287 17.334 285.508 17.334 283.667C17.334 281.826 18.826 280.334 20.667 280.334C22.508 280.334 24 281.826 24 283.667C24 285.508 22.508 287 20.667 287ZM20.667 273.667C18.826 273.667 17.334 272.175 17.334 270.334C17.334 268.493 18.826 267.001 20.667 267.001C22.508 267.001 24 268.493 24 270.334C24 272.174 22.508 273.667 20.667 273.667ZM20.667 260.333C18.826 260.333 17.334 258.841 17.334 257C17.334 255.159 18.826 253.667 20.667 253.667C22.508 253.667 24 255.159 24 257C24 258.841 22.508 260.333 20.667 260.333ZM20.667 247C18.826 247 17.334 245.508 17.334 243.667C17.334 241.826 18.826 240.334 20.667 240.334C22.508 240.334 24 241.826 24 243.667C24 245.508 22.508 247 20.667 247ZM20.667 233.667C18.826 233.667 17.334 232.175 17.334 230.334C17.334 228.493 18.826 227.001 20.667 227.001C22.508 227 24 228.492 24 230.333C24 232.174 22.508 233.667 20.667 233.667ZM20.667 220.333C18.826 220.333 17.334 218.841 17.334 217C17.334 215.159 18.826 213.667 20.667 213.667C22.508 213.667 24 215.159 24 217C24 218.841 22.508 220.333 20.667 220.333ZM20.667 207C18.826 207 17.334 205.508 17.334 203.667C17.334 201.826 18.826 200.334 20.667 200.334C22.508 200.334 24 201.826 24 203.667C24 205.508 22.508 207 20.667 207ZM20.667 193.667C18.826 193.667 17.334 192.175 17.334 190.334C17.334 188.493 18.826 187.001 20.667 187.001C22.508 187 24 188.492 24 190.333C24 192.174 22.508 193.667 20.667 193.667ZM20.667 180.333C18.826 180.333 17.334 178.841 17.334 177C17.334 175.159 18.826 173.667 20.667 173.667C22.508 173.667 24 175.159 24 177C24 178.841 22.508 180.333 20.667 180.333ZM20.667 167C18.826 167 17.334 165.508 17.334 163.667C17.334 161.826 18.826 160.334 20.667 160.334C22.508 160.334 24 161.826 24 163.667C24 165.508 22.508 167 20.667 167ZM20.667 153.667C18.826 153.667 17.334 152.175 17.334 150.334C17.333 148.492 18.826 147 20.667 147C22.508 147 24 148.492 24 150.333C24 152.174 22.508 153.667 20.667 153.667ZM7.333 287C5.492 287 4 285.508 4 283.667C4 281.826 5.492 280.334 7.333 280.334C9.174 280.334 10.666 281.826 10.666 283.667C10.666 285.508 9.174 287 7.333 287ZM7.333 273.667C5.492 273.667 4 272.175 4 270.334C4 268.492 5.492 267 7.333 267C9.174 267 10.666 268.492 10.666 270.333C10.667 272.174 9.174 273.667 7.333 273.667ZM7.333 260.333C5.492 260.333 4 258.841 4 257C4 255.159 5.492 253.667 7.333 253.667C9.174 253.667 10.666 255.159 10.666 257C10.667 258.841 9.174 260.333 7.333 260.333ZM7.333 247C5.492 247 4 245.508 4 243.667C4 241.826 5.492 240.334 7.333 240.334C9.174 240.334 10.666 241.826 10.666 243.667C10.667 245.508 9.174 247 7.333 247ZM7.333 233.667C5.492 233.667 4 232.174 4 230.333C4 228.492 5.492 227 7.333 227C9.174 227 10.666 228.492 10.666 230.333C10.667 232.174 9.174 233.667 7.333 233.667ZM7.333 220.333C5.492 220.333 4 218.841 4 217C4 215.159 5.492 213.667 7.333 213.667C9.174 213.667 10.667 215.159 10.667 217C10.667 218.841 9.174 220.333 7.333 220.333ZM7.333 207C5.492 207 4 205.508 4 203.667C4 201.826 5.492 200.334 7.333 200.334C9.174 200.334 10.666 201.826 10.666 203.667C10.667 205.508 9.174 207 7.333 207ZM7.333 193.667C5.492 193.667 4 192.174 4 190.333C4 188.492 5.492 187 7.333 187C9.174 187 10.666 188.492 10.666 190.333C10.667 192.174 9.174 193.667 7.333 193.667ZM7.333 180.333C5.492 180.333 4 178.841 4 177C4 175.159 5.492 173.667 7.333 173.667C9.174 173.667 10.667 175.159 10.667 177C10.667 178.841 9.174 180.333 7.333 180.333ZM7.333 167C5.492 167 4 165.508 4 163.667C4 161.826 5.492 160.334 7.333 160.334C9.174 160.334 10.666 161.826 10.666 163.667C10.666 165.508 9.174 167 7.333 167ZM7.333 153.667C5.492 153.667 4 152.174 4 150.333C4 148.492 5.492 147 7.333 147C9.174 147 10.666 148.492 10.666 150.333C10.667 152.174 9.174 153.667 7.333 153.667Z" fill="#C5DEE3"/>
<path fill-rule="evenodd" clip-rule="evenodd" d="M73 287C71.159 287 69.667 285.508 69.667 283.667C69.667 281.826 71.159 280.334 73 280.334C74.841 280.334 76.333 281.826 76.333 283.667C76.333 285.508 74.841 287 73 287ZM73 273.667C71.159 273.667 69.667 272.175 69.667 270.334C69.667 268.493 71.159 267.001 73 267.001C74.841 267.001 76.333 268.493 76.333 270.334C76.333 272.174 74.841 273.667 73 273.667ZM73 260.333C71.159 260.333 69.667 258.841 69.667 257C69.667 255.159 71.159 253.667 73 253.667C74.841 253.667 76.333 255.159 76.333 257C76.333 258.841 74.841 260.333 73 260.333ZM73 247C71.159 247 69.667 245.508 69.667 243.667C69.667 241.826 71.159 240.334 73 240.334C74.841 240.334 76.333 241.826 76.333 243.667C76.333 245.508 74.841 247 73 247ZM73 233.667C71.159 233.667 69.667 232.175 69.667 230.334C69.667 228.492 71.159 227 73 227C74.841 227 76.333 228.492 76.333 230.333C76.333 232.174 74.841 233.667 73 233.667ZM73 220.333C71.159 220.333 69.667 218.841 69.667 217C69.667 215.159 71.159 213.667 73 213.667C74.841 213.667 76.333 215.159 76.333 217C76.333 218.841 74.841 220.333 73 220.333ZM73 207C71.159 207 69.667 205.508 69.667 203.667C69.667 201.826 71.159 200.334 73 200.334C74.841 200.334 76.333 201.826 76.333 203.667C76.333 205.508 74.841 207 73 207ZM73 193.667C71.159 193.667 69.667 192.175 69.667 190.334C69.667 188.492 71.159 187 73 187C74.841 187 76.333 188.492 76.333 190.333C76.333 192.174 74.841 193.667 73 193.667ZM73 180.333C71.159 180.333 69.667 178.841 69.667 177C69.667 175.159 71.159 173.667 73 173.667C74.841 173.667 76.333 175.159 76.333 177C76.333 178.841 74.841 180.333 73 180.333ZM73 167C71.159 167 69.667 165.508 69.667 163.667C69.667 161.826 71.159 160.334 73 160.334C74.841 160.334 76.333 161.826 76.333 163.667C76.333 165.508 74.841 167 73 167ZM73 153.667C71.159 153.667 69.667 152.175 69.667 150.334C69.667 148.492 71.159 147 73 147C74.841 147 76.333 148.492 76.333 150.333C76.333 152.174 74.841 153.667 73 153.667ZM59.667 287C57.826 287 56.334 285.508 56.334 283.667C56.334 281.826 57.826 280.334 59.667 280.334C61.508 280.334 63 281.826 63 283.667C63 285.508 61.508 287 59.667 287ZM59.667 273.667C57.826 273.667 56.334 272.175 56.334 270.334C56.334 268.493 57.826 267.001 59.667 267.001C61.508 267.001 63 268.493 63 270.334C63 272.174 61.508 273.667 59.667 273.667ZM59.667 260.333C57.826 260.333 56.334 258.841 56.334 257C56.334 255.159 57.826 253.667 59.667 253.667C61.508 253.667 63 255.159 63 257C63 258.841 61.508 260.333 59.667 260.333ZM59.667 247C57.826 247 56.334 245.508 56.334 243.667C56.334 241.826 57.826 240.334 59.667 240.334C61.508 240.334 63 241.826 63 243.667C63 245.508 61.508 247 59.667 247ZM59.667 233.667C57.826 233.667 56.334 232.175 56.334 230.334C56.334 228.493 57.826 227.001 59.667 227.001C61.508 227 63 228.492 63 230.333C63 232.174 61.508 233.667 59.667 233.667ZM59.667 220.333C57.826 220.333 56.334 218.841 56.334 217C56.334 215.159 57.826 213.667 59.667 213.667C61.508 213.667 63 215.159 63 217C63 218.841 61.508 220.333 59.667 220.333ZM59.667 207C57.826 207 56.334 205.508 56.334 203.667C56.334 201.826 57.826 200.334 59.667 200.334C61.508 200.334 63 201.826 63 203.667C63 205.508 61.508 207 59.667 207ZM59.667 193.667C57.826 193.667 56.334 192.175 56.334 190.334C56.334 188.493 57.826 187.001 59.667 187.001C61.508 187 63 188.492 63 190.333C63 192.174 61.508 193.667 59.667 193.667ZM59.667 180.333C57.826 180.333 56.334 178.841 56.334 177C56.334 175.159 57.826 173.667 59.667 173.667C61.508 173.667 63 175.159 63 177C63 178.841 61.508 180.333 59.667 180.333ZM59.667 167C57.826 167 56.334 165.508 56.334 163.667C56.334 161.826 57.826 160.334 59.667 160.334C61.508 160.334 63 161.826 63 163.667C63 165.508 61.508 167 59.667 167ZM59.667 153.667C57.826 153.667 56.334 152.175 56.334 150.334C56.333 148.492 57.826 147 59.667 147C61.508 147 63 148.492 63 150.333C63 152.174 61.508 153.667 59.667 153.667ZM46.333 287C44.492 287 43 285.508 43 283.667C43 281.826 44.492 280.334 46.333 280.334C48.174 280.334 49.666 281.826 49.666 283.667C49.666 285.508 48.174 287 46.333 287ZM46.333 273.667C44.492 273.667 43 272.175 43 270.334C43 268.492 44.492 267 46.333 267C48.174 267 49.666 268.492 49.666 270.333C49.667 272.174 48.174 273.667 46.333 273.667ZM46.333 260.333C44.492 260.333 43 258.841 43 257C43 255.159 44.492 253.667 46.333 253.667C48.174 253.667 49.666 255.159 49.666 257C49.667 258.841 48.174 260.333 46.333 260.333ZM46.333 247C44.492 247 43 245.508 43 243.667C43 241.826 44.492 240.334 46.333 240.334C48.174 240.334 49.666 241.826 49.666 243.667C49.667 245.508 48.174 247 46.333 247ZM46.333 233.667C44.492 233.667 43 232.174 43 230.333C43 228.492 44.492 227 46.333 227C48.174 227 49.666 228.492 49.666 230.333C49.667 232.174 48.174 233.667 46.333 233.667ZM46.333 220.333C44.492 220.333 43 218.841 43 217C43 215.159 44.492 213.667 46.333 213.667C48.174 213.667 49.667 215.159 49.667 217C49.667 218.841 48.174 220.333 46.333 220.333ZM46.333 207C44.492 207 43 205.508 43 203.667C43 201.826 44.492 200.334 46.333 200.334C48.174 200.334 49.666 201.826 49.666 203.667C49.667 205.508 48.174 207 46.333 207ZM46.333 193.667C44.492 193.667 43 192.174 43 190.333C43 188.492 44.492 187 46.333 187C48.174 187 49.666 188.492 49.666 190.333C49.667 192.174 48.174 193.667 46.333 193.667ZM46.333 180.333C44.492 180.333 43 178.841 43 177C43 175.159 44.492 173.667 46.333 173.667C48.174 173.667 49.667 175.159 49.667 177C49.667 178.841 48.174 180.333 46.333 180.333ZM46.333 167C44.492 167 43 165.508 43 163.667C43 161.826 44.492 160.334 46.333 160.334C48.174 160.334 49.666 161.826 49.666 163.667C49.666 165.508 48.174 167 46.333 167ZM46.333 153.667C44.492 153.667 43 152.174 43 150.333C43 148.492 44.492 147 46.333 147C48.174 147 49.666 148.492 49.666 150.333C49.667 152.174 48.174 153.667 46.333 153.667Z" fill="#C5DEE3"/>
<path fill-rule="evenodd" clip-rule="evenodd" d="M112 287C110.159 287 108.667 285.508 108.667 283.667C108.667 281.826 110.159 280.334 112 280.334C113.841 280.334 115.333 281.826 115.333 283.667C115.333 285.508 113.841 287 112 287ZM112 273.667C110.159 273.667 108.667 272.175 108.667 270.334C108.667 268.493 110.159 267.001 112 267.001C113.841 267.001 115.333 268.493 115.333 270.334C115.333 272.174 113.841 273.667 112 273.667ZM112 260.333C110.159 260.333 108.667 258.841 108.667 257C108.667 255.159 110.159 253.667 112 253.667C113.841 253.667 115.333 255.159 115.333 257C115.333 258.841 113.841 260.333 112 260.333ZM112 247C110.159 247 108.667 245.508 108.667 243.667C108.667 241.826 110.159 240.334 112 240.334C113.841 240.334 115.333 241.826 115.333 243.667C115.333 245.508 113.841 247 112 247ZM112 233.667C110.159 233.667 108.667 232.175 108.667 230.334C108.667 228.492 110.159 227 112 227C113.841 227 115.333 228.492 115.333 230.333C115.333 232.174 113.841 233.667 112 233.667ZM112 220.333C110.159 220.333 108.667 218.841 108.667 217C108.667 215.159 110.159 213.667 112 213.667C113.841 213.667 115.333 215.159 115.333 217C115.333 218.841 113.841 220.333 112 220.333ZM112 207C110.159 207 108.667 205.508 108.667 203.667C108.667 201.826 110.159 200.334 112 200.334C113.841 200.334 115.333 201.826 115.333 203.667C115.333 205.508 113.841 207 112 207ZM112 193.667C110.159 193.667 108.667 192.175 108.667 190.334C108.667 188.492 110.159 187 112 187C113.841 187 115.333 188.492 115.333 190.333C115.333 192.174 113.841 193.667 112 193.667ZM112 180.333C110.159 180.333 108.667 178.841 108.667 177C108.667 175.159 110.159 173.667 112 173.667C113.841 173.667 115.333 175.159 115.333 177C115.333 178.841 113.841 180.333 112 180.333ZM112 167C110.159 167 108.667 165.508 108.667 163.667C108.667 161.826 110.159 160.334 112 160.334C113.841 160.334 115.333 161.826 115.333 163.667C115.333 165.508 113.841 167 112 167ZM112 153.667C110.159 153.667 108.667 152.175 108.667 150.334C108.667 148.492 110.159 147 112 147C113.841 147 115.333 148.492 115.333 150.333C115.333 152.174 113.841 153.667 112 153.667ZM98.667 287C96.826 287 95.334 285.508 95.334 283.667C95.334 281.826 96.826 280.334 98.667 280.334C100.508 280.334 102 281.826 102 283.667C102 285.508 100.508 287 98.667 287ZM98.667 273.667C96.826 273.667 95.334 272.175 95.334 270.334C95.334 268.493 96.826 267.001 98.667 267.001C100.508 267.001 102 268.493 102 270.334C102 272.174 100.508 273.667 98.667 273.667ZM98.667 260.333C96.826 260.333 95.334 258.841 95.334 257C95.334 255.159 96.826 253.667 98.667 253.667C100.508 253.667 102 255.159 102 257C102 258.841 100.508 260.333 98.667 260.333ZM98.667 247C96.826 247 95.334 245.508 95.334 243.667C95.334 241.826 96.826 240.334 98.667 240.334C100.508 240.334 102 241.826 102 243.667C102 245.508 100.508 247 98.667 247ZM98.667 233.667C96.826 233.667 95.334 232.175 95.334 230.334C95.334 228.493 96.826 227.001 98.667 227.001C100.508 227 102 228.492 102 230.333C102 232.174 100.508 233.667 98.667 233.667ZM98.667 220.333C96.826 220.333 95.334 218.841 95.334 217C95.334 215.159 96.826 213.667 98.667 213.667C100.508 213.667 102 215.159 102 217C102 218.841 100.508 220.333 98.667 220.333ZM98.667 207C96.826 207 95.334 205.508 95.334 203.667C95.334 201.826 96.826 200.334 98.667 200.334C100.508 200.334 102 201.826 102 203.667C102 205.508 100.508 207 98.667 207ZM98.667 193.667C96.826 193.667 95.334 192.175 95.334 190.334C95.334 188.493 96.826 187.001 98.667 187.001C100.508 187 102 188.492 102 190.333C102 192.174 100.508 193.667 98.667 193.667ZM98.667 180.333C96.826 180.333 95.334 178.841 95.334 177C95.334 175.159 96.826 173.667 98.667 173.667C100.508 173.667 102 175.159 102 177C102 178.841 100.508 180.333 98.667 180.333ZM98.667 167C96.826 167 95.334 165.508 95.334 163.667C95.334 161.826 96.826 160.334 98.667 160.334C100.508 160.334 102 161.826 102 163.667C102 165.508 100.508 167 98.667 167ZM98.667 153.667C96.826 153.667 95.334 152.175 95.334 150.334C95.333 148.492 96.826 147 98.667 147C100.508 147 102 148.492 102 150.333C102 152.174 100.508 153.667 98.667 153.667ZM85.333 287C83.492 287 82 285.508 82 283.667C82 281.826 83.492 280.334 85.333 280.334C87.174 280.334 88.666 281.826 88.666 283.667C88.666 285.508 87.174 287 85.333 287ZM85.333 273.667C83.492 273.667 82 272.175 82 270.334C82 268.492 83.492 267 85.333 267C87.174 267 88.666 268.492 88.666 270.333C88.667 272.174 87.174 273.667 85.333 273.667ZM85.333 260.333C83.492 260.333 82 258.841 82 257C82 255.159 83.492 253.667 85.333 253.667C87.174 253.667 88.666 255.159 88.666 257C88.667 258.841 87.174 260.333 85.333 260.333ZM85.333 247C83.492 247 82 245.508 82 243.667C82 241.826 83.492 240.334 85.333 240.334C87.174 240.334 88.666 241.826 88.666 243.667C88.667 245.508 87.174 247 85.333 247ZM85.333 233.667C83.492 233.667 82 232.174 82 230.333C82 228.492 83.492 227 85.333 227C87.174 227 88.666 228.492 88.666 230.333C88.667 232.174 87.174 233.667 85.333 233.667ZM85.333 220.333C83.492 220.333 82 218.841 82 217C82 215.159 83.492 213.667 85.333 213.667C87.174 213.667 88.667 215.159 88.667 217C88.667 218.841 87.174 220.333 85.333 220.333ZM85.333 207C83.492 207 82 205.508 82 203.667C82 201.826 83.492 200.334 85.333 200.334C87.174 200.334 88.666 201.826 88.666 203.667C88.667 205.508 87.174 207 85.333 207ZM85.333 193.667C83.492 193.667 82 192.174 82 190.333C82 188.492 83.492 187 85.333 187C87.174 187 88.666 188.492 88.666 190.333C88.667 192.174 87.174 193.667 85.333 193.667ZM85.333 180.333C83.492 180.333 82 178.841 82 177C82 175.159 83.492 173.667 85.333 173.667C87.174 173.667 88.667 175.159 88.667 177C88.667 178.841 87.174 180.333 85.333 180.333ZM85.333 167C83.492 167 82 165.508 82 163.667C82 161.826 83.492 160.334 85.333 160.334C87.174 160.334 88.666 161.826 88.666 163.667C88.666 165.508 87.174 167 85.333 167ZM85.333 153.667C83.492 153.667 82 152.174 82 150.333C82 148.492 83.492 147 85.333 147C87.174 147 88.666 148.492 88.666 150.333C88.667 152.174 87.174 153.667 85.333 153.667Z" fill="#C5DEE3"/>
</g>
<defs>
<filter id="filter0_d_0_4" x="0" y="0" width="119.333" height="295" filterUnits="userSpaceOnUse" color-interpolation-filters="sRGB">
<feFlood flood-opacity="0" result="BackgroundImageFix"/>
<feColorMatrix in="SourceAlpha" type="matrix" values="0 0 0 0 0 0 0 0 0 0 0 0 0 0 0 0 0 0 127 0" result="hardAlpha"/>
<feOffset dy="4"/>
<feGaussianBlur stdDeviation="2"/>
<feComposite in2="hardAlpha" operator="out"/>
<feColorMatrix type="matrix" values="0 0 0 0 0 0 0 0 0 0 0 0 0 0 0 0 0 0 0.25 0"/>
<feBlend mode="normal" in2="BackgroundImageFix" result="effect1_dropShadow_0_4"/>
<feBlend mode="normal" in="SourceGraphic" in2="effect1_dropShadow_0_4" result="shape"/>
</filter>
</defs>
</svg>
