<svg width="1440" height="473" viewBox="0 0 1440 473" fill="none" xmlns="http://www.w3.org/2000/svg">
<path fill-rule="evenodd" clip-rule="evenodd" d="M1406.24 473H1403.77L1440 436.757V439.232L1406.24 473ZM1370.57 473H1368.1L1440 401.083V403.558L1370.57 473ZM1334.91 473H1332.43L1440 365.408V367.883L1334.91 473ZM1299.24 473H1296.77L1440 329.735V332.21L1299.24 473ZM1263.57 473H1261.1L1440 294.059V296.534L1263.57 473ZM1194.17 473H1191.7L718.801 0H721.276L1194.17 473ZM1158.51 473H1156.03L683.125 0H685.6L1158.51 473ZM1120.36 473L647.459 0H649.934L1122.84 473H1120.36ZM210.007 0H212.485L0 211.956V209.484L210.007 0ZM435.118 0H437.59L909.411 473H906.939L435.118 0ZM470.743 0H473.215L945.036 473H942.564L470.743 0ZM506.37 0H508.842L980.664 473H978.192L506.37 0ZM544.469 0L1016.29 473H1013.82L541.996 0H544.469ZM577.622 0H580.094L1051.92 473H1049.44L577.622 0ZM615.72 0L1087.54 473H1085.07L613.248 0H615.72ZM248.201 0L0 247.581V245.109L245.722 0H248.201ZM0 280.735L281.437 0H283.915L0 283.207V280.735ZM678.439 386.788L661.862 370.169L559.008 473H556.533L660.626 368.931L644.049 352.313L523.334 473H520.859L642.813 351.073L626.236 334.455L487.659 473H485.184L625 333.216L608.422 316.597L451.983 473H449.508L607.186 315.357L590.609 298.739L416.309 473H413.834L589.373 297.5L572.796 280.882L380.635 473H378.16L571.56 279.643L554.982 263.024L344.96 473H342.485L553.747 261.784L537.17 245.166L309.284 473H306.809L535.934 243.927L519.357 227.309L273.61 473H271.135L518.121 226.07L501.543 209.451L237.936 473H235.461L500.308 208.212L483.731 191.594L202.26 473H199.785L482.494 190.354L465.916 173.735L166.585 473H164.11L464.68 172.496L448.103 155.878L130.911 473H128.436L446.867 154.639L430.11 137.84L94.875 473H92.4L428.875 136.601L412.297 119.982L59.2 473H56.725L411.06 118.743L394.483 102.125L23.527 473H21.052L393.249 100.886L376.672 84.268L0 460.853V458.378L375.435 83.028L359.528 67.081L0 425.713V423.241L358.292 65.842L341.715 49.224L0 390.087V387.615L340.479 47.985L323.902 31.367L0 354.461V351.989L322.666 30.128L306.089 13.509L0 318.835V316.363L304.853 12.27L292.613 0H295.085L306.091 11.034L317.153 0H319.631L307.327 12.273L323.904 28.892L340.522 12.316L328.238 0H330.71L341.762 11.079L352.869 0H355.347L342.998 12.318L359.575 28.936L376.194 12.359L363.866 0H366.338L377.433 11.123L388.584 0H391.062L378.669 12.362L395.246 28.98L411.864 12.403L399.491 0H401.963L413.103 11.168L424.299 0H426.777L414.339 12.407L873.786 473H871.314L413.1 13.643L396.482 30.22L838.158 473H835.686L395.243 31.456L378.624 48.033L802.533 473H800.061L377.385 49.269L360.767 65.845L766.908 473H764.436L679.675 388.027L594.683 473H592.208L678.439 386.788ZM341.759 13.554L325.141 30.13L341.718 46.748L358.336 30.172L341.759 13.554ZM377.388 46.794L394.007 30.216L377.43 13.598L360.811 30.175L377.388 46.794ZM376.149 48.03L359.572 31.411L342.954 47.987L359.531 64.605L376.149 48.03ZM0 176.328V173.856L174.291 0H176.769L0 176.328ZM102.861 0H105.339L0 105.077V102.605L102.861 0ZM0 140.702V138.23L138.576 0H141.054L0 140.702ZM1440 258.385V260.86L1228.87 472.034L1229.84 473H1227.36L754.469 0H756.944L1084.97 328.098L1101.75 311.317L790.496 0H792.971L1102.98 310.08L1119.58 293.481L826.161 0H828.636L1120.82 292.243L1137.41 275.644L861.829 0H864.304L1138.65 274.406L1155.25 257.806L897.495 0H899.97L1156.48 256.569L1173.08 239.97L933.163 0H935.638L1174.32 238.732L1190.91 222.133L968.828 0H971.303L1192.15 220.895L1208.74 204.295L1004.49 0H1006.97L1209.98 203.057L1226.58 186.458L1040.16 0H1042.64L1227.82 185.22L1244.41 168.62L1075.83 0H1078.3L1245.65 167.383L1262.25 150.784L1111.49 0H1113.97L1263.48 149.545L1280.08 132.946L1147.16 0H1149.64L1281.32 131.708L1297.91 115.108L1182.83 0H1185.3L1299.15 113.871L1315.74 97.272L1218.49 0H1220.97L1316.98 96.034L1333.58 79.434L1254.16 0H1256.64L1334.82 78.197L1412.99 0H1415.47L1086.21 329.336L1102.8 345.936L1440 8.663V11.138L1104.04 347.173L1120.64 363.773L1440 44.338V46.813L1121.87 365.01L1138.47 381.609L1440 80.012V82.487L1139.71 382.847L1156.3 399.447L1440 115.687V118.162L1157.54 400.685L1174.14 417.285L1440 151.362V153.837L1175.37 418.522L1191.97 435.121L1440 187.035V189.51L1193.21 436.359L1209.8 452.959L1440 222.711V225.186L1211.04 454.196L1227.64 470.796L1440 258.385ZM1440 470.734V473H1437.73L1440 470.734Z" fill="white" fill-opacity="0.2"/>
</svg>
