<svg width="219" height="24" viewBox="0 0 219 24" fill="none" xmlns="http://www.w3.org/2000/svg">
<path fill-rule="evenodd" clip-rule="evenodd" d="M214.048 23.9501V0L218.666 0V23.9501H214.048ZM194.662 0L199.28 0V23.9501H194.662V0ZM175.117 0L179.735 0V23.9501H175.117V0ZM155.73 0L160.349 0V23.9501H155.73V0ZM136.185 0L140.804 0V23.9501H136.185V0ZM116.799 0L121.412 0V23.9501H116.799V0ZM97.2549 0L101.867 0V23.9501L97.2549 23.9501V0ZM77.8623 0L82.4806 0V23.9501H77.8623V0ZM58.3173 0L62.9356 0L62.9356 23.9501H58.3173L58.3173 0ZM38.9312 0L43.5494 0L43.5494 23.9501H38.9312L38.9312 0ZM19.3867 0L24.005 0L24.005 23.9501H19.3867L19.3867 0ZM0 0L4.61828 0L4.61828 23.9501H0L0 0Z" fill="#BB945B"/>
</svg>
