<svg width="41" height="375" viewBox="0 0 41 375" fill="none" xmlns="http://www.w3.org/2000/svg">
<g opacity="0.8">
<path fill-rule="evenodd" clip-rule="evenodd" d="M41 7.906L-1.6017e-05 7.90601L-1.63626e-05 0L41 -1.79217e-06L41 7.906ZM-1.45664e-05 41.093L-1.4912e-05 33.187L41 33.187L41 41.093L-1.45664e-05 41.093ZM-1.31038e-05 74.552L-1.34494e-05 66.646L41 66.646L41 74.552L-1.31038e-05 74.552ZM-1.16532e-05 107.739L-1.19988e-05 99.833L41 99.833L41 107.739L-1.16532e-05 107.739ZM-1.01907e-05 141.198L-1.05362e-05 133.292L41 133.292L41 141.198L-1.01907e-05 141.198ZM-8.74e-06 174.385L-9.08515e-06 166.489L41 166.489L41 174.385L-8.74e-06 174.385ZM-7.27751e-06 207.843L-7.62265e-06 199.947L41 199.947L41 207.843L-7.27751e-06 207.843ZM-5.82638e-06 241.041L-6.17196e-06 233.135L41 233.135L41 241.041L-5.82638e-06 241.041ZM-4.36384e-06 274.5L-4.70942e-06 266.594L41 266.594L41 274.5L-4.36384e-06 274.5ZM-2.91319e-06 307.687L-3.25877e-06 299.781L41 299.781L41 307.687L-2.91319e-06 307.687ZM-1.45069e-06 341.145L-1.79628e-06 333.239L41 333.239L41 341.145L-1.45069e-06 341.145ZM0 374.333L-3.45582e-07 366.427L41 366.427L41 374.333L0 374.333Z" fill="#FF8F80"/>
</g>
</svg>
